<svg xmlns="http://www.w3.org/2000/svg" xmlns:xlink="http://www.w3.org/1999/xlink" viewBox="0 0 1200 900"><defs><style>.cls-1{fill:none;}.cls-2{fill:#e1e9f1;}.cls-3{opacity:0.45;}.cls-4{clip-path:url(#clip-path);}.cls-5,.cls-6{fill:#88a9c5;}.cls-6{opacity:0.29;}.cls-7{fill:#5583ac;}.cls-8{fill:#084b87;}.cls-9{opacity:0.52;}.cls-10,.cls-11,.cls-12,.cls-13{fill:#fff;}.cls-11{opacity:0.5;}.cls-12{opacity:0.33;}.cls-13{opacity:0.4;}</style><clipPath id="clip-path"><rect class="cls-1" y="-300" width="1200" height="1200" transform="translate(1200 600) rotate(180)"/></clipPath></defs><g id="Bg"><rect class="cls-2" width="1200" height="900" transform="translate(1200 900) rotate(180)"/></g><g id="Object"><g class="cls-3"><g class="cls-4"><rect class="cls-5" x="333.57" y="338.18" width="104.97" height="417.83"/><rect class="cls-5" x="350.72" y="308.22" width="70.67" height="175.58"/><rect class="cls-5" x="366.46" y="289.22" width="39.2" height="97.39"/><polygon class="cls-5" points="399.41 339.27 372.7 339.27 372.7 272.89 382.34 272.89 391.89 272.89 399.41 272.89 399.41 339.27"/><polygon class="cls-5" points="384.3 310.37 381.4 310.37 381.4 243.99 382.45 243.99 383.48 243.99 384.3 243.99 384.3 310.37"/><polygon class="cls-5" points="390.71 287.42 387.82 287.42 387.82 221.05 388.86 221.05 389.9 221.05 390.71 221.05 390.71 287.42"/><rect class="cls-5" x="330.77" y="337.11" width="110.57" height="4.45"/><rect class="cls-5" x="348.14" y="306.08" width="75.82" height="4.28"/><rect class="cls-5" x="363.6" y="287.42" width="43.7" height="3.29"/><rect class="cls-6" x="357.22" y="315.35" width="3.29" height="18.4"/><rect class="cls-6" x="366.31" y="315.35" width="3.29" height="18.4"/><rect class="cls-6" x="375.4" y="315.35" width="3.29" height="18.4"/><rect class="cls-6" x="384.49" y="315.35" width="3.29" height="18.4"/><rect class="cls-6" x="393.58" y="315.35" width="3.29" height="18.4"/><rect class="cls-6" x="402.67" y="315.35" width="3.29" height="18.4"/><rect class="cls-6" x="411.76" y="315.35" width="3.29" height="18.4"/><rect class="cls-5" x="342.79" y="354.84" width="7.94" height="21.83"/><rect class="cls-6" x="358.51" y="354.84" width="7.94" height="21.83"/><rect class="cls-5" x="374.23" y="354.84" width="7.94" height="21.83"/><rect class="cls-5" x="389.95" y="354.84" width="7.94" height="21.83"/><rect class="cls-5" x="405.67" y="354.84" width="7.94" height="21.83"/><rect class="cls-5" x="421.39" y="354.84" width="7.94" height="21.83"/><rect class="cls-5" x="342.79" y="388.86" width="7.94" height="21.83"/><rect class="cls-5" x="358.51" y="388.86" width="7.94" height="21.83"/><rect class="cls-5" x="374.23" y="388.86" width="7.94" height="21.83"/><rect class="cls-6" x="389.95" y="388.86" width="7.94" height="21.83"/><rect class="cls-5" x="405.67" y="388.86" width="7.94" height="21.83"/><rect class="cls-5" x="421.39" y="388.86" width="7.94" height="21.83"/><rect class="cls-5" x="342.79" y="422.89" width="7.94" height="21.83"/><rect class="cls-5" x="358.51" y="422.89" width="7.94" height="21.83"/><rect class="cls-5" x="374.23" y="422.89" width="7.94" height="21.83"/><rect class="cls-5" x="389.95" y="422.89" width="7.94" height="21.83"/><rect class="cls-6" x="405.67" y="422.89" width="7.94" height="21.83"/><rect class="cls-6" x="421.39" y="422.89" width="7.94" height="21.83"/><rect class="cls-6" x="342.79" y="456.91" width="7.94" height="21.83"/><rect class="cls-5" x="358.51" y="456.91" width="7.94" height="21.83"/><rect class="cls-5" x="374.23" y="456.91" width="7.94" height="21.83"/><rect class="cls-5" x="389.95" y="456.91" width="7.94" height="21.83"/><rect class="cls-5" x="405.67" y="456.91" width="7.94" height="21.83"/><rect class="cls-5" x="421.39" y="456.91" width="7.94" height="21.83"/><rect class="cls-5" x="342.79" y="490.94" width="7.94" height="21.83"/><rect class="cls-6" x="358.51" y="490.94" width="7.94" height="21.83"/><rect class="cls-5" x="374.23" y="490.94" width="7.94" height="21.83"/><rect class="cls-6" x="389.95" y="490.94" width="7.94" height="21.83"/><rect class="cls-5" x="405.67" y="490.94" width="7.94" height="21.83"/><rect class="cls-5" x="421.39" y="490.94" width="7.94" height="21.83"/><rect class="cls-5" x="342.79" y="524.96" width="7.94" height="21.83"/><rect class="cls-5" x="358.51" y="524.96" width="7.94" height="21.83"/><rect class="cls-5" x="374.23" y="524.96" width="7.94" height="21.83"/><rect class="cls-5" x="389.95" y="524.96" width="7.94" height="21.83"/><rect class="cls-5" x="405.67" y="524.96" width="7.94" height="21.83"/><rect class="cls-6" x="421.39" y="524.96" width="7.94" height="21.83"/><rect class="cls-5" x="342.79" y="558.98" width="7.94" height="21.83"/><rect class="cls-6" x="358.51" y="558.98" width="7.94" height="21.83"/><rect class="cls-6" x="374.23" y="558.98" width="7.94" height="21.83"/><rect class="cls-5" x="389.95" y="558.98" width="7.94" height="21.83"/><rect class="cls-5" x="405.67" y="558.98" width="7.94" height="21.83"/><rect class="cls-5" x="421.39" y="558.98" width="7.94" height="21.83"/><rect class="cls-5" x="342.79" y="593.01" width="7.94" height="21.83"/><rect class="cls-5" x="358.51" y="593.01" width="7.94" height="21.83"/><rect class="cls-5" x="374.23" y="593.01" width="7.94" height="21.83"/><rect class="cls-5" x="389.95" y="593.01" width="7.94" height="21.83"/><rect class="cls-6" x="405.67" y="593.01" width="7.94" height="21.83"/><rect class="cls-5" x="421.39" y="593.01" width="7.94" height="21.83"/><rect class="cls-5" x="342.79" y="627.03" width="7.94" height="21.83"/><rect class="cls-6" x="358.51" y="627.03" width="7.94" height="21.83"/><rect class="cls-5" x="374.23" y="627.03" width="7.94" height="21.83"/><rect class="cls-5" x="389.95" y="627.03" width="7.94" height="21.83"/><rect class="cls-5" x="405.67" y="627.03" width="7.94" height="21.83"/><rect class="cls-5" x="421.39" y="627.03" width="7.94" height="21.83"/><rect class="cls-5" x="342.79" y="661.06" width="7.94" height="21.83"/><rect class="cls-5" x="358.51" y="661.06" width="7.94" height="21.83"/><rect class="cls-5" x="374.23" y="661.06" width="7.94" height="21.83"/><rect class="cls-6" x="389.95" y="661.06" width="7.94" height="21.83"/><rect class="cls-5" x="405.67" y="661.06" width="7.94" height="21.83"/><rect class="cls-6" x="421.39" y="661.06" width="7.94" height="21.83"/><rect class="cls-6" x="342.79" y="695.08" width="7.94" height="21.83"/><rect class="cls-5" x="358.51" y="695.08" width="7.94" height="21.83"/><rect class="cls-6" x="374.23" y="695.08" width="7.94" height="21.83"/><rect class="cls-5" x="389.95" y="695.08" width="7.94" height="21.83"/><rect class="cls-5" x="405.67" y="695.08" width="7.94" height="21.83"/><rect class="cls-5" x="421.39" y="695.08" width="7.94" height="21.83"/><rect class="cls-5" x="28.71" y="354.07" width="168.74" height="351.98"/><rect class="cls-5" x="23.91" y="348.02" width="178.33" height="9.95"/><rect class="cls-5" x="34.38" y="335.28" width="157.4" height="47.29"/><rect class="cls-5" x="46.43" y="315.94" width="62.33" height="51.67"/><polygon class="cls-5" points="82.5 330.5 46.43 330.5 46.43 303.3 72.3 303.3 82.5 330.5"/><rect class="cls-5" x="60.97" y="280.73" width="3.5" height="60.58"/><circle class="cls-5" cx="62.71" cy="277.58" r="3.14"/><polygon class="cls-5" points="788.95 437.31 788.95 264.29 759.98 264.29 759.98 217.94 749.63 217.94 749.63 149.97 692.61 149.97 692.61 100.02 687.54 100.02 687.54 149.97 676.37 149.97 676.37 87.44 671.29 87.44 671.29 149.97 635.25 149.97 635.25 264.29 616.63 264.29 616.63 437.31 600.67 437.31 600.67 752.44 800.17 752.44 800.17 437.31 788.95 437.31"/><rect class="cls-5" x="-207.12" y="726.43" width="2206.97" height="52.49"/><polygon class="cls-7" points="1091.97 766.06 994.24 766.06 1032.32 570.37 1091.97 570.37 1091.97 766.06"/><rect class="cls-7" x="-286.31" y="773.69" width="2317.22" height="151.73"/><polygon class="cls-7" points="1011.88 403.93 1011.88 317.21 980.5 317.21 980.5 284.2 963.71 284.2 963.71 256.46 957.82 256.46 957.82 208.92 956.3 208.92 956.3 256.46 950.4 256.46 950.4 284.2 933.62 284.2 933.62 317.21 902.48 317.21 902.48 403.93 896 403.93 896 561.37 847.72 561.37 847.72 740.84 896 740.84 944.29 740.84 1018.11 740.84 1018.11 403.93 1011.88 403.93"/><polygon class="cls-7" points="1192.22 503.54 1040.33 503.54 1040.33 506.31 1047.2 506.31 1047.2 763.13 1185.35 763.13 1185.35 506.31 1192.22 506.31 1192.22 503.54"/><rect class="cls-7" x="364.96" y="567.51" width="134.66" height="213.94"/><rect class="cls-7" x="113.08" y="677.12" width="231.6" height="104.33"/><rect class="cls-7" x="237.22" y="444.04" width="50.84" height="256.2"/><rect class="cls-7" x="248.44" y="375.7" width="2.64" height="139.32"/><rect class="cls-7" x="257.03" y="386.26" width="2.64" height="139.32"/><rect class="cls-7" x="241.14" y="428.19" width="31.08" height="34.34"/><rect class="cls-7" x="335.6" y="605.81" width="88.48" height="175.64"/><rect class="cls-7" x="521.45" y="419.94" width="166.09" height="361.51"/><rect class="cls-7" x="537.77" y="407.52" width="133.45" height="60.21"/><rect class="cls-7" x="508.58" y="427.5" width="191.84" height="4.23"/><rect class="cls-7" x="491.36" y="598.88" width="78.26" height="182.57"/><rect class="cls-7" x="-69.16" y="591.95" width="89.8" height="189.51"/><rect class="cls-7" x="-40.11" y="540.44" width="178.94" height="241.01"/><rect class="cls-7" x="-50.55" y="531.2" width="194" height="9.24"/><rect class="cls-7" x="-32.19" y="506.11" width="78.64" height="48.86"/><rect class="cls-7" x="72.14" y="506.11" width="13.21" height="29.71"/><rect class="cls-7" x="98.55" y="506.11" width="14.53" height="29.71"/><rect class="cls-7" x="671.23" y="700.24" width="935.02" height="81.22"/><path class="cls-7" d="M1531.58,475.41a11.23,11.23,0,0,0-11.19,10.3l-13.16-.43c0-1.29,0-2.58,0-3.88a138.49,138.49,0,0,0-8.24-47.27l11-4.05a11.22,11.22,0,1,0-.43-1.17l-11,4a137.76,137.76,0,0,0-28.32-45.77l8.6-8.06a11.3,11.3,0,1,0-.85-.91l-8.61,8.06c-.88-.94-1.78-1.86-2.7-2.78a138.31,138.31,0,0,0-44.7-30l4.73-11.52a11.35,11.35,0,1,0-1.16-.45l-4.72,11.5A138,138,0,0,0,1374,343l.51-15.75h.36a11.21,11.21,0,1,0-1.6-.11L1372.7,343c-1.28,0-2.58-.05-3.87-.05a138.61,138.61,0,0,0-45.46,7.6l-4.53-12.85a11.17,11.17,0,1,0-1.18.41l4.53,12.85a137.88,137.88,0,0,0-47.58,29l-8.21-8.77a11.21,11.21,0,1,0-.89.87l8.2,8.75c-.94.89-1.87,1.79-2.78,2.7a138.51,138.51,0,0,0-27.61,39.28L1232.89,418a11.43,11.43,0,0,0,.58-3.58,11.24,11.24,0,1,0-1,4.74l10.38,4.79a137.62,137.62,0,0,0-12.33,52.37l-13.4-.43a11.19,11.19,0,1,0,0,1.25l13.39.43c0,1.29,0,2.58,0,3.87a138.51,138.51,0,0,0,8.24,47.28l-11,4.05a11.22,11.22,0,1,0,.43,1.17l11-4a137.76,137.76,0,0,0,28.32,45.77l-8.6,8.06a11.3,11.3,0,1,0,.85.91l8.61-8.06c.88.93,1.78,1.86,2.7,2.78a139.07,139.07,0,0,0,29,22.25l-67.76,124.87H1220V730h-6v7.1h309.56V730h-5.95v-3.57H1505.5l-67.76-124.87a138.4,138.4,0,0,0,25.3-18.7l11,11.72a11.3,11.3,0,1,0,1-.77L1464,582c.94-.89,1.87-1.79,2.78-2.7A138.71,138.71,0,0,0,1494.34,540l12.23,5.64a11,11,0,0,0-.35,2.76,11.24,11.24,0,1,0,.72-4l-12.08-5.57a137.67,137.67,0,0,0,12.33-52.37l13.16.42a11.24,11.24,0,1,0,11.23-11.54Zm-28,6c0,1.26,0,2.51,0,3.76l-38.77-1.26c0-.83,0-1.66,0-2.5a95.48,95.48,0,0,0-5.69-32.55l36.46-13.43A134.77,134.77,0,0,1,1503.54,481.4Zm-40.69,2.44L1376.37,481a6.77,6.77,0,0,0-.26-1.63l81.19-29.9a93.57,93.57,0,0,1,5.58,31.91C1462.88,482.22,1462.87,483,1462.85,483.84Zm-188-4.87,86.47,2.81a7.4,7.4,0,0,0,.27,1.64l-81.19,29.89a93.48,93.48,0,0,1-5.58-31.91Q1274.78,480.18,1274.81,479Zm99.94-2.26,63.1-59.12a94.34,94.34,0,0,1,19,30.73l-81.19,29.9A7.76,7.76,0,0,0,1374.75,476.71Zm-.85-.91a7.61,7.61,0,0,0-1.63-1.12l32.86-80a94.38,94.38,0,0,1,31.87,22Zm-2.79-1.6a8,8,0,0,0-1.41-.3l2.81-86.47a93.69,93.69,0,0,1,31.47,6.74Zm-2.66-.34a7.63,7.63,0,0,0-1.53.24l-28.77-81.61a93.87,93.87,0,0,1,30.68-5.14l2.43,0Zm-2.71.65a7.46,7.46,0,0,0-1.6,1L1305,412.39a94.1,94.1,0,0,1,32-19.48Zm-2.51,1.83a7.5,7.5,0,0,0-1,1.34l-78.55-36.26a94.5,94.5,0,0,1,20.39-28.18Zm-1.5,2.47a7.14,7.14,0,0,0-.4,1.73l-86.47-2.81a93.5,93.5,0,0,1,8.32-35.18Zm.25,5.78a7.48,7.48,0,0,0,.72,1.23l-.51.95-62.38,58.45a94.28,94.28,0,0,1-19-30.74Zm-1.68,5.66-39.16,72.19a94.8,94.8,0,0,1-20.48-16.3Zm4.26-2.61a8.61,8.61,0,0,0,.83.49l-32.86,80a93.42,93.42,0,0,1-9.22-4.48Zm2,1a8,8,0,0,0,1.41.3l-2.81,86.47a93.69,93.69,0,0,1-31.47-6.74Zm2.28,86.85c-.81,0-1.62,0-2.43,0l2.81-86.47a7.63,7.63,0,0,0,1.53-.24l28.76,81.6A93.51,93.51,0,0,1,1368.83,575.46Zm3.09-87.16a8.49,8.49,0,0,0,1.18-.66l41.25,76a92.75,92.75,0,0,1-13.67,6.22Zm6.94,4.72,53.79,57.4a95,95,0,0,1-16.13,12Zm-2.35-4.33-1.55-2.87a6.2,6.2,0,0,0,.44-.69L1454,521.38a94.42,94.42,0,0,1-20.39,28.19Zm-.58-4.7a7.44,7.44,0,0,0,.4-1.72l86.47,2.81a93.41,93.41,0,0,1-8.32,35.17Zm-44.12,85.91-14.76,35.94a131.75,131.75,0,0,1-13.17-6.35l18.53-34.17A97.13,97.13,0,0,0,1331.81,569.9Zm1.16.47a95.43,95.43,0,0,0,32.12,6.88L1363.83,616a134.08,134.08,0,0,1-45.62-9.7Zm33.37,6.93q1.25,0,2.49,0a95.49,95.49,0,0,0,31.3-5.25L1413,608.72a134.84,134.84,0,0,1-44.21,7.39c-1.25,0-2.5,0-3.75-.05Zm35-5.63a96,96,0,0,0,14-6.35l18.53,34.17a133,133,0,0,1-19.56,8.82Zm93.79-137.42-36.46,13.43a96,96,0,0,0-19.42-31.37l28.34-26.56A134,134,0,0,1,1495.09,434.25Zm-31-48.1c.89.89,1.76,1.78,2.62,2.69l-28.34,26.55a96.25,96.25,0,0,0-32.52-22.48L1420.61,357A134.42,134.42,0,0,1,1464.08,386.15Zm-44.63-29.66-14.76,35.95a95.43,95.43,0,0,0-32.12-6.88l1.26-38.77A134.08,134.08,0,0,1,1419.45,356.49Zm-50.62-9.79c1.25,0,2.5,0,3.75.05l-1.26,38.76-2.49,0a95.49,95.49,0,0,0-31.3,5.25l-12.91-36.65A135.1,135.1,0,0,1,1368.83,346.7Zm-45.39,7.8,12.91,36.64A96.17,96.17,0,0,0,1303.73,411l-26.55-28.34A133.87,133.87,0,0,1,1323.44,354.5Zm-49.86,31.65c.88-.89,1.78-1.76,2.69-2.62l26.55,28.34A96.54,96.54,0,0,0,1282,440.64l-35.29-16.29A134.76,134.76,0,0,1,1273.58,386.15Zm-27.38,39.33,35.28,16.29a95.4,95.4,0,0,0-8.49,35.89l-38.78-1.26A134.05,134.05,0,0,1,1246.2,425.48Zm-12.08,55.92c0-1.25,0-2.5.05-3.75l38.77,1.26q0,1.24,0,2.49A95.49,95.49,0,0,0,1278.6,514l-36.46,13.42A134.73,134.73,0,0,1,1234.12,481.4Zm8.45,47.16L1279,515.13a96,96,0,0,0,19.42,31.37l-28.35,26.56A134.1,134.1,0,0,1,1242.57,528.56Zm31,48.1c-.89-.89-1.76-1.79-2.62-2.69l28.34-26.55a96,96,0,0,0,21,16.66l-18.55,34.18A135.48,135.48,0,0,1,1273.58,576.66Zm229.08,149.77H1235l67.09-123.65a134.79,134.79,0,0,0,13.54,6.53l-4.73,11.52a11.35,11.35,0,1,0,1.16.45l4.72-11.5a138,138,0,0,0,46.93,10l-.39,11.78a11.23,11.23,0,1,0,1.25,0l.39-11.79c1.28,0,2.58.06,3.87.06a138.61,138.61,0,0,0,45.46-7.6l4,11.45a11.24,11.24,0,1,0,4.76-1.06,11,11,0,0,0-3.6.6l-4-11.41a136.27,136.27,0,0,0,20.1-9.06ZM1436,598.26l-18.55-34.18a96.16,96.16,0,0,0,16.52-12.29l26.55,28.34A134.88,134.88,0,0,1,1436,598.26Zm28.12-21.6c-.88.88-1.78,1.76-2.69,2.61l-26.55-28.33a96.54,96.54,0,0,0,20.81-28.77l35.29,16.29A134.76,134.76,0,0,1,1464.08,576.66Zm27.38-39.33L1456.18,521a95.41,95.41,0,0,0,8.49-35.9l38.78,1.26A134.1,134.1,0,0,1,1491.46,537.33Z"/><rect class="cls-7" x="1122.02" y="633.34" width="81" height="107.51"/><polygon class="cls-8" points="1983.88 809.65 1967.53 700.24 1934.07 700.24 1934.07 609.44 1938.21 609.44 1938.21 601.22 1921.96 601.22 1921.96 565.86 1919.98 565.86 1919.98 601.22 1908.76 601.22 1908.76 572.25 1906.78 572.25 1906.78 601.22 1839.11 601.22 1839.11 609.44 1843.73 609.44 1843.73 793.66 1766.48 793.66 1766.48 711.14 1722.48 711.14 1722.48 508.37 1726.5 508.37 1726.5 498.42 1717.72 498.42 1717.72 485.68 1707.6 485.68 1707.6 480.89 1707.6 466.33 1707.6 453.7 1695.4 453.7 1695.4 431.12 1693.93 431.12 1692.47 431.12 1692.47 453.7 1685.89 453.7 1681.91 466.33 1655.29 466.33 1655.29 485.68 1585.6 485.68 1585.6 498.42 1576.81 498.42 1576.81 508.37 1580.84 508.37 1580.84 640.3 1522.53 640.3 1522.53 769.93 1457.82 741.27 1457.82 615.44 1468.26 615.44 1468.26 606.2 1449.9 606.2 1449.9 581.11 1371.26 581.11 1371.26 606.2 1345.57 606.2 1345.57 581.11 1332.37 581.11 1332.37 606.2 1319.16 606.2 1319.16 581.11 1304.63 581.11 1304.63 606.2 1274.26 606.2 1274.26 615.44 1278.88 615.44 1278.88 789.84 1249.39 789.84 1249.39 788.01 1244.05 788.01 1244.05 738.31 1249.39 738.31 1249.39 734.33 1244.05 734.33 1244.05 684.63 1249.39 684.63 1249.39 680.64 1244.05 680.64 1244.05 630.94 1249.39 630.94 1249.39 626.96 1244.05 626.96 1244.05 577.26 1249.39 577.26 1249.39 573.27 1244.05 573.27 1244.05 523.57 1249.39 523.57 1249.39 519.59 1244.05 519.59 1244.05 468.15 1253.19 468.15 1253.19 464.15 1257.85 464.15 1257.85 453.25 1170.98 453.25 1170.98 441.13 1173.81 441.13 1173.81 437.62 1126.52 437.62 1126.52 441.13 1129.34 441.13 1129.34 453.25 1107.81 453.25 1107.81 464.15 1112.47 464.15 1112.47 468.15 1121.61 468.15 1121.61 519.59 1116.28 519.59 1116.28 523.57 1121.61 523.57 1121.61 573.27 1116.28 573.27 1116.28 577.26 1121.61 577.26 1121.61 626.96 1116.28 626.96 1116.28 630.94 1121.61 630.94 1121.61 680.64 1116.28 680.64 1116.28 684.63 1121.61 684.63 1121.61 734.33 1116.28 734.33 1116.28 738.31 1121.61 738.31 1121.61 788.01 1116.28 788.01 1116.28 792 1121.61 792 1121.61 832.61 1091.97 832.61 1091.97 675.67 972.67 675.67 972.67 789.84 953.3 789.84 953.3 434.2 938.97 434.2 938.97 443.35 912.53 449.82 912.53 443.87 898.2 443.87 898.2 453.32 871.75 459.79 871.75 452.98 857.42 452.98 857.42 463.3 830.98 469.77 830.98 464.14 816.65 464.14 816.65 473.27 790.21 479.74 790.21 474.89 775.88 474.89 775.88 824.14 755.72 824.14 755.72 637.95 681.05 637.95 681.05 752.44 604.5 752.44 604.5 654.81 595.07 654.81 595.07 622.74 600.67 622.74 600.67 619.52 575.89 619.52 575.89 609.44 573.25 609.44 573.25 619.52 565.33 619.52 565.33 567.77 563.35 567.77 563.35 619.52 553.03 619.52 553.03 622.74 559.1 622.74 559.1 654.81 508.58 654.81 508.58 729.29 459.39 729.29 433.7 824.14 382.17 824.14 382.17 514.44 313.93 514.44 313.93 503.35 317.8 503.35 317.8 499.45 266.12 499.45 266.12 503.35 270.18 503.35 270.18 514.44 270.18 532.29 270.18 744.39 238 744.39 238 664.25 249.44 664.25 249.44 657 168.48 657 168.48 608.58 153.03 608.58 153.03 598.63 118.56 598.63 118.56 608.58 90.51 608.58 90.51 781.45 -1.52 781.45 -1.52 653.24 -79.01 653.24 -79.01 754.51 -146.26 754.51 -146.26 819.3 -194.75 819.3 -194.75 737.85 -258.51 737.85 -258.51 807.29 -316.24 807.29 -316.24 925.42 -258.51 925.42 -239 925.42 -207.13 925.42 -194.75 925.42 -146.26 925.42 -79.01 925.42 -56.41 925.42 -44.31 925.42 -1.52 925.42 90.51 925.42 118.56 925.42 153.03 925.42 168.48 925.42 228.88 925.42 238 925.42 270.18 925.42 324.14 925.42 350.72 925.42 382.17 925.42 508.58 925.42 537.77 925.42 587.05 925.42 604.5 925.42 682.36 925.42 703.27 925.42 775.88 925.42 783.04 925.42 790.21 925.42 816.65 925.42 830.98 925.42 857.42 925.42 869.4 925.42 871.75 925.42 898.2 925.42 912.53 925.42 935.26 925.42 938.97 925.42 946.13 925.42 953.3 925.42 972.67 925.42 1071.27 925.42 1085.36 925.42 1091.97 925.42 1121.61 925.42 1173.81 925.42 1221.59 925.42 1244.05 925.42 1278.88 925.42 1365.39 925.42 1456.87 925.42 1457.82 925.42 1522.53 925.42 1558.7 925.42 1580.84 925.42 1594.82 925.42 1703.09 925.42 1722.48 925.42 1745.66 925.42 1766.48 925.42 1843.73 925.42 1901.18 925.42 1912.94 925.42 1934.07 925.42 2062.61 925.42 2062.61 809.65 1983.88 809.65"/><g class="cls-9"><rect class="cls-10" x="98.55" y="621.13" width="5.9" height="5.9"/><rect class="cls-10" x="110.41" y="621.13" width="5.9" height="5.9"/><rect class="cls-10" x="98.55" y="635" width="5.9" height="5.9"/><rect class="cls-10" x="110.41" y="635" width="5.9" height="5.9"/><rect class="cls-10" x="98.55" y="648.4" width="5.9" height="5.9"/><rect class="cls-10" x="123.59" y="621.13" width="5.9" height="5.9"/></g><rect class="cls-11" x="530.49" y="443.87" width="4.03" height="22.28"/><rect class="cls-11" x="544.36" y="443.87" width="4.03" height="22.28"/><rect class="cls-11" x="558.23" y="443.87" width="4.03" height="22.28"/><rect class="cls-11" x="572.11" y="443.87" width="4.03" height="22.28"/><rect class="cls-11" x="585.98" y="443.87" width="4.03" height="22.28"/><rect class="cls-11" x="599.85" y="443.87" width="4.03" height="22.28"/><rect class="cls-11" x="613.72" y="443.87" width="4.03" height="22.28"/><rect class="cls-11" x="627.6" y="443.87" width="4.03" height="22.28"/><rect class="cls-11" x="641.47" y="443.87" width="4.03" height="22.28"/><rect class="cls-11" x="655.34" y="443.87" width="4.03" height="22.28"/><rect class="cls-11" x="669.21" y="443.87" width="4.03" height="22.28"/><rect class="cls-11" x="530.49" y="474.89" width="4.03" height="22.28"/><rect class="cls-11" x="544.36" y="474.89" width="4.03" height="22.28"/><rect class="cls-11" x="558.23" y="474.89" width="4.03" height="22.28"/><rect class="cls-11" x="572.11" y="474.89" width="4.03" height="22.28"/><rect class="cls-11" x="585.98" y="474.89" width="4.03" height="22.28"/><rect class="cls-11" x="599.85" y="474.89" width="4.03" height="22.28"/><rect class="cls-11" x="613.72" y="474.89" width="4.03" height="22.28"/><rect class="cls-11" x="627.6" y="474.89" width="4.03" height="22.28"/><rect class="cls-11" x="641.47" y="474.89" width="4.03" height="22.28"/><rect class="cls-11" x="655.34" y="474.89" width="4.03" height="22.28"/><rect class="cls-11" x="669.21" y="474.89" width="4.03" height="22.28"/><rect class="cls-11" x="530.49" y="505.91" width="4.03" height="22.28"/><rect class="cls-11" x="544.36" y="505.91" width="4.03" height="22.28"/><rect class="cls-11" x="558.23" y="505.91" width="4.03" height="22.28"/><rect class="cls-11" x="572.11" y="505.91" width="4.03" height="22.28"/><rect class="cls-11" x="585.98" y="505.91" width="4.03" height="22.28"/><rect class="cls-11" x="599.85" y="505.91" width="4.03" height="22.28"/><rect class="cls-11" x="613.72" y="505.91" width="4.03" height="22.28"/><rect class="cls-11" x="627.6" y="505.91" width="4.03" height="22.28"/><rect class="cls-11" x="641.47" y="505.91" width="4.03" height="22.28"/><rect class="cls-11" x="655.34" y="505.91" width="4.03" height="22.28"/><rect class="cls-11" x="669.21" y="505.91" width="4.03" height="22.28"/><rect class="cls-11" x="572.11" y="536.93" width="4.03" height="22.28"/><rect class="cls-11" x="585.98" y="536.93" width="4.03" height="22.28"/><rect class="cls-11" x="599.85" y="536.93" width="4.03" height="22.28"/><rect class="cls-11" x="613.72" y="536.93" width="4.03" height="22.28"/><rect class="cls-11" x="627.6" y="536.93" width="4.03" height="22.28"/><rect class="cls-11" x="641.47" y="536.93" width="4.03" height="22.28"/><rect class="cls-11" x="655.34" y="536.93" width="4.03" height="22.28"/><rect class="cls-11" x="669.21" y="536.93" width="4.03" height="22.28"/><rect class="cls-11" x="585.98" y="569.67" width="4.03" height="22.28"/><rect class="cls-11" x="599.85" y="569.67" width="4.03" height="22.28"/><rect class="cls-11" x="613.72" y="569.67" width="4.03" height="22.28"/><rect class="cls-11" x="627.6" y="569.67" width="4.03" height="22.28"/><rect class="cls-11" x="641.47" y="569.67" width="4.03" height="22.28"/><rect class="cls-11" x="655.34" y="569.67" width="4.03" height="22.28"/><rect class="cls-11" x="669.21" y="569.67" width="4.03" height="22.28"/><rect class="cls-12" x="798.67" y="499.18" width="9.51" height="24.12"/><rect class="cls-12" x="798.67" y="545.31" width="9.51" height="24.12"/><rect class="cls-12" x="798.67" y="591.45" width="9.51" height="24.12"/><rect class="cls-12" x="798.67" y="637.58" width="9.51" height="24.12"/><rect class="cls-12" x="798.67" y="681.08" width="9.51" height="24.12"/><rect class="cls-12" x="798.67" y="727.21" width="9.51" height="24.12"/><rect class="cls-12" x="839.45" y="499.18" width="9.51" height="24.12"/><rect class="cls-12" x="839.45" y="545.31" width="9.51" height="24.12"/><rect class="cls-12" x="839.45" y="591.45" width="9.51" height="24.12"/><rect class="cls-12" x="839.45" y="637.58" width="9.51" height="24.12"/><rect class="cls-12" x="839.45" y="681.08" width="9.51" height="24.12"/><rect class="cls-12" x="839.45" y="727.21" width="9.51" height="24.12"/><rect class="cls-12" x="880.22" y="499.18" width="9.51" height="24.12"/><rect class="cls-12" x="880.22" y="545.31" width="9.51" height="24.12"/><rect class="cls-12" x="880.22" y="591.45" width="9.51" height="24.12"/><rect class="cls-12" x="880.22" y="637.58" width="9.51" height="24.12"/><rect class="cls-12" x="880.22" y="681.08" width="9.51" height="24.12"/><rect class="cls-12" x="880.22" y="727.21" width="9.51" height="24.12"/><rect class="cls-12" x="920.99" y="499.18" width="9.51" height="24.12"/><rect class="cls-12" x="920.99" y="545.31" width="9.51" height="24.12"/><rect class="cls-12" x="920.99" y="591.45" width="9.51" height="24.12"/><rect class="cls-12" x="920.99" y="637.58" width="9.51" height="24.12"/><rect class="cls-12" x="920.99" y="681.08" width="9.51" height="24.12"/><rect class="cls-12" x="920.99" y="727.21" width="9.51" height="24.12"/><rect class="cls-11" x="645.49" y="162.82" width="7.91" height="21.11"/><rect class="cls-11" x="665.02" y="162.82" width="7.91" height="21.11"/><rect class="cls-11" x="684.54" y="162.82" width="7.91" height="21.11"/><rect class="cls-11" x="704.06" y="162.82" width="7.91" height="21.11"/><rect class="cls-11" x="645.49" y="197.97" width="7.91" height="21.11"/><rect class="cls-11" x="665.02" y="197.97" width="7.91" height="21.11"/><rect class="cls-11" x="684.54" y="197.97" width="7.91" height="21.11"/><rect class="cls-11" x="704.06" y="197.97" width="7.91" height="21.11"/><rect class="cls-11" x="645.49" y="233.13" width="7.91" height="21.11"/><rect class="cls-11" x="665.02" y="233.13" width="7.91" height="21.11"/><rect class="cls-11" x="726.21" y="162.82" width="7.91" height="21.11"/><rect class="cls-13" x="118.56" y="376.67" width="5.03" height="19.35"/><rect class="cls-13" x="136.32" y="376.67" width="5.03" height="19.35"/><rect class="cls-13" x="157.08" y="376.67" width="5.03" height="19.35"/><rect class="cls-13" x="174.84" y="376.67" width="5.03" height="19.35"/><rect class="cls-13" x="79.11" y="376.67" width="5.03" height="19.35"/><rect class="cls-13" x="96.87" y="376.67" width="5.03" height="19.35"/><rect class="cls-13" x="118.56" y="410.27" width="5.03" height="19.35"/><rect class="cls-13" x="136.32" y="410.27" width="5.03" height="19.35"/><rect class="cls-13" x="157.08" y="410.27" width="5.03" height="19.35"/><rect class="cls-13" x="174.84" y="410.27" width="5.03" height="19.35"/><rect class="cls-13" x="79.11" y="410.27" width="5.03" height="19.35"/><rect class="cls-13" x="96.87" y="410.27" width="5.03" height="19.35"/><rect class="cls-13" x="118.56" y="443.87" width="5.03" height="19.35"/><rect class="cls-13" x="136.32" y="443.87" width="5.03" height="19.35"/><rect class="cls-13" x="157.08" y="443.87" width="5.03" height="19.35"/><rect class="cls-13" x="174.84" y="443.87" width="5.03" height="19.35"/><rect class="cls-13" x="79.11" y="443.87" width="5.03" height="19.35"/><rect class="cls-13" x="96.87" y="443.87" width="5.03" height="19.35"/><rect class="cls-11" x="1057.6" y="524.96" width="7.8" height="30.01"/><rect class="cls-11" x="1081.46" y="524.96" width="7.8" height="30.01"/><rect class="cls-11" x="1103.92" y="524.96" width="7.8" height="30.01"/><rect class="cls-12" x="1132.63" y="481.12" width="6.36" height="26.31"/><rect class="cls-12" x="1164.27" y="481.12" width="6.36" height="26.31"/><rect class="cls-12" x="1195.9" y="481.12" width="6.36" height="26.31"/><rect class="cls-12" x="1132.63" y="535.27" width="6.36" height="26.31"/><rect class="cls-12" x="1164.27" y="535.27" width="6.36" height="26.31"/><rect class="cls-12" x="1195.9" y="535.27" width="6.36" height="26.31"/><rect class="cls-12" x="1132.63" y="590.77" width="6.36" height="26.31"/><rect class="cls-12" x="1164.27" y="590.77" width="6.36" height="26.31"/><rect class="cls-12" x="1195.9" y="590.77" width="6.36" height="26.31"/><rect class="cls-12" x="1132.63" y="646.27" width="6.36" height="26.31"/><rect class="cls-12" x="1164.27" y="646.27" width="6.36" height="26.31"/><rect class="cls-12" x="1195.9" y="646.27" width="6.36" height="26.31"/><rect class="cls-12" x="1132.63" y="696.68" width="6.36" height="26.31"/><rect class="cls-12" x="1164.27" y="696.68" width="6.36" height="26.31"/><rect class="cls-12" x="1195.9" y="696.68" width="6.36" height="26.31"/><rect class="cls-12" x="1132.63" y="752.91" width="6.36" height="26.31"/><rect class="cls-12" x="1164.27" y="752.91" width="6.36" height="26.31"/><rect class="cls-12" x="1195.9" y="752.91" width="6.36" height="26.31"/></g></g></g></svg>