<?xml version="1.0" encoding="UTF-8"?><svg id="Layer_1" xmlns="http://www.w3.org/2000/svg" viewBox="0 0 500 273.44"><defs><style>.cls-1{fill:#ef9143;}.cls-2{fill:#084b87;}</style></defs><path class="cls-1" d="m331.17,269.6v-126.16h21.29c4.04,0,5.86-5.07,2.73-7.63l-85.36-70.1V21.29s80.35,76.12,225.84,127.34l-17.93,26.87c-29.62-9.15-50-17.15-60.22-21.43-3.44-1.44-7.09,1.56-6.31,5.22,4.06,19.04,19.83,63.14,52.53,110.32h-43.72s-19.62-25.74-36.73-66.67c-2.27-5.42-10.33-3.84-10.33,2.03v64.64s-41.78,0-41.78,0Z"/><g><path class="cls-2" d="m168.83,269.6v-126.16h-21.29c-4.04,0-5.86-5.07-2.73-7.63l85.36-70.1V21.29S149.82,97.41,4.33,148.63l17.93,26.87c29.62-9.15,50-17.15,60.22-21.43,3.44-1.44,7.09,1.56,6.31,5.22-4.06,19.04-19.83,63.14-52.53,110.32h43.72s19.62-25.74,36.73-66.67c2.27-5.42,10.33-3.84,10.33,2.03v64.64s41.78,0,41.78,0Z"/><ellipse class="cls-2" cx="113.04" cy="39.01" rx="30.67" ry="35.17"/><ellipse class="cls-1" cx="386.96" cy="39.01" rx="30.67" ry="35.17"/><rect class="cls-2" x="217.35" y="160.23" width="65.29" height="65.29"/></g></svg>