<?xml version="1.0" encoding="utf-8"?>
<!-- Generator: Adobe Illustrator 27.1.1, SVG Export Plug-In . SVG Version: 6.00 Build 0)  -->
<svg version="1.1" id="Layer_1" xmlns="http://www.w3.org/2000/svg" xmlns:xlink="http://www.w3.org/1999/xlink" x="0px" y="0px"
	 viewBox="0 0 73.4 39.7" style="enable-background:new 0 0 73.4 39.7;" xml:space="preserve">
<style type="text/css">
	.st0{fill:#1D417F;}
</style>
<g>
	<path class="st0" d="M48.8,39.7V20.8H52c0.6,0,0.9-0.8,0.4-1.1L39.6,9.2V2.6c0,0,12,11.4,33.7,19l-2.7,4c-4.4-1.4-7.5-2.6-9-3.2
		c-0.5-0.2-1.1,0.2-0.9,0.8c0.6,2.8,3,9.4,7.8,16.5h-6.5c0,0-2.9-3.8-5.5-10c-0.3-0.8-1.5-0.6-1.5,0.3v9.7L48.8,39.7L48.8,39.7z"/>
	<g>
		<path class="st0" d="M24.6,39.7V20.8h-3.2c-0.6,0-0.9-0.8-0.4-1.1L33.7,9.2V2.6c0,0-12,11.4-33.7,19l2.7,4c4.4-1.4,7.5-2.6,9-3.2
			c0.5-0.2,1.1,0.2,0.9,0.8c-0.6,2.8-3,9.4-7.8,16.5h6.5c0,0,2.9-3.8,5.5-10c0.3-0.8,1.5-0.6,1.5,0.3v9.7L24.6,39.7L24.6,39.7z"/>
		<ellipse class="st0" cx="16.2" cy="5.3" rx="4.6" ry="5.3"/>
		<ellipse class="st0" cx="57.1" cy="5.3" rx="4.6" ry="5.3"/>
		<rect x="31.8" y="23.4" class="st0" width="9.8" height="9.8"/>
	</g>
</g>
</svg>
