<svg id="Layer_1" data-name="Layer 1" xmlns="http://www.w3.org/2000/svg" viewBox="0 0 1472 1796"><defs><style>.cls-1{fill:#fff;}.cls-2{fill:#dcdcdc;}</style></defs><rect class="cls-1" width="1472" height="1796"/><path class="cls-2" d="M1,1418c35.73,5,71.34,12,107.24,14.14,22.12,1.33,44.72-4.55,67.07-7.55,79.74-10.69,159.37-22.37,239.24-32,43.69-5.27,87.79-7.1,131.69-10.6,57.39-4.57,114.76-9.38,172.15-13.86,33.24-2.59,66.49-5.32,99.78-7,50.64-2.51,101.33-4.32,152-6.12q133.11-4.72,266.21-9.08c20.94-.7,41.88-1.6,62.83-1.9,57.93-.83,115.86-1.39,173.79-2.06v62c-29.16,5.67-58.47,10.67-87.44,17.19-39.78,9-79.3,19-118.92,28.67-45.25,11-90.67,21.31-135.68,33.17-51.65,13.61-103.51,26.85-154.25,43.42-60.57,19.78-120.28,42.33-179.94,64.81-41.09,15.48-82,31.73-122,49.74-38.89,17.5-77,36.77-114.64,56.93-35.53,19.07-70.16,39.88-104.68,60.76-19.67,11.9-38.33,25.48-57.44,38.31H219c1.55-1.49,2.89-3.35,4.69-4.41,35.39-20.66,70.75-41.39,106.32-61.72,13.78-7.88,28.09-14.83,45.65-24-11.9-5.37-20-9.16-28.27-12.72-30-13-59.8-26.52-90.18-38.59-16.11-6.39-30.43-21.18-51-10.93-15.39,7.69-32,13-48,19.34-29.28,11.54-58.81,22.49-87.79,34.76-23.49,10-46.31,21.47-69.43,32.3v-73c50.3-20.79,100.33-42.26,151-62.17s101.59-38.86,152.85-57c36.34-12.87,73.2-24.4,110.21-35.26,40.28-11.82,80.88-22.63,121.56-33q52.83-13.5,106.17-25c42.75-9.26,85.54-18.58,128.65-25.92,39.89-6.79,80.22-11,120.37-16.32,5-.66,10.08-.78,15.12-1.15-3.51-3.91-7.22-5.26-10.81-5-73.05,5.49-146.22,9.89-219.11,17.11-96.85,9.6-193.55,20.85-290.18,32.6-39,4.74-77.66,12.32-116.37,19.23-62.19,11.09-124.34,22.34-186.38,34.24C56.2,1505.63,28.68,1512.71,1,1519v-64l4.72-1.73L1,1451Zm1265.32-22C1255,1384.89,570.79,1521.53,564,1536.83a37.68,37.68,0,0,0,5.13,1.13c29.84,2.34,59.68,4.78,89.54,6.88,22.33,1.56,45.62,7.22,66.84,2.93,32.69-6.61,63.86-20.54,95.88-30.71,54.06-17.17,108-34.66,162.52-50.46,47.68-13.83,95.84-26.08,144.06-37.95,37.21-9.15,74.86-16.51,112.26-24.93C1248.75,1401.79,1257,1398.76,1266.32,1396ZM627.68,1587.89c-3.31-1.32-5-2.4-6.84-2.68q-50.57-7.56-101.15-14.91c-18.69-2.68-38.07-9.24-56-6.54-29.3,4.42-57.77,14.67-86.42,23C360.48,1591.7,344,1597.71,325,1604c4.14,2.78,6.3,5.06,8.9,5.86,39.35,12,78.57,24.43,118.26,35.17,13.24,3.59,29.26,7.1,41.31,2.9,29.75-10.39,58-25.24,86.76-38.33C595.55,1602.66,610.81,1595.62,627.68,1587.89Zm681-198.38-.63-5.24-35.32,6c.21,1.44.42,2.88.64,4.32Z"/><path class="cls-2" d="M1,453c26.8,9.79,53.66,19.44,80.4,29.42q59.92,22.36,119.7,45.15c13.68,5.19,28.68,8.68,40.23,16.94,5.75,4.11,6.73,17.18,7,26.29,1.84,56.88,2.87,113.79,4.19,170.69.45,19.11.71,38.23,1.72,57.32.14,2.82,3.75,7.65,6,7.83,36.37,2.88,36.39,2.74,36.66,39.9.35,47,.44,93.93,1.48,140.87.08,3.61,6.47,9.65,10.45,10.11,11.67,1.37,23.6.49,35.44.49,1.5,0,4.27-.16,4.31.11,2.21,13.51,4.71,27,5.67,40.63.16,2.24-6.41,6.82-10.13,7.13-13.4,1.11-27,.4-40.36,1.57-2.2.2-5.57,6.4-5.56,9.82q.48,103.43,1.88,206.86c.14,10.12-3.15,13.34-13.24,13.1-20.3-.49-40.64.67-60.93.07-2.76-.08-7.63-6.38-7.66-9.82-.73-110.93-1.28-221.87-.94-332.81,0-13.4-4.51-18.79-16.54-22-51.31-13.8-102.49-28.08-153.66-42.43C31.68,865.86,16.39,860.76,1,856V802c2.62.46,5.35.59,7.85,1.43q97.74,32.85,195.39,66c9.83,3.36,12.9.76,12.88-9.33-.19-88.48-.83-177,.47-265.44.27-18.82-8-24.88-22.93-30.2-30.15-10.75-59.83-22.8-89.75-34.18Q53,510.51,1,491Z"/><path class="cls-2" d="M1473,1445c-16.38,9.71-33.3,18.63-49,29.31-34.36,23.31-68.7,46.72-101.92,71.59-29.18,21.84-57.06,45.44-85.06,68.82-21.73,18.14-42.83,37-63.84,56-1.07,1,.6,7.94,2.3,8.57,33,12.26,66.9,22.44,99.25,36.2,38.44,16.36,75.87,35.2,113.21,54,15.4,7.76,29.43,18.24,44.09,27.48H1311c-9.38-6.77-18.18-14.61-28.27-20.09-22.26-12.11-44.66-24.2-67.94-34.12-26.6-11.34-54.18-20.4-81.46-30.1-1.81-.64-5.26,1-6.93,2.65-14.12,13.77-28.17,27.62-41.91,41.77-12.71,13.09-25,26.58-37.49,39.89H929q36.72-33.37,73.42-66.76c20-18.27,39.1-37.63,60-54.78q63.39-52,128.42-102c30.9-23.75,62.11-47.32,94.83-68.42s67.14-40.41,102-58.21c27.54-14.08,56.84-24.71,85.36-36.87Z"/><path class="cls-2" d="M1,1020c32.94,13.27,65.79,26.78,99,39.35,2.76,1.05,11.36-4.12,11.45-6.63.86-22.12.14-44.3.71-66.44.07-2.35,6.15-7.07,8.25-6.47,27.46,7.82,55.34,14.91,81.51,26,5.62,2.38,6.6,19.79,6.78,30.33.94,57.08.82,114.19,1.37,171.28.24,24.58,1.53,49.16,1.41,73.74,0,3-6.23,8.75-9,8.41-23.41-2.91-46.78-6.49-69.92-11.1-3.5-.69-7.74-7.51-8.24-11.89-5.8-51.36-10.7-102.84-16.75-154.17-.52-4.37-7-10-11.79-11.58C64.37,1090.66,32.63,1081.49,1,1072Z"/><path class="cls-2" d="M1,1351H710.82c-9.4,1.61-18.93,4.2-28.58,4.73-60.12,3.35-120.31,5.64-180.41,9.42-85.15,5.35-170.24,11.82-255.37,17.55-59.24,4-118.52,7.48-177.78,11.33-22.57,1.46-45.12,3.3-67.68,5Z"/><path class="cls-2" d="M515,1c1.13,2.76,1.89,5.75,3.45,8.23,7.08,11.3,9.17,21.38-5,29.16-2.16,1.18-4,4.86-4.15,7.48-1.36,26.65-1.33,52.7,12.92,77.34,2.92,5.06-6,16.45-8.23,25.24-1,3.84-.29,10,2.23,12.48,8.51,8.36,18.63,15.1,27.08,23.52,1.92,1.92,1.16,10.39-1.1,12-13.79,9.83-28.38,18.56-45,29.09,7,3,12.31,4.8,17.2,7.42,2.36,1.26,3.93,4,5.86,6-2.21,1.4-4.27,3.2-6.66,4.14-21,8.25-42,16.72-63.27,24.14-3.87,1.35-10.8-.23-13.77-3.11-28.25-27.29-6.21-55,1.4-81.93,1-3.35,15.36-2.84,23.51-4.27,3.27-.57,6.48-1.53,9.72-2.32-1.17-3.24-1.59-7.06-3.63-9.61-11.5-14.44-17.22-30.26-11.08-48.37,1-3,6.91-4.18,10.11-6.73,3.4-2.71,8.5-5.71,9-9.17,4.09-26.56-2.54-50.69-17.3-73.17-1.52-2.32,3-11.2,6.84-13.89C473.34,9,483,5.44,492,1Z"/><path class="cls-2" d="M1,1112c26.55,7.3,53.17,14.36,79.53,22.28,2.62.79,5.18,6.77,5.23,10.39.69,45,.59,89.93,1.47,134.88.21,10.7-4.51,11.33-12.7,10.1C50,1286,25.51,1282.53,1,1279Z"/><path class="cls-2" d="M1,537c27.61,11.31,55.26,22.52,82.82,34,36.32,15.08,72.8,29.84,108.58,46.12,4.76,2.18,8,12.44,8.21,19.07.87,30,.21,30.41-27.05,19.37-43.16-17.49-86-35.67-129.08-53.41C30.08,596.18,15.5,590.69,1,585Z"/><path class="cls-2" d="M1,679q66.82,25.1,133.67,50.16c20.65,7.71,42.94,12.7,61.29,24.09,6.82,4.23,4.49,23.2,6.33,35.45-5.77-.69-11.78-.57-17.27-2.2-54.58-16.19-109-32.72-163.61-49-6.66-2-13.6-3-20.41-4.5Z"/><path class="cls-2" d="M1,365q39.41,19.72,78.8,39.44c29.94,15,61.09,28.24,88.89,46.52,7.13,4.69,3.64,25.53,5,39-5.71-1.68-11.7-2.73-17.09-5.14-36.44-16.3-72.77-32.86-109.12-49.39C32,428.31,16.5,421.13,1,414Z"/><path class="cls-2" d="M1,1540c19.74-5.2,39.24-13,59.29-14.82,17.41-1.62,35.45,3.35,53.18,5.68,1.16.16,2.63,2.68,2.78,4.21.1,1.08-1.56,2.87-2.84,3.45-23.25,10.53-46.52,21-69.94,31.2-2.51,1.08-6.72,1-8.9-.4C23.16,1561.88,12.15,1553.84,1,1546Z"/><path class="cls-2" d="M1473,1264c-3.33-3.37-9.55-6.73-9.57-10.12q-.81-127.31,0-254.6c0-3.44,6.24-6.85,9.57-10.28Z"/><path class="cls-2" d="M526,736.12q0,226,.11,452c0,9.31-2.9,12.29-11.89,8.85-11-4.21-22.76-6.92-33-12.5-5.12-2.79-10.73-10.49-10.74-16-.53-254.82-.4-509.64-.93-764.46,0-4.78-6.14-12-11-13.81-10-3.76-20.95-5.39-31.65-6.25-3.07-.24-9.48,5.18-9.49,8q-.66,404.49-.65,809c0,13.83-.91,23.58,18.19,17.49,12-3.84,25.22-4.73,37.95-5.21,3.57-.13,10.35,5.67,10.58,9.08,1.12,16.76.05,33.66,1,50.45.18,3.23,5.73,8.89,8.77,8.87q140.62-.79,281.23-2.71c43.61-.58,87.21-2.29,130.82-2.7,17-.17,8.29,13.89,9.17,21.55.38,3.35-5.85,10.78-9,10.75-67.92-.68-135.84-2.29-203.75-3.42-53.56-.9-107.12-1.33-160.67-2.11-61.27-.91-122.54-1.87-183.8-3.34-2.67-.06-7.36-5.32-7.47-8.29-.65-17.95-.95-36,.41-53.87.26-3.46,8.41-9,12.87-9,12.11.13,16.38-3,16.36-16.25q-.65-431.21.2-862.42c.07-24.25,7.2-48.57,12.36-72.58.57-2.67,9.73-4.69,14.89-4.66,2.4,0,6.36,5.42,6.89,8.8,2.62,16.91,4,34,6.74,50.92.48,2.95,5.34,5.74,8.75,7.45,2.27,1.14,5.56.25,8.4.22,42.21-.52,28.18,5.36,34-34.15,1.72-11.73,15.37-23.17,26.08-31.49,5.28-4.1,16.36-1.32,24.67-.4,1.58.18,3.54,6.3,3.55,9.68Q526.09,509.89,526,736.12Z"/><path class="cls-2" d="M1293.56,716.42c-.51,9.83-1.27,19.65-1.49,29.49q-1.65,75.57-3.06,151.14-2.13,119.31-4.07,238.64c-.89,50.24-1.8,100.49-3.28,150.71-.1,3.27-5.85,9.43-7.91,9-7.13-1.44-13.87-5-20.52-8.29-.82-.4-.21-3.78-.21-5.78q0-391.21.22-782.44c0-15.24-.27-32.2,6.13-45.12,4.64-9.35,19.5-15,30.94-19.24s24.39-5.4,36.79-6.65c2.33-.24,7.5,5.37,7.55,8.35,1.11,66.7,1.69,133.42,2.35,200.13q1,102.64,2,205.28,1.35,120.06,3,240.11c.77,57.21,1.75,114.41,2.6,171.62.18,12.63.85,25.31-.15,37.85-.23,2.88-6.27,7.27-9.93,7.59-28.09,2.44-25.1-18-25.5-35.77q-1.53-67.15-3-134.31c-1.73-82.51-3.27-165-5.09-247.52-1.17-53.09-2.69-106.17-4.09-159.25a39.48,39.48,0,0,0-1-5.63Z"/><path class="cls-2" d="M838,1186c0-68.11.38-136.22-.1-204.32-.57-79-1.91-158.07-2.88-237.1-.69-55.13-1.61-110.25-1.5-165.38,0-4.87,5.81-12.09,10.67-14.19,17.5-7.55,35.81-13.25,53.7-19.92,10-3.73,14.86-2.47,15.32,10,4.3,116.06,9.13,232.1,13.69,348.15,1,24.61,3.33,49.43,1,73.77-.76,8.12-14.29,14.82-21.41,22.68-2.95,3.25-6.17,7.82-6.26,11.86-1.31,59.57-2.1,119.15-3,178.73-.19,12.12.64,24.42-1.27,36.28-.65,4-8.17,9.51-12.81,9.79-11,.66-22.32-.64-33.19-2.77-3.78-.75-9.13-6-9.47-9.62-1.17-12.56-.45-25.29-.45-38Z"/><path class="cls-2" d="M597.36,839c.68-6.26,1.57-10.63,1.57-15,.07-138.66-.19-277.32.38-416,.07-16.92-11.74-19.14-22.32-24.14-11.4-5.38-23.16-10.06-34.26-16-2.88-1.54-5.41-6.58-5.47-10.06-.46-26.15-.32-52.32-.13-78.49,0-2.11,1.74-4.21,2.67-6.32,1.84,1.38,4.8,2.42,5.33,4.18,3,9.86,8.2,20.17,7.28,29.81-1.87,19.45,7.57,29.18,22.44,38.69,14.31,9.15,15.37,3.42,14.19-9-.2-2.15,0-4.33,0-6.5,0-18.38,14.13-27.4,31.3-19.21,2.69,1.29,4.46,7.2,4.49,11,.59,73.81.85,147.63,1.2,221.44q.48,99.9,1,199.82.59,148.9,1,297.81c.23,57.63.84,115.26.48,172.88,0,3.42-7.21,9.87-10.81,9.69-21.75-1.07-43.46-3.33-65.06-6.12-3.19-.42-8.23-5.76-8.24-8.84q-.63-192,.18-384c0-1.6,9.18-5.6,12.49-4.33C570.28,825.41,582.87,832.12,597.36,839Z"/><path class="cls-2" d="M1036,784.44c0-50.65-.67-101.32.44-151.94.31-14-5.82-17.82-17-20.87-4.85-1.32-8.6-6.42-13.1-9.43-2.07-1.38-4.88-2.86-7.14-2.58-16.65,2.09-33.2,5.21-49.9,6.53-3.54.29-10.17-4.88-10.94-8.49-5.42-25.51-9.54-51.3-14.6-76.9-.38-1.91-5.47-4.78-7.43-4.18-13.63,4.22-26.91,9.57-40.57,13.64-2.2.65-8.07-3.06-8.31-5.19-1.19-10.72.22-21.82-1.69-32.34-3.81-21,13.63-26.69,25-36.72.49-.43,6.44,3,6.94,5.29a221.5,221.5,0,0,1,5.08,32c.74,10.56,5.26,13.6,15.54,13a393.36,393.36,0,0,1,46.45.18c3.25.19,8.67,5.5,8.84,8.68.88,16.95,0,34,.83,50.94.14,2.88,5.45,7.56,8.74,7.9,19.74,2.07,27.74-7.53,23.79-26.78-4.06-19.73,10.06-23.73,23.59-29.84,5.34-2.4,11.38-9.58,11.91-15.08,1.57-16.34-1.88-33.49,1.68-49.18,1.59-7,15.27-11.22,23.46-16.71,1.81,4.73,5.07,9.42,5.21,14.2,3,102.62,5.46,205.25,8.32,307.88,1.72,61.87,4.1,123.72,5.4,185.59.07,3.59-6.53,9.74-10.76,10.48a80.85,80.85,0,0,1-28.31,0c-4.35-.81-10.89-7.16-10.94-11.08C1035.77,890.42,1036,837.43,1036,784.44Z"/><path class="cls-2" d="M791,1014.34c0,66.82.18,133.65-.47,200.47,0,3.76-6.77,10.58-10.55,10.69-39,1.21-39,.91-39-38,0-52.66-1.26-105.37.66-158,.71-19.67-7.66-28-23.23-34.49-17.65-7.36-32.76,4.21-31.9,23.38,1.49,33.75,1.59,67.56,2.42,101.35.93,37.57,2.21,75.14,2.56,112.72,0,2.32-7.43,7.32-10.26,6.59-9.72-2.49-19.14-6.52-28.19-10.95-2.81-1.38-5.91-6-5.79-8.94,2.91-74,7.72-147.87,8.8-221.85.46-31.68,26.8-28.14,42.54-38.87,16.63-11.33,26.08,7.72,39.16,11.86l9.55,3c.89-3.18,2.55-6.35,2.56-9.53.16-50.33-.11-100.66.56-151,0-3.65,6.52-10.3,10-10.34,35.3-.36,30.33-5.33,30.44,29.87C791.14,893,791,953.68,791,1014.34Z"/><path class="cls-2" d="M1412.81,1264c-30.9,0-31.74,0-30.65-30.69,3.92-109.92,8.52-219.81,12.75-329.72,2.45-63.86,4.62-127.73,7-191.6,2.61-69,5.54-138,7.71-207,.16-5.06-3.57-11.43-7.43-15.2-11.76-11.49-27.27-20.19-35.94-33.49-7-10.72-6.19-26.53-8.85-40.09,2.24-.16,5.52-1.37,6.58-.33,25.73,25.37,51.5,50.72,76.45,76.85,3.35,3.5,3.46,11.18,3.22,16.85-2,47.52-4.41,95-6.67,142.54q-7.47,156.78-14.88,313.55c-2.45,52.34-5.25,104.69-6.24,157.07-.1,5.27,11.78,10.31,17.2,16.28,4.64,5.1,11.16,11.26,11.36,17.14,1.09,32.25.85,64.57,0,96.84-.1,3.76-6.37,9.32-10.75,10.54C1427.18,1265.34,1419.81,1264,1412.81,1264Z"/><path class="cls-2" d="M1146.7,1283c-2.92-5.64-5.16-8.31-5.72-11.29-5.59-29.56-7.58-60.36-17.63-88.27-5.5-15.26-24.51-25.66-37.43-38.24-3,4.13-8.46,8.22-8.52,12.39-.64,42.66-.15,85.33-.84,128-.06,3.53-6.28,9.75-10,10-30.53,2.11-61.21,2.21-91.7,4.76-18.6,1.55-24.35-3.66-22.95-23,2.82-39,4.53-78.16,3.33-117.17-.61-19.8,9.32-25.39,24-30.72,24.35-8.81,49.24-16.72,72.42-28,15.65-7.63,25.5-1.7,37,6.41,20.89,14.71,41.79,29.47,63.44,43,14.69,9.2,7.33,21.68,6.41,32.7-2.53,30.64-6.34,61.18-9.69,91.75C1148.76,1276.67,1148.16,1278,1146.7,1283Z"/><path class="cls-2" d="M1132,531c-5.59,17,5,27.21,22.41,34.19,3.12,1.25,6.36,6.89,6.36,10.51q0,114.13-.8,228.28-.64,92.57-2.06,185.13c0,3.07-2.08,6.12-3.19,9.18a84.11,84.11,0,0,1-7.11-5.25c-4.93-4.47-9.39-9.5-14.54-13.68-12.7-10.3-18-23.13-18.22-39.69-1.14-77-2.93-154.08-4.86-231.12-1.7-67.69-4-135.37-5.63-203.06-.12-4.84,3.06-9.75,4.71-14.63,7.64,5.58,16.82,10,22.35,17.19C1134.58,512.26,1132,520.94,1132,531Z"/><path class="cls-2" d="M1222.78,512.64c.41,2.72,1.17,5.45,1.18,8.17q.58,223.13,1.06,446.25.4,157.64,1,315.27c0,11,5.39,24.07-14.73,23-10.48-.55-13.44-4.22-13.44-14,.16-235.46-.46-470.93,1-706.38.15-24.4,12.49-48.73,19.18-73.09Z"/><path class="cls-2" d="M1346.92,351c6.17,12.19.27,16.29-11,15-9.61-1.1-14.67,2.85-12.82,12.77,4.05,21.62-15.07,22.52-26.62,29.93a74.46,74.46,0,0,1-18.9,8.58c-2.18.65-7.88-2.64-8.08-4.54-1.5-14.26,2.83-25.9,14.36-35.92,4.52-3.94,6.52-14.19,5.22-20.68-2.44-12.2-4.72-21.27,12.63-21.43,14.55-.12,21.57-5.92,20.85-23.09-1.65-39.76-.67-79.63-.3-119.45,0-4,3.19-8,4.9-12.08,5.95,3.95,15.88,7,17,12,3,12.91,2.55,26.72,2.64,40.18C1347.08,271.85,1346.92,311.43,1346.92,351Z"/><path class="cls-2" d="M770,1712.81c-14.68-7.54-29.55-15.1-44.19-23.08-.35-.19,1.07-6.39,3-7.57q48.1-29.33,96.69-57.82c1.74-1,5.46.27,7.74,1.47,10,5.28,20.05,10.48,29.34,16.8,1.87,1.28,2.07,9.68.37,10.82-28.23,19-56.87,37.37-85.46,55.82C775.49,1710.56,773.12,1711.36,770,1712.81Z"/><path class="cls-2" d="M1145.79,1567.36c-12.75,7-22,12.11-31.37,17.05-7.32,3.85-15.73,6.26-22,11.32-20.93,16.83-40.72,1.46-60.91-1.3-.34,0-1.06-6.89.2-7.69,15.43-9.69,30.22-22.36,47.17-27.07,14.92-4.14,32.38.48,48.67,1.85C1132.36,1561.93,1137,1564.47,1145.79,1567.36Z"/></svg>