<?xml version="1.0" encoding="utf-8"?>
<!-- Generator: Adobe Illustrator 25.2.1, SVG Export Plug-In . SVG Version: 6.00 Build 0)  -->
<svg version="1.1" id="Layer_1" xmlns="http://www.w3.org/2000/svg" xmlns:xlink="http://www.w3.org/1999/xlink" x="0px" y="0px"
	 viewBox="0 0 1472 1797" style="enable-background:new 0 0 1472 1797;" xml:space="preserve">
<style type="text/css">
	.st0{fill:#FFFFFF;stroke:#000000;stroke-miterlimit:10;}
	.st1{fill:#FCFCFC;}
	.st2{fill:#DCDCDC;}
	.st3{fill:#FEFEFE;}
	.st4{fill:#DEDEDE;}
</style>
<rect x="0" class="st0" width="1472" height="1797"/>
<path class="st1" d="M0,1351v-74c14.3,1.8,28.7,3.5,43,5.6c11.7,1.7,23.3,3.7,34.9,5.8c4.7,0.8,7-1.1,7.7-5.4
	c0.3-1.8,0.4-3.6,0.3-5.5c-0.3-12-0.8-23.9-0.9-35.9c-0.4-32.8-0.7-65.6-1-98.3c0-0.3,0-0.7,0-1c0.1-4.8-2.2-7.8-6.8-9.2
	c-10-3.1-19.9-6.5-30-9.3c-15.7-4.4-31.5-8.4-47.2-12.6v-41c4,1.1,8,2.2,12,3.4c15.2,4.8,30.4,9.8,45.7,14.5
	c13.5,4.2,27.1,8.1,40.7,12.1c6.3,1.9,9.6,6,10.3,12.6c1.7,16.9,3.6,33.7,5.3,50.6c1.8,17.5,3.7,35.1,5.5,52.6
	c1.6,15.9,3.3,31.8,4.4,47.7c0.7,10.8,2.5,12.9,13.4,14.6c21.6,3.2,43.1,6.7,64.6,10.2c5.3,0.8,8-1,8-6.5c0-5.8-0.8-11.6-0.9-17.4
	c-0.4-27.8-0.7-55.6-1-83.4c-0.4-42-0.6-84-1.1-125.9c-0.1-14-0.6-28-1-41.9c-0.1-4.9-2.4-7.9-7.3-9.4c-14.8-4.5-29.4-9.6-44.2-14.1
	c-11.4-3.5-23-6.7-34.5-9.9c-6-1.6-8.4,0.2-8.8,6.5c-0.1,1.7-0.1,3.3-0.1,5v61c0,10.2-2.6,11.9-11.9,7.8c-0.5-0.2-0.9-0.5-1.3-0.7
	c-11.4-4.7-22.7-9.6-34.1-14.2c-11.1-4.4-22.4-8.5-33.5-12.9C20,1028.1,10,1024,0,1020v-6c4.7,1.5,9.5,2.9,14.2,4.6
	c10.4,4,20.6,8.2,31,12.3c7.1,2.8,14.4,5.1,21.4,8c10,4.1,19.7,8.7,29.6,12.8c2.8,1.2,5.8,1.8,9.3,2.9c0.2-2.8,0.4-4.9,0.4-7
	c0-20.8,0-41.7,0-62.5c-0.1-2.3,0.1-4.7,0.6-6.9c1.3-5.4,4.6-7.3,10-5.8c9,2.4,18,4.5,26.9,7.1c9.5,2.8,18.9,6.1,28.4,9.2
	c6.3,2.1,12.6,4.1,18.9,6.2c4.4,1.4,8.9,2.4,13.1,4.2c5.1,2.1,6.2,1.7,6.2-4c0.1-23,0-46,0.1-69c0-3.8-1.4-5.4-5.2-6.5
	c-10.4-2.8-20.6-6.5-30.9-9.5c-7.6-2.2-15.4-4.1-23.1-6.1c-4.3-1.1-8.7-1.9-13-3.2c-8.1-2.3-16.1-4.8-24.2-7.2
	c-3.6-1.1-7.3-2.1-11-3.2c-7.6-2.4-15.1-5.1-22.8-7.1c-9.4-2.4-19-4.2-28.5-6.3c-1.1-0.2-2.2-0.7-3.3-1.1c-4.4-1.4-8.8-2.8-13.3-4.2
	c-7.1-2.2-14.3-4.3-21.5-6.4c-4.5-1.3-8.9-2.3-13.4-3.5v-7c1.5,0.2,2.9,0.5,4.4,0.8c16.3,4.8,32.5,9.8,48.8,14.4
	c14.1,4,28.4,7.2,42.5,11.3c19.4,5.5,38.5,11.7,57.9,17.3c17.4,5,35,9.4,52.4,14.5c10.5,3.1,11,4.2,11,15.2c0,110.8,0,221.6,0,332.4
	c0,2.2-0.1,4.3,0.1,6.5c0.6,6.3,3.8,8.8,10,8.1c2.5-0.3,5-0.5,7.5-0.5c18,0,36,0,54,0c8.5,0,9.5-0.9,9.4-9.5
	c-0.3-33.1-0.8-66.3-0.9-99.4c-0.2-37.8-0.1-75.7,0-113.5c0-6.5,1.1-7.6,7.6-7.6c12.8,0,25.7,0,38.5,0c7.9,0,9.8-1.8,9.9-9.7
	c0.1-9.7,0.1-19.3,0-29c0-6.5-1.8-8.3-8.4-8.3c-12.8,0-25.7,0-38.5,0c-7.4,0-10-2.5-10.1-9.8c-0.4-25.8-0.7-51.6-1-77.4
	c-0.4-32.1-0.7-64.3-1-96.4c-0.1-6.2-1.2-7.3-7.4-7.3c-8.8-0.1-17.7,0.1-26.5-0.1c-5.8-0.1-7.8-2.2-8.1-7.8
	c-0.3-6.3-0.8-12.6-1-18.9c-0.7-25-1.4-49.9-2-74.8c-0.5-21.5-0.7-43-1.1-64.4c-0.3-22.1-0.6-44.3-1.1-66.4
	c-0.1-7.3-0.6-14.6-1-21.9c-0.2-4-1.4-7.6-5.6-9.2c-5.7-2.3-11.4-4.6-17.2-6.8c-19.1-7.2-38.4-14.1-57.5-21.4
	c-22.7-8.6-45.3-17.3-68-26c-24.2-9.3-48.4-18.6-72.7-27.7c-8.2-3.1-16.6-5.7-24.9-8.6v-40c2.4,0.5,4.8,1.2,7.1,2.1
	c5.6,2.5,11,5.4,16.6,8c17.6,8,35.2,15.8,52.8,23.7c11.4,5.1,22.7,10.4,34.1,15.4c3.5,1.5,7.2,2.5,10.7,4.1
	c14.9,7,29.8,14.1,44.7,21c5.1,2.4,7.7,0.8,7.9-4.9c0.2-8,0.1-16,0-24c0-4.5-1.9-7.6-6.4-9.7c-11.6-5.4-23-11.1-34.4-16.9
	C110,420.2,87,408.2,63.9,396.5c-16.7-8.5-33.6-16.8-50.4-25.2c-4.4-2.2-9-4.2-13.5-6.3V0h494c-1.4,0.8-2.7,1.8-4.2,2.5
	c-10.2,4.9-20.4,9.6-30.6,14.5c-3.6,1.8-5,4.7-2.9,8.6c4.1,7.6,7.9,15.4,12.4,22.8s8,14.8,7.4,23.8c-0.5,8.6-0.1,17.3-0.1,26
	c0,10.7-1.4,12.2-12.2,12.8c-4.6,0.2-7.6,2.1-8.1,7s-0.8,9.7-1.8,14.3c-1.6,7,0.5,12.6,4.6,18.1c4.2,5.8,8.1,11.8,11.7,18
	c1.1,1.9,1.7,5,0.9,6.9c-0.6,1.4-3.8,2.4-5.8,2.5c-6.8,0.3-13.7,0.3-20.5,0.1c-5.1-0.1-8,2.2-9.5,7c-4.8,15.8-9.7,31.5-14.4,47.3
	c-0.6,2.2-0.9,5.4,0.2,7.2c5.5,8.9,11.4,17.6,17.2,26.3c2.5,3.6,5.9,3.4,9.2,1.4c6.1-3.6,12.2-7.4,18.4-11c2.4-1.4,4.8-3.2,7.5-4
	c11.5-3.4,23-6.5,34.6-9.6c2.2-0.6,4.6-0.9,6.7-1.7c3.5-1.4,4-4.2,1-6.4c-2.4-1.7-5.5-2.3-8-3.8c-3.4-2-6.6-4.4-9.9-6.7
	c3.2-2.5,6.2-5.2,9.5-7.4c11.7-7.6,23.6-15,35.2-22.7c3.5-2.3,3.5-5.9,0.7-9.1c-1.6-1.7-3.3-3.2-5.1-4.6
	c-8.3-6.9-16.8-13.7-25.1-20.6c-4.5-3.8-4.9-6.2-1.9-11.2s6.2-10.3,9.6-15.2c2.4-3.4,2.7-6.6,1-10.3c-3.9-8.3-8-16.5-11.6-24.9
	c-1.7-4-2.7-8.2-2.9-12.5c-0.4-9.3,0.5-18.7-0.3-28c-1-11.5,1.9-20.3,12-26.9c5.4-3.5,5.2-6.5,2.4-12.4S515.7,6,513,0h959v1341
	c-26.1,0.6-52.2,1-78.3,2.4c-54.7,3-109.6-1.4-164.3,2.4c-26.4,1.8-52.8-0.3-79.4,1.7c-31.7,2.4-63.5,1.8-95.3,2.4
	c-10.3,0.2-20.7-0.4-31,0.3c-28,2-56,4.9-84,6.5c-23.9,1.4-47.9,1.6-71.8,2.2c-12.5,0.3-25-0.3-37.5,0.2
	c-28.7,1.3-57.4,3.1-86.2,4.8c-6.5,0.4-12.9,1.4-19.3,2.2c-6.2,0.8-12.5,1.8-18.7,2.2c-6.6,0.4-13.3-0.1-19.9,0.2
	c-10.5,0.6-20.9,1.5-31.3,2.3c-6,0.5-11.9,1-17.9,1.5c-18.1,1.5-36.1,3.4-54.2,4.4c-9.7,0.5-19.2,0.3-28.6,3.6
	c-3.5,1.3-7.5,1.3-11.3,1.5c-15.1,0.8-30.2,1.4-45.4,2.2c-1,0-2,0.3-3,0.4c-26.5,3.7-53,7.8-79.9,7.5c-5,0-10,0.8-14.9,1.5
	c-20.3,2.7-40.5,5.7-60.8,8.4c-23.6,3.1-47.2,6.1-70.8,9c-22.1,2.8-44.3,5.2-66.4,8.1c-5.6,0.7-10.9,3-16.5,3.8
	c-22.5,3.4-45.1,6.7-67.7,9.8c-3.3,0.5-6.7,0.5-10,0.1c-20.9-3-41.8-6.3-62.7-9.2c-15-2.1-30-3.7-45.1-5.6v-7
	c12.2,1.5,24.4,2.8,36.5,4.4c10.8,1.4,21.6,3.2,32.4,4.8c5.4,0.8,10.8,1.5,16.3,2.3c7.7,1.1,15.4,3.3,23.1,3.1
	c10.2-0.2,20.4-2.1,30.5-3.5c15.1-2,30.2-4,45.3-6.3c7.5-1.2,14.8-4.1,22.3-4.6c15.9-1.1,31.8-1.6,47.4-5.3
	c6.4-1.5,13.2-0.9,19.8-1.7c10.9-1.3,21.7-2.9,32.5-4.5c7-1,14-2.4,21.1-3.5c3.9-0.6,7.9-0.9,11.9-1.3c7.3-0.8,14.5-1.4,21.8-2.3
	c6.4-0.8,12.8-1.8,19.2-2.8c9-1.3,18-2.7,27.1-4c1.8-0.4,3.6-0.7,5.4-0.9c13.8-0.4,27.6-0.6,41.4-1.1c4.4-0.2,8.9-1.2,13.3-1.9
	c3.8-0.6,7.5-1.6,11.3-2c7.8-0.7,15.6-1.3,23.4-1.7c10.4-0.4,20.8-1.4,31.1-3c15.5-2.6,31.2-3.2,46.9-4.6c7.8-0.7,15.6-1.4,23.4-1.7
	c13.1-0.4,26.3-0.1,39-4.3c1.6-0.5,3.3-0.7,4.9-0.7c20.8-0.4,41.6-0.7,62.4-1c1.8,0.1,3.7,0,5.5-0.3c1.6-0.4,3.1-1.5,4.6-2.3
	l-0.5-1.4c-1.8,0-3.6,0-5.4,0c-20.5,0.3-40.9,0.7-61.4,1c-1,0-2,0.1-3,0.2c-22.5,4.4-45.3,4.7-68.1,4.8c-7.1,0.1-14.2,1.1-21.4,1.6
	c-14.2,1.1-28.5,2.6-42.8,3.2c-19,0.8-38.1-0.5-56.9,1.6c-26.4,2.9-52.7,4.1-79.2,4.6c-1.3,0-2.7,0.1-4,0.3
	c-19.5,4.4-39.3,4.1-59.1,4.7c-3.3,0.1-6.8-0.3-10,0.4c-20.7,4.3-41.6,4.5-62.6,4.7c-3.2,0-6.4-0.3-9.5,0.4
	c-17.8,4.1-35.9,4.5-54.1,4.7c-5.3,0-10.6,0.4-15.9,0.8c-17.6,1.3-35.1,2.8-52.7,4.1c-6.1,0.4-12.3-0.1-18.5,0.4
	c-12.8,1-25.4,2.7-38.2,3.5c-16.9,1-33.9,1.4-50.8,2.2c-2,0.2-4,0.5-5.9,1v-6c10.1-0.7,20.2-1.5,30.4-2.1c28.2-1.7,56.4-3.3,84.7-5
	c11-0.7,21.9-1.4,32.9-2.3c15.8-1.2,31.5-2.5,47.2-3.7c12.4-0.9,24.9-1.5,37.3-2.4c14.9-1.1,29.8-2.5,44.8-3.6
	c12.3-0.9,24.6-1.3,36.9-2.2c20.1-1.5,40.1-3.3,60.2-4.7c17.1-1.2,34.2-2.1,51.3-3.2c19.4-1.2,38.8-2.7,58.2-3.8
	c15.6-0.9,31.2-1.2,46.9-2c21.9-1.2,43.8-2.7,65.7-3.9c21.8-1.2,43.5-1.8,65.3-3.2c9.7-0.7,19.2-2.7,28.8-4.2v-1.5
	c-4.2-0.4-8.4-1.1-12.6-1.1c-139.3,0.3-278.6,0.6-417.9,1c-27.8,0.1-55.6,0.7-83.4,0.9c-42,0.4-84,0.7-125.9,1
	C33.7,1351.1,16.8,1351,0,1351z M524,557c0-90.3,0-180.7,0.1-271c0-14.5,0.7-13.5-14.9-15c-6.2-0.6-12.2,0.1-17,5.2
	c-5.5,6-11.3,11.7-17.3,17.3c-3.4,3-5.2,7.5-4.9,12c0.1,8.6,0.2,17.4-0.5,26c-0.5,6.9-1.8,7.5-8.6,7.5c-10.3,0-20.7,0-31,0
	c-9,0-10.6-0.9-11.8-9.8c-2.3-16.3-4-32.7-6-49c-0.8-7-2.8-8.7-11.5-9.1c-6.5-0.3-9.4,1.7-10.6,7.9c-3,15.9-6.3,31.7-8.8,47.6
	c-1.8,10.3-2.8,20.8-3,31.2c-0.2,229.9-0.2,459.9-0.1,689.8c0,53.7,0,107.3,0,161c0,3.2,0.3,6.3,0.7,9.4c0.7,5.9-1.2,8.5-7.1,8.9
	c-4.5,0.3-9,0.7-13.4,1c-6.2,0.5-9,3.2-9.1,9.6c-0.2,17.3-0.2,34.7,0,52c0.1,6.8,2.9,9.3,9.6,9.4c21.1,0.4,42.3,0.7,63.4,1
	c25.6,0.4,51.3,0.6,76.9,1c19.5,0.3,39,0.6,58.4,1c17.1,0.3,34.3,0.7,51.4,1c19.3,0.3,38.6,0.7,57.9,1c24.8,0.4,49.6,0.7,74.4,1
	c34.3,0.4,68.6,0.7,102.9,1c20.1,0.2,40.3,0.7,60.4,1c7.2,0.1,9.2-1.9,9.4-9.2c0.1-4.8,0.2-9.7-0.1-14.5c-0.4-5.6-2.4-7.4-8-7.3
	c-11.8,0.2-23.6,0.7-35.4,0.9c-21.5,0.4-43,0.7-64.4,1c-25.6,0.4-51.3,0.7-76.9,1c-26.7,0.3-53.3,0.7-79.9,1
	c-20.3,0.3-40.6,0.7-60.9,1c-31.6,0.4-63.3,0.7-94.9,1c-9.1,0.1-11.2-2.1-11.3-11.1c0-16.3,0-32.7,0-49c0-8.9-2.4-11-11.3-9.6
	c-15,2.3-29.9,4.6-44.9,7.1c-8.3,1.4-10.7-0.4-10.8-8.9c0-1,0-2,0-3V393.1c0-1.8-0.1-3.7,0.1-5.5c0.4-4.9,2.8-7,7.6-6.1
	c12.3,2.3,24.5,4.6,36.8,7.2c8.9,1.9,10.6,4.5,9.7,13.5c-0.1,1.5-0.1,3-0.1,4.5c0,244,0,488,0,731.9c0.2,2.5,0.5,4.9,1,7.4
	c0,8.5,0.3,17-0.1,25.5c-0.3,5.6,2,8.6,7.1,10.4c11.6,4.1,23.2,8.3,34.7,12.6c10.6,4,12.3,3,12.3-8.3c0-97.3,0-194.6,0-291.9
	C524,781.9,524,669.5,524,557z M838,1034.5h1c0,18.3-0.1,36.6,0,54.9c0.3,44,0.6,88,1,131.9c0,0.7,0,1.3,0,2
	c0.3,5.6,2.9,8.2,8.3,8.6c12.1,1,24.2,2,36.3,3c7,0.6,8.6-0.5,9.9-7.4c0.3-1.5,0.4-3,0.4-4.5c0.4-13.3,0.7-26.6,1-39.9
	c0.4-17.3,0.8-34.6,1-51.9c0.4-39,0.8-77.9,1.1-116.9c0-1.8,0.2-3.7,0.3-5.5c0.2-4.9,3-9.4,7.3-11.7c5.6-3.3,10.7-7.3,16.1-10.9
	c4-2.7,6.5-6,6.3-11.2c-0.5-10.1-0.6-20.3-1.2-30.4c-1.2-24.4-2.7-48.8-3.8-73.2c-0.8-18-1.3-35.9-2-53.9c-0.9-21.6-2.1-43.2-3-64.8
	c-0.8-18.3-1.3-36.6-2-54.9c-0.9-22.6-2.2-45.2-2.9-67.8c-0.9-25.6-1.5-51.2-2.1-76.9c-0.2-9.7-2.9-11.8-12-8.7
	c-19,6.6-38,13.3-56.9,20.1c-7.8,2.8-9.2,4.8-9.1,13.3c0.3,32.8,0.6,65.6,1,98.4c0.3,33,0.7,66,1,98.9c0.3,28,0.6,56,1,83.9
	c0.3,20.8,0.7,41.6,1,62.4c0.4,25,0.7,50,1,74.9C838.1,1009.2,838,1021.8,838,1034.5z M598,615c0,70.3,0,140.7,0,211
	c0,2,0.1,4-0.1,6c-0.4,4.9-2.5,6.3-7,4.4c-4.3-1.8-8.5-3.8-12.7-5.9c-7.9-3.8-15.8-7.8-23.8-11.6c-7.3-3.4-10.5-1.3-10.5,6.8v378
	c0,1.5,0,3,0,4.5c0.2,5.5,2,7.4,7.5,7.8c6,0.5,12,0.8,17.9,1.4c16.7,1.8,33.4,3.7,50.1,5.4c5,0.5,7.1-1.5,7.4-6.4
	c0.1-1.8,0.1-3.7,0-5.5c-0.3-69.1-0.7-138.3-1-207.4c-0.3-73.8-0.7-147.6-1-221.4c-0.3-61.8-0.6-123.6-1-185.4
	c-0.4-78.7-0.7-157.3-1-235.9c0-13.3,0-26.7,0-40c0-9.5-1.3-10.8-10.5-10.8c-4.7,0-9.3,0-14,0c-6.7,0.1-9.3,2.6-9.4,9.5
	c-0.1,8,0.2,16-0.2,24c-0.1,2.4-1.1,5.9-2.8,6.6s-5-0.5-7.1-1.7c-7.2-4.4-14.3-9.1-21.4-13.8c-4.2-2.7-6.7-6.5-6.5-11.6
	c0.3-7.5,0.3-15,0.9-22.4c0.7-9.5-3-17.2-8.7-24.3c-0.9-1.1-2.6-1.6-4-2.3c-0.9,1.3-1.6,2.7-2.2,4.2c-0.2,1.5-0.3,3-0.1,4.5
	c0,23,0.1,46,0,69c-0.1,14.4,1,13.2,13.1,19.2c12.5,6.2,25.5,11.4,38.3,17c6.9,3,9.8,7.5,9.8,15.4C597.9,473.7,598,544.4,598,615z
	 M1292.9,698l1.1,0c0.5,1.7,0.8,3.4,1,5.2c0.7,12.8,1.6,25.6,2,38.4c0.6,18.3,0.7,36.6,1.1,54.9c0.2,9,0.6,18,0.9,26.9
	c0.7,22.6,1.4,45.2,2,67.9c0.7,28,1.3,55.9,2,83.9c0.6,25.6,1.4,51.2,2,76.9c0.5,22.6,0.6,45.3,1,67.9c0.6,29.8,1.2,59.6,2,89.4
	c0.6,25.4,1.3,50.9,2,76.4c0.2,6.4,2.6,8.8,9.1,9.4c4.1,0.4,8.3,0.9,12.3,1.7c9.2,1.9,11.6,0.2,11.4-9.2
	c-0.1-11.3-0.8-22.6-0.9-33.9c-0.4-30.3-0.8-60.6-1-90.9c-0.4-35.8-0.7-71.6-1-107.4c-0.3-29.5-0.6-59-1-88.4c-0.3-24-0.6-48-1-71.9
	c-0.3-22.6-0.7-45.3-1-67.9c-0.4-32.7-0.7-65.3-1-97.9c-0.3-33.8-0.7-67.6-1-101.4c-0.4-40-0.7-80-1-119.9c-0.2-24-0.7-48-1-71.9
	c0-1-0.1-2-0.2-3c-0.8-4.4-3.1-6-7.4-5s-8.2,2.7-12.4,3.7c-4.8,1.1-9.9,2.8-14.6,2.3c-11.5-1.4-21.9,2.3-30.8,7.9
	c-9.5,6-14.5,16.1-14.5,28c0,270.7,0,541.3,0,811.9c0,2.2,0.1,4.3,0.3,6.5c0.5,3.8,2.8,5.9,6.7,6c3.3,0.1,6.7,0.1,10,0.1
	c8.3,0,10.7-2.3,10.9-10.6c0.4-19.6,0.7-39.3,1-58.9c0.3-21.2,0.7-42.3,1-63.4c0.3-20.3,0.7-40.6,1-60.9c0.3-14.5,0.7-29,1-43.4
	c0.4-17.5,0.7-35,1-52.4c0.3-19.6,0.7-39.3,1-58.9c0.4-23.5,0.7-47,1-70.4c0.3-20.1,0.7-40.3,1-60.4c0.4-23.6,0.6-47.3,1.1-70.9
	c0.2-10.1,0.5-20.3,1.1-30.4C1291.4,708,1292.3,703,1292.9,698z M1143.3,1274.7l2.8-0.3c0.7-3.8,1.5-7.5,1.9-11.3
	c2.2-21,4.3-42,6.6-63c1.2-11.2,3-22.4,4.3-33.7c0.7-5.6,0-10.5-5.6-13.8c-6.1-3.7-12-7.8-17.9-11.8c-19.7-13.4-39.5-26.5-58.8-40.4
	c-6.3-4.6-11.9-4.6-18.6-2c-20.9,8.2-41.9,16.1-62.8,24.3c-10.7,4.2-21.3,8.6-31.8,13c-5.1,2.1-7.5,5.7-7.5,11.6
	c-0.2,15.6-1.3,31.2-1.8,46.8c-0.8,31.6-1.5,63.2-2,94.8c-0.1,7.1,1.9,9.1,8.9,8.8c14.8-0.5,29.6-1.4,44.3-1.9
	c21-0.8,41.9-1.5,62.9-2c4.8-0.1,7.1-2.2,7.6-6.7c0.2-2.2,0.3-4.3,0.2-6.5c0-41.8,0-83.6,0-125.5c-0.1-1.8,0-3.7,0.1-5.5
	c0.5-4.4,4.1-7.3,8.4-6.5c2.5,0.5,4.8,1.3,7,2.6c12,6.7,20.8,17,29.8,27c1.3,1.7,2.2,3.7,2.6,5.8c2,9.8,3.7,19.6,5.6,29.4
	c3.5,18.8,6.9,37.6,10.6,56.4C1140.6,1268.2,1142.1,1271.4,1143.3,1274.7z"/>
<path class="st2" d="M0,1418c15,1.8,30.1,3.5,45.1,5.6c20.9,2.9,41.8,6.2,62.7,9.2c3.3,0.4,6.7,0.4,10-0.1
	c22.6-3.2,45.1-6.4,67.7-9.8c5.6-0.8,10.9-3.1,16.5-3.8c22.1-2.9,44.2-5.3,66.4-8.1c23.6-2.9,47.2-5.9,70.8-9
	c20.3-2.7,40.5-5.6,60.8-8.4c4.9-0.7,9.9-1.5,14.9-1.5c26.9,0.3,53.4-3.8,79.9-7.5c1-0.1,2-0.4,3-0.4c15.1-0.7,30.2-1.4,45.3-2.2
	c3.8-0.2,7.8-0.2,11.3-1.5c9.3-3.4,18.9-3.1,28.6-3.6c18.1-1,36.1-2.9,54.2-4.4c6-0.5,11.9-1,17.9-1.5c10.4-0.8,20.9-1.8,31.3-2.3
	c6.6-0.3,13.3,0.2,19.9-0.2c6.3-0.4,12.5-1.5,18.7-2.2c6.4-0.8,12.8-1.8,19.3-2.2c28.7-1.8,57.4-3.5,86.2-4.8
	c12.5-0.6,25,0,37.5-0.2c24-0.5,47.9-0.8,71.8-2.2c28-1.6,56-4.6,84-6.5c10.3-0.7,20.7-0.1,31-0.3c31.8-0.6,63.7,0,95.3-2.4
	c26.5-2,53,0.1,79.4-1.7c54.8-3.8,109.7,0.6,164.3-2.4c26.1-1.4,52.2-1.9,78.3-2.4v61c-14.4,2.6-28.8,4.8-43.1,7.9
	c-18,3.9-35.8,8.8-53.7,12.9c-20.2,4.7-40.6,8.9-60.9,13.4c-10.9,2.4-21.7,5-32.6,7.6c-7.1,1.7-14.2,3.5-21.4,5
	c-16.9,3.5-33.9,6.8-50.8,10.4c-4,0.9-7.8,2.8-11.8,3.9c-11.6,3.1-23.1,6.1-34.8,8.8c-4.5,1.1-9.3,1-13.7,2.3
	c-9.2,2.8-18.1,7-27.4,9.4c-25.3,6.6-50.7,12.5-76,18.7c-1.8,0.4-3.4,1.2-5.2,1.8c-11.1,3.9-22.2,8.2-33.4,11.6
	c-21.9,6.8-44,12.9-66,19.6c-11,3.4-21.6,7.7-32.5,11.3c-17,5.7-34.1,11.2-51.1,16.9c-3.6,1.2-7.2,2.7-10.7,4.1
	c-14.8,5.8-29.7,11.7-44.5,17.6c-7.2,2.9-14.3,6.2-21.5,9.1c-3.2,1.3-6.8,1.8-10,3.1c-9.2,3.8-18.3,7.9-27.5,11.8l-43,18.5l-23.3,10
	c-4.6,2-9.2,3.8-13.7,6c-5.7,2.7-11.2,5.8-16.9,8.6c-13,6.3-26.1,12.4-39,19c-6.8,3.4-13.2,7.8-20,11.2c-8.9,4.5-18.2,8.2-27,12.8
	c-8.1,4.2-15.8,9.2-23.7,13.8c-10.4,5.9-21.1,11.3-31.4,17.4c-19,11.2-38,22.6-56.7,34.2c-16.6,10.3-32.9,21.3-49.5,31.8
	c-2.6,1.7-5.9,3.3-8.9,3.3c-54.7,0.2-109.3,0.2-164,0.1c-1.7,0-3.4-0.3-5.1-0.4c0-1-0.1-1.4,0.1-1.6c0.7-0.7,1.4-1.4,2.1-2.1
	c10.6-9.6,23.8-14.5,36.2-20.9c6-3.1,11.7-6.8,17.6-10.2c3.4-2,6.8-4.1,10.3-6c6.3-3.4,12.8-6.4,19-10c11.9-7,23.4-14.6,35.4-21.4
	c7.6-4.3,16.1-7.2,23.6-11.7c7.2-4.2,6.6-7.7-0.9-11.4c-0.5-0.2-0.9-0.4-1.4-0.6c-20-8.7-40-17.3-60-26
	c-25.6-11.1-51.3-22.3-76.9-33.5c-3.8-1.8-8.2-1.9-12-0.2c-21.8,8.6-43.7,17-65.6,25.5c-7.8,3-15.6,5.8-23.2,9.2
	c-15.8,7-30.9,15.6-48.1,19c-2.3,0.5-4.4,1.4-6.4,2.6c-8.7,4.5-17.2,9.6-26,13.7c-10.8,5.1-22,9.5-33,14.2c-3.9,1.7-7.9,3.3-11.9,5
	v-72c2.4-0.6,5-0.8,7.2-1.7c16.5-7,33.1-14,49.5-21.2c15.3-6.6,30.5-13.3,45.8-19.8c5.3-2.2,11-3.6,16.4-5.8
	c19.9-8,39.7-16.2,59.6-24.1c15.9-6.3,31.9-12.5,48-18.5c10.9-4.1,22-7.7,33-11.4c8.2-2.8,16.8-4.6,24.6-8.1
	c23.3-10.5,47.9-17.2,72-25.1c7.6-2.5,15.1-5.2,22.7-7.5c4-1.2,8.1-1.8,12.1-2.7c3.5-0.8,7.2-1.3,10.6-2.4c8.5-2.6,17-5.6,25.5-8.2
	c6.9-2.1,13.9-3.6,20.7-5.7c19.5-6,38.9-12.9,58.6-18.2c23.6-6.3,47.6-11.4,71.4-17.1c27.5-6.6,54.8-13.5,82.4-19.7
	c16.4-3.7,33-6.1,49.5-9.3c9.4-1.8,18.7-5,28.2-5.8c9.3-0.8,18.5-1.5,27.4-4.6c3.5-1,7.1-1.7,10.8-2c21.8-2.6,43.6-4.9,65.3-7.8
	c9.7-1.3,19.2-4.3,28.9-5.7c10-1.4,20.2-1.7,30.3-2.6c2.6-0.4,5.1-1.1,7.6-2c3.2-0.9,6.4-2.1,9.7-2.9c2.5-0.5,5.1-0.9,7.6-1.1
	l-0.2-1.4c-0.9-0.2-1.9-0.4-2.8-0.4c-8.3,0.2-16.5,0.5-24.8,0.9c-10.6,0.5-21.2,1.2-31.8,1.9c-24.5,1.7-49.1,3.4-73.6,5.1
	c-10.1,0.7-20.2,1.3-30.3,2.3c-22.7,2.1-45.3,4.6-68,6.6c-25.2,2.2-50.3,4.1-75.5,6.1c-11.3,0.9-22.6,1.4-33.8,2.6
	c-22.5,2.6-44.9,5.6-67.4,8.4c-9.9,1.2-19.8,2.4-29.7,3.6c-8.4,1.1-16.7,2.4-25.1,3.3c-7.3,0.8-14.6,0.8-21.8,1.9
	c-10.8,1.7-21.5,4.9-32.4,6c-20.4,2-40.6,4.2-60.8,7.9c-15.1,2.7-30.2,5.1-45.2,7.7c-11.3,1.9-22.5,4-33.8,5.9
	c-1.6,0.3-3.3,0.4-5,0.6c-10.4,1.2-20.9,1.9-31.2,3.8c-19.3,3.5-38.5,7.7-57.8,11.6c-16.9,3.4-33.9,6.7-50.8,10.2
	c-9.6,2-19.2,4.4-28.8,6.2c-8.7,1.6-17.6,2.1-26.1,4.1c-23,5.4-45.9,11.4-68.8,17.1L0,1418z M1310.4,1386.6l-0.4-2.4
	c-2.5-0.3-5.2-1.2-7.6-0.8c-20.9,3-41.8,5.7-62.6,9.3c-22.4,3.9-44.7,8.8-67.1,12.9c-25,4.6-50.1,8.7-75.2,13.1
	c-16.2,2.9-32.4,6-48.6,8.8c-7,1.2-14.2,1.6-21.2,3c-22.3,4.6-44.5,9.7-66.8,14.3c-5.8,1.2-12,0.9-17.8,2.2c-12,2.6-23.9,6-35.9,8.7
	c-21.1,4.8-42.2,9.5-63.4,13.8c-17.9,3.7-36,6.6-53.9,10.3c-32.2,6.8-64.5,13.7-96.6,20.9c-23.1,5.1-46,10.7-69,16
	c-17.2,4-34.4,7.7-51.5,11.8c-3,0.7-5.9,2.3-8.7,3.8c-1,0.5-1.6,1.8-3.3,3.8c4.6,0.8,8,1.6,11.3,1.9c4,0.4,8,0.4,11.9,0.7
	c13.8,1.1,27.5,2.2,41.3,3.3c11.6,0.9,23.2,1.7,34.8,2.7c17.1,1.4,34.2,2.6,51.2,4.4c13.9,1.4,26-5,38.6-8.7
	c19.9-5.8,39.4-13.3,59-20.2c6.4-2.2,12.8-4.8,19.2-7.1c11.4-4.2,22.7-8.6,34.3-12.3c14.1-4.5,28.4-8.2,42.7-12.3
	c17.2-5,34.5-10,51.7-14.9c10.1-2.9,20-6.8,30.3-8.3c20-2.9,38.3-11,57.5-16.3c4.2-1.2,8.2-2.9,12.3-3.9c11.6-2.8,24-3.9,34.8-8.5
	c16.3-6.9,33.8-7,50.3-12.3c4.5-1.4,9.6-1.1,14.3-2.2c19.6-4.6,39-9.7,58.6-14.2c9.7-2.3,20-2.8,29.3-6c16.4-5.6,33.1-8.6,50.2-10.2
	C1299.7,1391.2,1305,1388.4,1310.4,1386.6z M467,1560.8c-2.5,0.3-4.5,0.4-6.4,0.9c-10.4,2.4-20.7,4.8-31,7.5
	c-12.7,3.3-25.5,6.4-38,10.3c-20.6,6.6-41,13.8-61.5,20.8c-1.8,0.6-3.2,2.4-4.7,3.6c1.4,1.6,3,3.2,4.6,4.6c0.8,0.7,2.2,0.6,3.3,0.9
	c16.6,5,33.1,9.9,49.7,14.9c13.2,4,26.4,8.1,39.6,12.2c14.3,4.4,28.8,8.4,42.9,13.2c9.3,3.2,17.8,4.3,26.8-0.8
	c9.7-5.5,19.8-10.2,29.8-15c9.1-4.4,18.3-8.8,27.5-13c7.9-3.6,15.8-6.9,23.7-10.4c7.3-3.2,14.5-6.6,21.8-9.7
	c5.1-2.2,10.4-4,15.6-6.1c4.1-1.6,8.3-3.2,12.3-5.1c1-0.5,2.3-2.3,2-3c-0.6-1.3-1.7-2.3-3-2.7c-4.2-0.8-8.6-1-12.8-1.6
	c-15.5-2.4-30.9-5-46.3-7.3c-19.4-3-38.8-5.8-58.3-8.7L467,1560.8z"/>
<path class="st3" d="M0,1729c4-1.7,7.9-3.3,11.9-5c11-4.7,22.1-9.2,33-14.2c8.9-4.2,17.3-9.2,26-13.7c2-1.2,4.2-2,6.4-2.6
	c17.2-3.4,32.3-12,48.1-19c7.6-3.4,15.4-6.2,23.2-9.2c21.9-8.5,43.8-16.9,65.6-25.5c3.8-1.7,8.2-1.6,12,0.2
	c25.6,11.3,51.2,22.4,76.9,33.5c20,8.7,40,17.3,60,26c0.5,0.2,0.9,0.4,1.4,0.6c7.5,3.7,8,7.2,0.9,11.4c-7.5,4.4-16,7.3-23.6,11.7
	c-12,6.8-23.5,14.4-35.4,21.4c-6.1,3.6-12.7,6.6-19,10c-3.5,1.9-6.9,4-10.3,6c-5.8,3.4-11.5,7.2-17.6,10.2
	c-12.4,6.4-25.6,11.3-36.2,20.9c-0.7,0.7-1.4,1.3-2.1,2.1c-0.2,0.2-0.1,0.6-0.1,1.6c1.7,0.2,3.4,0.4,5.1,0.4c54.7,0,109.3,0,164-0.1
	c3,0,6.3-1.6,8.9-3.3c16.6-10.5,32.9-21.4,49.5-31.8c18.8-11.7,37.7-23,56.7-34.2c10.3-6.1,21-11.6,31.4-17.4
	c8-4.5,15.6-9.5,23.7-13.8c8.8-4.6,18.1-8.3,27-12.8c6.8-3.4,13.2-7.8,20-11.2c12.9-6.5,26-12.6,39-19c5.7-2.8,11.2-5.8,16.9-8.6
	c4.5-2.2,9.1-4,13.7-6l23.3-10l43-18.5c9.2-3.9,18.3-8,27.5-11.8c3.2-1.3,6.8-1.8,10-3.1c7.2-2.9,14.3-6.2,21.5-9.1
	c14.8-6,29.6-11.8,44.5-17.6c3.6-1.4,7.1-2.9,10.7-4.1c17-5.7,34.1-11.2,51.1-16.9c10.9-3.7,21.5-8,32.5-11.3
	c21.9-6.8,44-12.9,66-19.6c11.3-3.5,22.3-7.7,33.4-11.6c1.7-0.6,3.4-1.4,5.2-1.8c25.3-6.2,50.8-12.2,76-18.7
	c9.3-2.4,18.2-6.5,27.4-9.4c4.4-1.3,9.2-1.2,13.7-2.3c11.6-2.8,23.2-5.8,34.8-8.8c4-1.1,7.8-3,11.8-3.9c16.9-3.6,33.9-6.9,50.8-10.4
	c7.2-1.5,14.3-3.3,21.4-5c10.8-2.5,21.7-5.2,32.6-7.6c20.3-4.5,40.6-8.8,60.9-13.4c17.9-4.1,35.7-9,53.7-12.9
	c14.3-3.1,28.7-5.3,43.1-7.9v7c-9.1,4.4-18.1,9.2-28.4,10.4c-0.8,0.2-1.6,0.6-2.2,1.1c-9.6,5-19.2,9.8-28.7,14.9
	c-12.4,6.6-26.8,9.2-37.7,19c-1,0.7-2,1.2-3.1,1.6c-7.8,3.7-15.9,6.8-23.4,11.1c-17.2,9.7-34.2,20-51.2,30c-7,4.1-14.2,8-21,12.5
	c-8.4,5.6-16.4,12-24.7,17.7c-15.4,10.5-31.1,20.5-46.3,31.2c-5.2,3.7-8.9,9.4-14,13.4c-14.7,11.4-29.7,22.5-44.6,33.5
	c-5.5,4-11.8,7.1-16.7,11.7c-8.8,8.4-17.8,16.3-28.1,23.1c-8.4,5.5-15.4,13-23,19.7c-7.1,6.3-14.2,12.6-21.2,18.9
	c-16.8,15.2-33.4,30.5-50.3,45.6c-9.8,8.7-19.9,17.1-29.9,25.6c-4.8,4.1-10.5,7.4-14.4,12.2c-6.2,7.8-13.5,14.7-21.8,20.4
	c-4.8,3.3-8.6,8-10.7,13.4c2.7,0.1,4.5,0.3,6.3,0.3c31.3,0,62.7-0.1,94,0.1c8,0.1,15.7,0.5,20.4-7.7c0.1-0.1,0.3-0.2,0.4-0.3
	c11.3-11.5,22.5-23.1,33.8-34.6c8.1-8.3,16.3-16.6,24.5-24.8c4.7-4.7,9.3-9.5,14.3-13.7c2.3-1.9,6.1-4,8.6-3.3
	c11.1,2.9,22,6.4,32.8,10.3c10,3.6,19.6,8,29.5,11.9c3.6,1.4,7.4,2.1,10.9,3.7c8.9,4.1,17.4,9.3,26.6,12.5
	c16.7,5.7,31.4,15.3,46.6,23.7c9.7,5.3,18.4,12.5,27.8,18.4c3.2,2,7.3,3.8,11,3.8c35,0.3,70,0.2,105,0.2c1.7-0.1,3.4-0.3,5.1-0.5
	l0.8-1.6c-0.9-0.5-1.8-0.9-2.6-1.4c-14-8.6-28-17.2-42.1-25.6c-6.1-3.7-12.3-7.3-18.8-10.4c-10.3-5-21.3-8.6-31.2-14.3
	c-19.2-11.2-40.1-18.4-60.3-27.2c-12.9-5.7-26.2-10.4-39.5-15.2c-12.5-4.5-25.2-8.4-37.7-12.7c-8.5-2.9-16.9-5.9-25.3-9.1
	c-2.6-1-3.7-3.2-1.9-5.6c2.3-3.4,5-6.6,7.9-9.5c6.7-6,13.8-11.5,20.6-17.3c12.7-10.9,25.3-21.9,38.1-32.8c10.5-9,21-17.8,31.6-26.8
	c4.7-4,9.4-8,14-12c3.8-3.4,7.3-7.3,11.4-10.4c18.8-14.2,37.8-28.2,56.8-42.2c5.3-4,10.6-8,16.1-11.7c13.9-9.4,27.9-18.6,41.8-28
	c2.3-1.6,4.1-4.1,6.6-5.2c17.1-7.9,33.3-17.5,48.5-28.6c2.8-2,6.2-3.1,9.3-4.7v10c-7.8,4.9-15.6,9.7-23.3,14.6
	c-6.6,4.1-12.8,9.6-19.9,11.9c-7.5,2.4-13,6.7-18.9,11.2c-10.1,7.7-20.8,14.8-31.4,21.8c-3.7,2.4-8.3,3.5-11.8,6
	c-10.1,7.2-20.2,14.4-29.8,22.4c-10,8.4-19.5,17.4-30.9,24c-4.4,2.6-8.5,5.6-12.4,8.9c-9.7,8.3-19.1,16.8-28.7,25.2
	c-7.1,6.3-14,12.7-21.2,18.7c-4.9,4.1-10.6,7.4-15.4,11.7c-11.7,10.3-23,21-34.6,31.5c-4.1,3.7-8.5,7.1-12.8,10.6l0.2,1.9
	c5.2,1.2,10.3,2.4,15.5,3.7c2.4,0.5,4.9,1.1,7.2,1.9c8.6,3,17.1,6.2,25.6,9.4c3.2,1.2,6.2,3.2,9.5,4.3c6.5,2.4,13.1,4.4,19.7,6.7
	c4,1.4,8,2.9,12,4.3c2.2,0.8,4.4,1.6,6.6,2.4c11.1,4.1,20.6,12,32.7,13.6c0.6,0.2,1.2,0.5,1.8,0.9c6.2,3.4,12.4,7,18.7,10.2
	c3.8,1.9,7.9,3.3,11.8,4.9c1.5,0.7,2.9,1.5,4.3,2.3c4.2,2.4,8.1,5.3,12.5,7c12.2,4.4,23.7,10.4,34.3,17.9c1.2,0.9,2.4,2,3.8,2.3
	c7.5,1.6,12.9,6.3,18.5,11.2c2.7,2.4,6.4,3.9,9.8,5.5c7.2,3.3,13.6,7.5,16.8,15.2h-145l-3-4l-2-1h-5l-11-10l-2-1
	c-6.6-3.8-13.2-7.6-19.8-11.4c-1.7-0.9-3.4-1.7-5.2-2.6l-2-1c-5.7-2.1-11.4-4.2-17-6.3c-1-0.4-1.8-1.4-2.9-2
	c-7.5-4-14.8-8.6-22.8-11.7s-16.2-4.5-24.2-6.9c-1.8-0.7-3.6-1.7-5.1-2.9c-2.9-1.9-5.4-4.7-8.6-5.8c-8.2-2.7-16.7-4.6-25.1-6.9
	c-1.9-0.5-3.8-1.2-5.5-2.2c-3.2-2-5.4-1.2-7.6,1.7c-2.7,3.4-5.6,6.5-8.7,9.5c-3.7,3.5-8.1,6.4-11.6,10.1
	c-14.7,15.3-29.3,30.7-43.8,46.2c-2.5,2.6-4.7,5.5-7,8.2H198c1.9-1.7,3.5-3.7,5.6-4.9c2.6-1.3,5.4-2.4,8.2-3.2
	c8.6-3,13.3-11.5,22.1-14.7c8.2-3,15.7-8.1,23.4-12.4c7-4,13.9-8.3,20.9-12.4c2.7-1.6,5.6-2.8,8.4-4.1c4.9-2.3,10.6-3.6,14.6-7
	c8.8-7.3,18.4-12.9,28.4-18c4.5-2.3,9-4.7,13.5-7.1c4-2.1,8.1-4.1,13.4-6.8c-6.3-2.7-11.5-5-16.8-7.2c-10.1-4.2-20.2-8.2-30.2-12.5
	c-5.7-2.5-11.2-5.6-16.9-8.3c-4.2-1.9-8.4-3.7-12.7-5.3c-6.3-2.4-12.8-4.2-19-7c-9.6-4.3-18.9-9.2-28.4-13.8c-3.1-1.6-6.2-3-9.4-4.2
	c-1.9-0.7-4.4-1.2-6.2-0.6c-9.4,3.5-17.8,9.1-27.9,11.3c-7.9,1.8-15.3,6.1-22.9,9.1c-5.2,2-10.6,3.7-15.7,5.7
	c-6.8,2.8-13.4,5.8-20.2,8.7c-6.1,2.6-12.2,5.1-18.2,7.7c-3.7,1.6-7.8,2.5-10.8,4.9c-4.3,3.5-8.8,4.3-13.9,4.1c-1-0.1-2,0.1-2.9,0.5
	c-8.1,3.9-16.3,7.9-24.3,12c-8.5,4.2-16.9,8.6-25.5,12.7c-3.2,1.5-6.9,2.1-10.2,3.5c-8.2,3.7-16.2,7.6-24.3,11.4V1729z
	 M768.8,1710.9c3.3-1.5,6.1-2.5,8.6-4c3.8-2.4,7.3-5.2,11.1-7.7c24-15.5,48.2-30.9,72.2-46.4c6.9-4.5,6.6-7.8-0.5-11.8
	c-8.7-4.8-17.5-9.5-26.1-14.6c-5.2-3.1-9.5-3.1-14.7,0.2c-16.8,10.5-33.8,20.6-50.8,30.7c-11.6,6.9-23.3,13.6-34.9,20.4
	c-2.4,1.4-4.7,3.1-6.8,5c-3.4,3.2-3.1,5.3,0.9,7.9c1.3,0.8,2.6,1.4,4,2c6.4,3.1,12.9,6.1,19.3,9.3
	C756.9,1704.8,762.8,1707.9,768.8,1710.9z M1091.6,1552.5c-3,1-5.9,1.5-8.2,2.9c-17.3,10-34.4,20.1-51.5,30.4
	c-1.2,0.7-2.5,3.3-2.2,4.4c0.8,1.7,2.4,3,4.2,3.6c9.3,2.6,18.9,4.2,28,7.4c8.2,2.9,14.8,0.5,21.8-3.2c10.7-5.7,21.6-11,32.4-16.6
	c6.8-3.5,13.5-7.2,20.1-10.9c1.3-0.7,3-2.8,2.7-3.7c-0.7-1.6-2.1-2.8-3.7-3.3c-4.1-1.5-8.2-2.7-12.4-3.7
	C1112.3,1557.3,1102,1554.9,1091.6,1552.5z"/>
<path class="st2" d="M0,453c8.3,2.9,16.7,5.5,24.9,8.6c24.3,9.1,48.5,18.4,72.7,27.6c22.7,8.6,45.3,17.4,68,26
	c19.1,7.2,38.3,14.2,57.5,21.4c5.8,2.2,11.5,4.5,17.2,6.8c4.1,1.7,5.4,5.2,5.6,9.2c0.4,7.3,0.9,14.6,1,21.9
	c0.4,22.1,0.7,44.3,1.1,66.4c0.3,21.5,0.6,43,1.1,64.4c0.5,25,1.3,49.9,2,74.8c0.2,6.3,0.6,12.6,1,18.9c0.3,5.7,2.3,7.7,8.1,7.8
	c8.8,0.1,17.7,0,26.5,0.1c6.2,0,7.3,1.2,7.4,7.3c0.3,32.1,0.7,64.3,1,96.4c0.3,25.8,0.6,51.6,1,77.4c0.1,7.4,2.6,9.8,10.1,9.8
	c12.8,0,25.7,0,38.5,0c6.6,0,8.4,1.8,8.4,8.3c0.1,9.7,0.1,19.3,0,29c-0.1,7.8-2,9.7-9.9,9.7c-12.8,0-25.7,0-38.5,0
	c-6.5,0-7.6,1.1-7.6,7.6c0,37.8-0.1,75.7,0,113.5c0.1,33.1,0.6,66.3,0.9,99.4c0.1,8.6-0.9,9.5-9.4,9.5c-18,0-36,0-54,0
	c-2.5,0-5,0.2-7.5,0.5c-6.3,0.7-9.4-1.7-10-8.1c-0.2-2.2-0.1-4.3-0.1-6.5c0-110.8,0-221.6,0-332.4c0-11-0.5-12.2-11-15.2
	c-17.4-5.1-35-9.5-52.4-14.5c-19.4-5.6-38.5-11.7-57.9-17.3c-14.1-4-28.4-7.3-42.5-11.3c-16.4-4.6-32.6-9.6-48.8-14.4
	c-1.5-0.3-2.9-0.6-4.4-0.8v-54c2.1,0.6,4.2,1,6.2,1.7c23.3,7.8,46.6,15.7,70,23.5c21.6,7.1,43.4,13.9,65,21.1
	c20.3,6.8,40.5,14.1,60.8,21.2c12.9,4.5,15,3,15-10.5c0-91,0-181.9,0-272.9c0-2,0-4-0.2-6c-0.3-4.3-3-8-7.1-9.5
	c-14.2-5.7-28.4-11.5-42.7-17c-12.6-4.8-25.4-9.1-37.9-14c-14.1-5.5-28.1-11.4-42.2-16.8c-21.7-8.3-43.5-16.6-65.3-24.7
	c-7.1-2.7-14.5-4.7-21.7-7V453z"/>
<path class="st3" d="M1442,1797c-3.2-7.7-9.6-11.9-16.8-15.2c-3.4-1.6-7.1-3.1-9.8-5.5c-5.5-4.9-11-9.5-18.5-11.2
	c-1.3-0.3-2.6-1.4-3.8-2.3c-10.6-7.5-22.1-13.5-34.3-17.9c-4.4-1.6-8.3-4.6-12.5-7c-1.4-0.9-2.9-1.6-4.3-2.3c-3.9-1.7-8-3-11.8-4.9
	c-6.3-3.2-12.5-6.8-18.7-10.2c-0.5-0.4-1.1-0.7-1.8-0.9c-12.1-1.6-21.7-9.5-32.7-13.6c-2.2-0.8-4.4-1.6-6.6-2.4c-4-1.4-8-2.9-12-4.3
	c-6.6-2.2-13.2-4.3-19.7-6.7c-3.2-1.2-6.2-3.1-9.5-4.3c-8.5-3.2-17-6.4-25.6-9.4c-2.4-0.8-4.8-1.4-7.2-1.9
	c-5.2-1.2-10.3-2.4-15.5-3.7l-0.2-1.9c4.3-3.5,8.7-6.9,12.8-10.6c11.6-10.4,22.9-21.2,34.6-31.5c4.8-4.3,10.5-7.6,15.4-11.7
	c7.2-6,14.2-12.5,21.2-18.7c9.5-8.4,19-17,28.7-25.2c3.9-3.3,8-6.3,12.4-8.9c11.4-6.7,20.9-15.7,30.9-24c9.5-8,19.6-15.2,29.8-22.4
	c3.6-2.5,8.2-3.6,11.8-6c10.6-7,21.2-14.1,31.4-21.8c6-4.5,11.4-8.8,18.9-11.2c7.2-2.3,13.3-7.8,19.9-11.9
	c7.8-4.8,15.6-9.7,23.3-14.6v344L1442,1797z"/>
<path class="st2" d="M1472,1443c-3.1,1.5-6.6,2.6-9.3,4.7c-15.1,11.2-31.4,20.7-48.5,28.6c-2.5,1.1-4.3,3.7-6.6,5.2
	c-13.9,9.4-27.9,18.6-41.8,28c-5.5,3.7-10.8,7.8-16.1,11.7c-19,14-38,28-56.8,42.2c-4.1,3.1-7.5,7-11.4,10.4c-4.6,4.1-9.3,8.1-14,12
	c-10.5,8.9-21.1,17.8-31.6,26.8c-12.7,10.9-25.3,21.9-38.1,32.8c-6.8,5.8-13.9,11.4-20.6,17.3c-3,2.9-5.6,6.1-7.9,9.5
	c-1.8,2.4-0.7,4.7,1.9,5.6c8.4,3.1,16.8,6.2,25.3,9.1c12.6,4.3,25.2,8.2,37.7,12.7c13.3,4.8,26.6,9.5,39.5,15.2
	c20.2,8.8,41.1,16.1,60.3,27.2c9.8,5.7,20.9,9.3,31.2,14.3c6.4,3.1,12.6,6.7,18.8,10.4c14.1,8.4,28,17.1,42.1,25.6
	c0.8,0.5,1.7,0.9,2.6,1.4l-0.8,1.6c-1.7,0.3-3.4,0.4-5.1,0.5c-35,0-70,0.1-105-0.2c-3.7,0-7.8-1.8-11-3.8
	c-9.4-5.9-18.1-13-27.8-18.4c-15.2-8.4-29.9-18-46.6-23.7c-9.2-3.2-17.6-8.4-26.6-12.5c-3.5-1.6-7.3-2.2-10.9-3.7
	c-9.9-3.9-19.5-8.3-29.5-11.9c-10.8-3.9-21.7-7.4-32.8-10.3c-2.4-0.6-6.2,1.4-8.6,3.3c-5.1,4.2-9.7,9-14.3,13.7
	c-8.2,8.2-16.4,16.5-24.5,24.8c-11.3,11.5-22.6,23.1-33.8,34.6c-0.1,0.1-0.3,0.2-0.4,0.3c-4.7,8.2-12.4,7.8-20.4,7.7
	c-31.3-0.2-62.7-0.1-94-0.1c-1.8,0-3.6-0.2-6.3-0.3c2.2-5.4,5.9-10.1,10.7-13.4c8.3-5.6,15.6-12.5,21.8-20.3
	c3.9-4.8,9.6-8.2,14.4-12.2c10-8.5,20.1-16.8,29.9-25.6c16.9-15.1,33.5-30.4,50.3-45.6c7-6.3,14.1-12.7,21.2-18.9
	c7.6-6.7,14.6-14.2,23-19.7c10.3-6.7,19.2-14.7,28.1-23.1c4.9-4.6,11.2-7.7,16.7-11.7c15-11.1,29.9-22.1,44.6-33.5
	c5.1-4,8.8-9.7,14-13.4c15.2-10.7,30.9-20.7,46.3-31.2c8.4-5.7,16.3-12.1,24.7-17.7c6.8-4.5,14-8.4,21-12.5c17-10,34-20.3,51.2-30
	c7.5-4.2,15.6-7.4,23.4-11.1c1.1-0.4,2.1-0.9,3.1-1.6c10.9-9.7,25.3-12.4,37.7-19c9.5-5,19.2-9.9,28.7-14.9c0.7-0.5,1.4-0.9,2.2-1.1
	c10.3-1.2,19.2-6,28.4-10.4L1472,1443z"/>
<path class="st3" d="M0,490c7.2,2.3,14.6,4.3,21.7,7c21.8,8.1,43.6,16.3,65.3,24.8c14.1,5.5,28.1,11.4,42.2,16.8
	c12.6,4.8,25.4,9.2,37.9,14c14.3,5.5,28.5,11.2,42.7,17c4,1.5,6.8,5.2,7.1,9.5c0.2,2,0.2,4,0.2,6c0,91,0,181.9,0,272.9
	c0,13.5-2.1,15-15,10.5c-20.3-7-40.4-14.3-60.8-21.2c-21.6-7.2-43.4-14-65-21.1c-23.3-7.7-46.6-15.6-69.9-23.5
	C4.2,802,2.1,801.6,0,801v-70c8.1,2.1,16.1,3.9,24.1,6.2c13,3.8,25.8,7.9,38.7,11.7c17.9,5.2,35.9,9.9,53.8,15.2
	c25.2,7.4,50.3,15.2,75.5,22.8c7.7,2.3,10.6,0.2,10.8-7.8c0.2-5.3,0-10.7,0-16c0.1-5.7-2.7-9.6-7.8-11.7
	c-10.8-4.3-21.6-8.4-32.6-12.5c-13-4.8-26-9.2-38.9-14.1c-13.6-5.1-26.9-10.7-40.5-15.7c-17.3-6.5-34.6-12.8-52-18.9
	C20.9,686.5,10.4,683.4,0,680v-96c2.3,0.5,4.5,1.1,6.7,1.9c7.2,3,14.3,6.4,21.5,9.3c12.8,5.2,25.7,10,38.5,15.3
	c11.4,4.7,22.6,9.8,34,14.5c19.5,8.1,39,16.1,58.6,24.1c10.8,4.4,21.6,8.6,32.6,12.6c5.1,1.9,7.1,0.2,7.2-5.3c0.1-10,0-20,0.1-30
	c0-4.5-1.9-7.7-6-9.4c-3.4-1.4-6.8-2.7-10.2-4.1c-22.5-9.6-44.9-19.4-67.4-28.9c-13.8-5.8-27.9-11-41.6-16.8
	c-17.2-7.2-34.1-15.1-51.3-22.3c-7.3-3.1-15-5.3-22.5-7.9V490z"/>
<path class="st3" d="M0,1540v-13c9.9-3.1,19.7-6.4,29.6-9.1c8.5-2.5,17.1-4.4,25.9-5.8c9.8-1.4,18.8-6.2,29.1-5.7
	c7.5,0.3,14.9-1.1,21.9-3.9c7.5-2.9,15.6-4,23.5-5.9c1.6-0.4,3.3-0.2,4.9-0.6c3.9-0.8,7.7-1.7,11.5-2.8c2.1-0.6,4.2-2.2,6.1-2
	c13.4,1.7,25.6-4.3,38.5-5.9c8.1-1,16.1-3.1,24.1-4.9c4.8-1.1,9.5-2.5,14.2-3.8c1.1-0.3,2.3-0.5,3.4-0.6c7.8-0.4,15.6-0.6,23.4-1.1
	c3.6-0.4,7.2-1.1,10.7-2.1c3.7-0.8,7.3-2,11-2.8c5.4-1.1,10.7-2.1,16.1-3c4.9-0.8,9.8-1.9,14.7-2c8.7-0.2,17.4,0.5,25.2-4.4
	c1-0.6,2.6-0.5,3.9-0.7c8.9-1.2,18.4,0.7,26.7-4.5c0.9-0.4,1.9-0.5,2.9-0.4c17.1,0.1,33.9-3.1,50.7-5.7c5.8-0.9,11.4-3.7,17.2-4.1
	c11.8-0.9,23.6-0.8,35.4-1.2c2.6-0.3,5.2-0.7,7.7-1.4c5.6-1.2,11.2-2.6,16.8-3.5c6-0.9,12.2-1.2,18.3-2c5.5-0.8,10.9-2.3,16.5-2.9
	c8.2-0.9,16.8-0.2,24.7-2.3c6.7-1.8,13.6-2.7,20.6-2.9c6.6-0.2,13.3-0.8,19.9-1.5c9.5-1,19-2.7,28.5-3.3c12.5-0.8,25-0.7,37.4-1.2
	c2.2-0.1,4.5-1.1,6.7-1.7c3.2-0.8,6.3-2,9.5-2.2c9.3-0.6,18.6-0.8,27.9-1c5.2-0.1,10.4,0,15.5,0l0.2,1.4c-4.2,1.5-8.3,3.9-12.6,4.3
	c-10,0.7-20,2.1-29.8,4.5c-9.2,2.3-18.7,2.9-27.9,6.1c-8.6,3-18,3.8-27.1,5.5c-2.5,0.4-4.9,0.9-7.3,1.6c-8.6,2.7-17,6.5-25.8,8.1
	c-7.7,1.4-15.4,1.8-23.1,4.9c-8.8,3.5-18.8,4.1-28.3,6.1c-7.7,1.6-15.4,3.5-23.1,5.2c-2.8,0.6-5.6,0.8-8.3,1.7
	c-8.2,2.6-16.3,5.5-24.4,8.2c-0.8,0.3-1.7,0.2-2.5,0.4c-8.6,2.4-17.2,4.5-25.7,7.2c-6.9,2.2-13.4,5.8-20.3,7.4
	c-8,1.8-16.4,2.1-24,5.6c-8.3,3.8-16.7,7-26.1,6.4c-0.7,0.1-1.3,0.3-1.9,0.6c-10.3,4.5-20.5,9.2-31.9,10.2c-1,0.3-1.9,0.6-2.8,1.1
	c-7.3,2.7-14.5,5.3-21.8,7.9c-12.3,4.4-24.7,8.6-37,13c-4.5,1.6-8.9,3.6-13.4,5.2c-6.8,2.5-13.5,5.2-20.4,7.3
	c-8.3,2.6-16.9,4.2-25.2,7c-8.8,3-17.3,6.9-25.9,10.4c-0.8,0.3-1.5,0.7-2.3,1.1c-5.8,2.5-11.4,5.2-17.3,7.3
	c-11.4,4.2-22.9,8-34.3,12c-0.8,0.3-1.4,0.9-2.1,1.2c-6.4,2.8-12.9,5.7-19.4,8.4c-1.7,0.7-3.5,1-5.2,1.7c-6.6,2.6-13.1,5.3-19.7,8
	c-10.2,4.2-20.4,8.6-30.6,12.8c-10.9,4.5-21.8,8.9-32.6,13.5c-6.4,2.7-12.5,6-19,8.5c-7.3,2.9-14.8,5.3-22.2,8v-103
	c10.6,7.1,21.3,14.2,31.8,21.4c4.2,2.9,8.2,3.3,12.5,0.7c1.3-0.8,2.6-1.5,3.9-2.2c20.1-8.9,40.2-17.7,60.2-26.7c2-0.9,3.5-3,5.2-4.5
	c-1.8-1.5-3.7-2.8-5.7-4.1c-0.9-0.6-2.3-0.5-3.4-0.6c-7.6-1-15.3-1.5-22.7-3c-10.3-2.1-20.2-3.2-30.8,0.2
	C34.3,1531.6,17,1535.5,0,1540z"/>
<path class="st2" d="M0,1020c10,4,20,8.1,30.1,12.1c11.2,4.4,22.4,8.4,33.5,12.9c11.4,4.6,22.7,9.4,34.1,14.2
	c0.5,0.2,0.9,0.5,1.3,0.7c9.3,4.2,11.9,2.4,11.9-7.8v-61c0-1.7-0.1-3.3,0.1-5c0.5-6.2,2.9-8.1,8.8-6.5c11.5,3.2,23.1,6.4,34.5,9.9
	c14.8,4.6,29.4,9.6,44.2,14.1c4.9,1.5,7.2,4.5,7.3,9.4c0.3,14,0.8,28,1,41.9c0.4,42,0.7,83.9,1.1,125.9c0.3,27.8,0.6,55.6,1,83.4
	c0.1,5.8,0.8,11.6,0.9,17.4c0,5.5-2.7,7.4-8,6.5c-21.5-3.5-43-7-64.6-10.2c-10.9-1.6-12.7-3.7-13.4-14.6
	c-1.1-15.9-2.9-31.8-4.4-47.7c-1.8-17.5-3.6-35.1-5.5-52.6c-1.8-16.9-3.7-33.7-5.3-50.6c-0.7-6.6-4-10.8-10.3-12.6
	c-13.6-4-27.2-7.9-40.7-12.1c-15.3-4.7-30.5-9.7-45.7-14.5c-4-1.2-8-2.3-12-3.4L0,1020z"/>
<path class="st3" d="M0,1739c8.1-3.8,16.2-7.6,24.4-11.2c3.3-1.4,6.9-2,10.2-3.5c8.6-4.1,17-8.5,25.5-12.7c8.1-4,16.2-8,24.3-12
	c0.9-0.4,1.9-0.6,2.9-0.5c5.1,0.2,9.7-0.6,13.9-4.1c3-2.4,7.1-3.3,10.8-4.9c6.1-2.6,12.2-5.1,18.2-7.7c6.7-2.9,13.4-5.9,20.2-8.7
	c5.2-2.1,10.5-3.7,15.7-5.7c7.7-3,15-7.3,22.9-9.1c10.1-2.3,18.5-7.8,27.9-11.3c1.8-0.7,4.3-0.1,6.2,0.6c3.2,1.2,6.4,2.6,9.4,4.2
	c9.5,4.6,18.8,9.5,28.4,13.8c6.1,2.8,12.7,4.6,19,7c4.3,1.6,8.5,3.3,12.7,5.3c5.7,2.6,11.2,5.8,16.9,8.3c10,4.3,20.1,8.3,30.2,12.5
	c5.2,2.2,10.4,4.4,16.8,7.2c-5.3,2.7-9.3,4.7-13.4,6.8c-4.5,2.3-9,4.8-13.5,7.1c-10,5.1-19.6,10.8-28.4,18c-4,3.3-9.7,4.7-14.6,7
	c-2.8,1.3-5.7,2.6-8.4,4.1c-7,4.1-13.8,8.4-20.9,12.4c-7.7,4.4-15.2,9.4-23.4,12.4c-8.8,3.2-13.5,11.7-22.1,14.7
	c-2.8,0.8-5.6,1.9-8.2,3.2c-2.1,1.2-3.8,3.2-5.6,4.9H0V1739z"/>
<path class="st3" d="M0,862c4.5,1.2,8.9,2.2,13.4,3.5c7.2,2,14.3,4.2,21.5,6.4c4.4,1.3,8.8,2.8,13.3,4.2c1.1,0.3,2.2,0.8,3.3,1.1
	c9.5,2.1,19,3.9,28.5,6.3c7.7,2,15.2,4.7,22.8,7.1c3.6,1.1,7.3,2.1,11,3.2c8.1,2.4,16.1,4.9,24.2,7.2c4.3,1.2,8.7,2.1,13,3.2
	c7.7,2,15.4,3.8,23.1,6.1c10.3,3,20.5,6.6,30.9,9.5c3.8,1,5.2,2.7,5.2,6.5c-0.1,23,0,46-0.1,69c0,5.7-1.1,6.1-6.2,4
	c-4.2-1.8-8.8-2.8-13.1-4.2c-6.3-2-12.6-4.1-18.9-6.2c-9.4-3.1-18.8-6.4-28.4-9.2c-8.9-2.6-17.9-4.7-26.9-7.1
	c-5.3-1.4-8.7,0.4-10,5.8c-0.4,2.3-0.6,4.6-0.6,6.9c0,20.8,0,41.7,0,62.5c0,2.1-0.3,4.2-0.4,7c-3.5-1.1-6.5-1.7-9.3-2.9
	c-9.9-4.2-19.7-8.7-29.6-12.8c-7-2.9-14.3-5.2-21.4-8c-10.3-4-20.6-8.3-31-12.3c-4.6-1.8-9.4-3.1-14.2-4.6L0,862z"/>
<path class="st2" d="M0,1351c16.8,0,33.7,0.1,50.5,0c42-0.3,84-0.6,125.9-1c27.8-0.2,55.6-0.9,83.4-0.9c139.3-0.4,278.6-0.7,417.9-1
	c4.2,0,8.4,0.7,12.6,1.1v1.5c-9.6,1.4-19.2,3.5-28.8,4.2c-21.7,1.4-43.5,2.1-65.3,3.2c-21.9,1.2-43.8,2.7-65.7,3.9
	c-15.6,0.8-31.2,1.2-46.9,2c-19.4,1.1-38.8,2.6-58.2,3.8c-17.1,1.1-34.2,1.9-51.3,3.2c-20.1,1.4-40.1,3.3-60.2,4.7
	c-12.3,0.9-24.6,1.3-36.9,2.2c-14.9,1.1-29.8,2.4-44.8,3.6c-12.4,0.9-24.9,1.5-37.3,2.4c-15.8,1.2-31.5,2.5-47.2,3.7
	c-10.9,0.8-21.9,1.6-32.8,2.3c-28.2,1.7-56.4,3.3-84.7,5c-10.1,0.6-20.2,1.4-30.4,2.1L0,1351z"/>
<path class="st2" d="M513,0c2.7,6.1,5.3,12.2,8.2,18.1s3,8.9-2.4,12.4c-10.1,6.5-12.9,15.4-12,26.9c0.8,9.3-0.1,18.7,0.3,28
	c0.2,4.3,1.2,8.5,2.9,12.4c3.5,8.4,7.7,16.6,11.6,24.9c1.7,3.6,1.4,6.9-1,10.3c-3.5,4.9-6.5,10-9.6,15.2s-2.6,7.5,1.9,11.2
	c8.3,6.9,16.7,13.7,25.1,20.6c1.8,1.4,3.5,3,5.1,4.7c2.8,3.2,2.8,6.8-0.7,9.1c-11.6,7.8-23.5,15.1-35.2,22.7
	c-3.4,2.2-6.4,4.9-9.5,7.4c3.3,2.2,6.4,4.7,9.9,6.7c2.5,1.5,5.7,2.1,8.1,3.8c3.1,2.2,2.6,4.9-1,6.4c-2.1,0.9-4.5,1.1-6.8,1.7
	c-11.5,3.2-23.1,6.3-34.6,9.6c-2.6,0.8-5,2.5-7.5,4c-6.1,3.6-12.2,7.4-18.4,11c-3.4,2-6.8,2.2-9.2-1.4c-5.9-8.7-11.8-17.3-17.2-26.3
	c-1.1-1.8-0.8-4.9-0.2-7.2c4.7-15.8,9.6-31.5,14.4-47.3c1.5-4.8,4.4-7.1,9.5-7c6.8,0.2,13.7,0.2,20.5-0.1c2.1-0.1,5.2-1.1,5.8-2.5
	c0.8-1.8,0.2-4.9-0.9-6.9c-3.6-6.2-7.4-12.2-11.7-18c-4.1-5.5-6.2-11.2-4.6-18.1c1.1-4.7,1.3-9.6,1.8-14.3s3.4-6.8,8.1-7
	c10.8-0.5,12.2-2.1,12.2-12.8c0-8.7-0.4-17.3,0.1-26c0.5-9-3-16.4-7.4-23.8s-8.2-15.2-12.4-22.8c-2.2-4-0.8-6.9,2.9-8.6
	c10.1-4.9,20.4-9.7,30.6-14.5c1.5-0.7,2.8-1.7,4.2-2.5L513,0z"/>
<path class="st3" d="M0,1648c7.4-2.7,14.9-5.1,22.2-8c6.4-2.6,12.6-5.8,19-8.5c10.8-4.6,21.7-9,32.6-13.5
	c10.2-4.2,20.4-8.6,30.6-12.8c6.5-2.7,13.1-5.4,19.7-8c1.7-0.7,3.5-1,5.2-1.7c6.5-2.8,12.9-5.6,19.4-8.4c0.8-0.3,1.4-1,2.1-1.2
	c11.4-4,23-7.8,34.3-12c5.9-2.2,11.6-4.9,17.3-7.3c0.8-0.3,1.5-0.8,2.3-1.1c8.6-3.5,17.1-7.4,25.9-10.4c8.2-2.8,16.8-4.5,25.2-7
	c6.9-2.1,13.6-4.8,20.4-7.3c4.5-1.7,8.9-3.6,13.4-5.2c12.3-4.4,24.6-8.6,37-13c7.3-2.6,14.6-5.3,21.8-7.9c0.9-0.5,1.8-0.8,2.8-1.1
	c11.4-1,21.6-5.7,31.9-10.2c0.6-0.3,1.2-0.5,1.9-0.6c9.4,0.7,17.8-2.6,26.1-6.4c7.7-3.5,16-3.9,24-5.6c7-1.5,13.5-5.2,20.3-7.4
	c8.5-2.7,17.1-4.9,25.7-7.2c0.8-0.2,1.7-0.2,2.5-0.4c8.1-2.7,16.2-5.6,24.4-8.2c2.7-0.9,5.5-1.1,8.3-1.7c7.7-1.7,15.4-3.6,23.1-5.2
	c9.5-2,19.5-2.6,28.3-6.1c7.7-3.1,15.3-3.4,23.1-4.9c8.8-1.6,17.2-5.4,25.8-8.1c2.4-0.7,4.8-1.2,7.3-1.6c9.1-1.8,18.5-2.5,27.1-5.5
	c9.2-3.2,18.8-3.8,27.9-6.1c9.8-2.3,19.8-3.8,29.8-4.5c4.3-0.3,8.4-2.8,12.6-4.3l-0.2-1.4c-5.2,0-10.4-0.1-15.5,0
	c-9.3,0.2-18.6,0.4-27.9,1c-3.2,0.2-6.4,1.4-9.5,2.2c-2.2,0.6-4.5,1.6-6.7,1.7c-12.5,0.5-25,0.4-37.4,1.2c-9.5,0.6-19,2.3-28.5,3.3
	c-6.6,0.7-13.2,1.4-19.9,1.5c-6.9,0.1-13.9,1.1-20.6,2.9c-7.9,2.1-16.5,1.4-24.7,2.3c-5.5,0.6-11,2.2-16.5,2.9
	c-6.1,0.9-12.2,1.1-18.3,2c-5.6,0.9-11.2,2.3-16.8,3.5c-2.5,0.7-5.1,1.2-7.7,1.4c-11.8,0.5-23.6,0.3-35.4,1.2
	c-5.8,0.4-11.4,3.2-17.2,4.1c-16.8,2.6-33.6,5.8-50.7,5.7c-1-0.1-2,0-2.9,0.4c-8.3,5.2-17.7,3.3-26.7,4.5c-1.3,0.2-2.9,0-3.9,0.7
	c-7.9,4.9-16.6,4.2-25.2,4.4c-4.9,0.1-9.9,1.2-14.7,2c-5.4,0.9-10.8,1.9-16.1,3c-3.7,0.8-7.3,1.9-11,2.8c-3.5,1-7.1,1.6-10.7,2.1
	c-7.8,0.6-15.6,0.7-23.4,1.1c-1.2,0.1-2.3,0.3-3.4,0.6c-4.8,1.2-9.5,2.7-14.2,3.8c-8,1.8-16,3.9-24.1,4.9
	c-12.9,1.6-25.1,7.5-38.5,5.9c-1.9-0.2-4,1.4-6.1,2c-3.8,1-7.7,1.9-11.5,2.8c-1.6,0.3-3.3,0.2-4.9,0.6c-7.9,1.8-16,3-23.5,5.9
	c-6.9,2.8-14.4,4.2-21.9,3.9c-10.3-0.5-19.3,4.3-29.1,5.7c-8.7,1.4-17.4,3.3-25.9,5.8c-10,2.7-19.8,6-29.6,9.1v-9
	c22.9-5.7,45.8-11.7,68.8-17.1c8.6-2,17.5-2.5,26.1-4.1c9.7-1.8,19.2-4.2,28.8-6.2c16.9-3.5,33.9-6.8,50.8-10.2
	c19.2-3.9,38.4-8.1,57.8-11.6c10.3-1.9,20.8-2.6,31.2-3.8c1.7-0.2,3.3-0.3,5-0.6c11.3-2,22.5-4,33.8-5.9c15.1-2.6,30.2-5,45.2-7.7
	c20.1-3.7,40.4-5.9,60.8-7.9c10.9-1.1,21.5-4.3,32.4-6c7.2-1.1,14.6-1.1,21.8-1.9c8.4-0.9,16.8-2.2,25.1-3.3
	c9.9-1.3,19.8-2.4,29.7-3.6c22.5-2.8,44.9-5.8,67.4-8.4c11.2-1.3,22.5-1.8,33.8-2.6c25.2-2,50.4-3.8,75.5-6.1
	c22.7-2,45.3-4.5,68-6.6c10.1-0.9,20.2-1.6,30.3-2.3c24.5-1.7,49-3.4,73.6-5.1c10.6-0.7,21.2-1.4,31.8-1.9
	c8.2-0.4,16.5-0.6,24.8-0.9c1,0.1,1.9,0.2,2.8,0.4l0.2,1.4c-2.6,0.2-5.1,0.6-7.6,1.1c-3.3,0.8-6.4,2-9.7,2.9c-2.5,0.9-5,1.6-7.6,2
	c-10.1,1-20.3,1.2-30.3,2.6c-9.7,1.4-19.2,4.4-28.9,5.7c-21.7,2.9-43.5,5.2-65.3,7.8c-3.6,0.3-7.3,1-10.8,2
	c-8.9,3.1-18.1,3.8-27.4,4.6c-9.5,0.8-18.8,4-28.2,5.8c-16.5,3.2-33.2,5.6-49.5,9.3c-27.6,6.2-55,13.2-82.4,19.7
	c-23.8,5.7-47.8,10.7-71.4,17.1c-19.7,5.3-39.1,12.2-58.6,18.2c-6.8,2.1-13.8,3.6-20.7,5.7c-8.5,2.6-17,5.6-25.5,8.2
	c-3.5,1-7.1,1.6-10.6,2.4c-4,0.9-8.2,1.4-12.1,2.7c-7.6,2.3-15.1,5-22.7,7.5c-24.2,7.9-48.8,14.6-72,25.1
	c-7.8,3.5-16.4,5.4-24.6,8.1c-11,3.7-22.1,7.4-33,11.4c-16.1,6-32.1,12.2-48,18.5c-19.9,7.9-39.7,16.2-59.6,24.1
	c-5.4,2.2-11.1,3.5-16.4,5.8c-15.3,6.5-30.5,13.2-45.8,19.8c-16.6,7.1-33.1,14.2-49.6,21.2c-2.3,1-4.8,1.2-7.2,1.7V1648z"/>
<path class="st2" d="M0,1111c15.7,4.2,31.5,8.2,47.2,12.6c10.1,2.8,20,6.2,30,9.3c4.6,1.4,6.8,4.4,6.8,9.2c0,0.3,0,0.7,0,1
	c0.3,32.8,0.6,65.6,1,98.3c0.2,12,0.7,23.9,0.9,35.9c0.1,1.8,0,3.7-0.3,5.5c-0.7,4.3-3,6.3-7.7,5.4c-11.6-2.1-23.3-4.1-34.9-5.8
	c-14.3-2-28.7-3.7-43-5.6L0,1111z"/>
<path class="st3" d="M1294,1793l3,4h-240c2.3-2.7,4.6-5.6,7-8.2c14.6-15.4,29.1-30.9,43.8-46.2c3.5-3.7,7.9-6.6,11.6-10.1
	c3.1-2.9,6.1-6.1,8.7-9.5c2.2-2.9,4.4-3.7,7.6-1.7c1.7,1,3.6,1.7,5.5,2.2c8.4,2.3,16.9,4.2,25.1,6.9c3.2,1,5.7,3.8,8.6,5.8
	c1.6,1.2,3.3,2.2,5.1,2.9c8.1,2.4,16.4,3.8,24.2,6.9s15.2,7.7,22.8,11.7c1,0.5,1.8,1.6,2.9,2c5.6,2.2,11.3,4.2,17,6.3l2,1
	c1.7,0.9,3.5,1.7,5.2,2.6c6.6,3.8,13.2,7.6,19.8,11.4l2,1l11,10h5L1294,1793z"/>
<path class="st3" d="M0,1403c1.9-0.5,3.9-0.8,5.9-1c17-0.7,33.9-1.1,50.8-2.2c12.8-0.8,25.5-2.5,38.2-3.5c6.1-0.5,12.3,0,18.5-0.4
	c17.6-1.2,35.1-2.7,52.7-4.1c5.3-0.4,10.6-0.8,15.9-0.8c18.2-0.2,36.3-0.6,54.1-4.7c3-0.7,6.3-0.3,9.5-0.4c21-0.2,41.9-0.3,62.6-4.7
	c3.2-0.7,6.6-0.2,10-0.4c19.8-0.6,39.6-0.3,59.1-4.7c1.3-0.2,2.7-0.3,4-0.3c26.5-0.4,52.8-1.6,79.2-4.6c18.8-2.1,37.9-0.8,56.9-1.6
	c14.3-0.6,28.5-2.1,42.8-3.2c7.1-0.6,14.2-1.6,21.4-1.6c22.8-0.2,45.6-0.4,68.1-4.8c1-0.2,2-0.2,3-0.2c20.5-0.3,40.9-0.7,61.4-1
	c1.8,0,3.6,0,5.4,0l0.5,1.4c-1.5,0.8-3,1.9-4.6,2.3c-1.8,0.3-3.6,0.4-5.5,0.3c-20.8,0.3-41.6,0.7-62.4,1c-1.7,0-3.3,0.2-4.9,0.7
	c-12.7,4.3-25.9,3.9-39,4.3c-7.8,0.2-15.6,1-23.4,1.7c-15.6,1.4-31.4,2-46.9,4.6c-10.3,1.6-20.7,2.6-31.1,3
	c-7.8,0.3-15.6,0.9-23.4,1.7c-3.8,0.4-7.5,1.4-11.3,2c-4.4,0.7-8.8,1.7-13.3,1.9c-13.8,0.5-27.6,0.7-41.4,1.1
	c-1.8,0.2-3.6,0.5-5.4,0.9c-9,1.3-18,2.7-27.1,4c-6.4,0.9-12.8,2-19.2,2.8c-7.2,0.9-14.5,1.5-21.8,2.3c-4,0.4-8,0.7-11.9,1.3
	c-7,1.1-14,2.5-21.1,3.5c-10.8,1.6-21.6,3.2-32.5,4.5c-6.6,0.8-13.4,0.2-19.8,1.7c-15.6,3.7-31.5,4.2-47.4,5.3
	c-7.5,0.5-14.8,3.4-22.3,4.6c-15.1,2.4-30.2,4.3-45.3,6.3c-10.2,1.4-20.3,3.3-30.5,3.5c-7.7,0.2-15.4-2-23.1-3.1
	c-5.4-0.8-10.8-1.5-16.3-2.3c-10.8-1.6-21.6-3.4-32.4-4.8c-12.1-1.6-24.3-3-36.5-4.4L0,1403z"/>
<path class="st2" d="M0,680c10.4,3.4,20.9,6.5,31.2,10.2c17.4,6.1,34.7,12.4,52,18.9c13.6,5.1,26.9,10.6,40.5,15.7
	c12.9,4.8,26,9.3,38.9,14.1c10.9,4.1,21.8,8.2,32.6,12.5c5.1,2,7.9,6,7.8,11.7c-0.1,5.3,0.1,10.7,0,16c-0.2,8.1-3.1,10.1-10.8,7.8
	c-25.2-7.6-50.3-15.3-75.5-22.8c-17.9-5.3-35.9-10-53.8-15.2c-13-3.7-25.8-7.9-38.7-11.7c-8-2.3-16.1-4.2-24.1-6.2L0,680z"/>
<path class="st2" d="M0,365c4.5,2.1,9.1,4.1,13.5,6.3c16.8,8.4,33.6,16.7,50.4,25.2c23.1,11.8,46.1,23.7,69.2,35.5
	c11.4,5.8,22.8,11.6,34.4,16.9c4.5,2.1,6.4,5.1,6.4,9.7c0.1,8,0.2,16,0,24c-0.1,5.6-2.7,7.2-7.9,4.9c-14.9-6.9-29.8-14.1-44.7-21
	c-3.5-1.6-7.2-2.5-10.7-4.1c-11.4-5.1-22.7-10.3-34.1-15.4C59,438.9,41.3,431,23.7,423.1c-5.6-2.5-11-5.4-16.6-8
	c-2.3-0.9-4.7-1.6-7.1-2.1V365z"/>
<path class="st2" d="M0,574v-28c3.8,1.2,7.6,2.3,11.4,3.7c6.6,2.5,13.1,5.3,19.6,8c5.8,2.4,11.6,4.8,17.3,7.2
	c6.8,2.9,13.6,6,20.4,8.8c5.6,2.3,11.5,3.9,17,6.4c13.4,6,26.6,12.7,40.1,18.4c10.6,4.5,21.7,7.9,32.5,11.8c0.8,0.3,1.5,0.7,2.2,1
	c6.9,3.2,13.9,6.1,20.6,9.6c3.4,1.8,8.3,4.2,8.9,7.1c1.3,6.3,0.6,13.2,0.1,19.8c-0.1,1-3.1,3-4.2,2.7c-5.8-1.8-11.5-3.9-17-6.4
	c-13.5-5.9-26.9-11.9-40.4-17.9c-3.7-1.7-7.3-3.8-11.2-5.1c-10-3.3-20.7-4.8-29.2-12c-0.6-0.3-1.2-0.6-1.8-0.7
	c-9.5-3.6-19-7.2-28.4-10.9c-6.3-2.5-12.3-6-18.8-7.5c-7.9-1.8-14.6-5.8-21.8-8.9C11.6,578.6,5.8,576.4,0,574z"/>
<path class="st2" d="M0,574c5.8,2.4,11.6,4.6,17.4,7.1c7.2,3.1,13.9,7.2,21.8,8.9c6.5,1.5,12.5,5,18.8,7.5
	c9.4,3.7,18.9,7.3,28.4,10.9c0.6,0.1,1.3,0.4,1.8,0.7c8.4,7.2,19.2,8.7,29.2,12c3.9,1.3,7.4,3.4,11.2,5.1
	c13.4,6,26.9,12.1,40.4,17.9c5.6,2.4,11.2,4.6,17,6.4c1.1,0.3,4.1-1.6,4.2-2.7c0.4-6.6,1.2-13.5-0.1-19.8c-0.6-2.9-5.5-5.3-8.9-7.1
	c-6.7-3.5-13.7-6.5-20.6-9.6c-0.8-0.3-1.5-0.8-2.2-1c-10.9-3.9-21.9-7.4-32.5-11.8c-13.5-5.7-26.7-12.4-40.1-18.4
	c-5.5-2.5-11.4-4.1-17-6.4c-6.9-2.8-13.6-5.9-20.4-8.8c-5.8-2.5-11.6-4.8-17.4-7.2c-6.5-2.7-13-5.4-19.6-8
	c-3.7-1.4-7.5-2.5-11.3-3.7v-9c7.5,2.6,15.2,4.8,22.5,7.9c17.2,7.2,34.1,15.1,51.2,22.3c13.8,5.8,27.8,11,41.6,16.8
	c22.5,9.5,45,19.2,67.5,28.9c3.4,1.4,6.8,2.7,10.2,4.1c4.2,1.7,6.1,4.9,6,9.4c-0.1,10,0,20-0.1,30c-0.1,5.5-2.1,7.2-7.2,5.3
	c-10.9-4-21.8-8.2-32.6-12.6c-19.6-7.9-39.1-16-58.6-24.1c-11.4-4.7-22.6-9.8-34-14.5c-12.7-5.2-25.6-10.1-38.4-15.3
	c-7.2-2.9-14.3-6.3-21.5-9.3c-2.2-0.8-4.4-1.4-6.6-1.9V574z"/>
<path class="st2" d="M0,1540c17-4.5,34.3-8.4,51-13.8c10.6-3.4,20.4-2.3,30.8-0.2c7.5,1.5,15.2,2,22.7,3c1.2,0.2,2.5,0.1,3.4,0.6
	c2,1.3,3.9,2.6,5.7,4.1c-1.7,1.5-3.2,3.6-5.2,4.5c-20,9-40.2,17.8-60.2,26.7c-1.4,0.6-2.7,1.4-3.9,2.2c-4.3,2.7-8.3,2.3-12.5-0.7
	c-10.5-7.3-21.2-14.3-31.8-21.5V1540z"/>
<path class="st2" d="M524,557c0,112.5,0,224.9,0,337.3c0,97.3,0,194.6,0,291.9c0,11.2-1.7,12.3-12.3,8.3
	c-11.5-4.3-23.1-8.5-34.7-12.6c-5.1-1.8-7.4-4.8-7.1-10.4c0.4-8.5,0.1-17,0.1-25.5c5.1-3,6.1-7.6,6.1-13.2
	c-0.1-243.5-0.1-487-0.1-730.5c0.1-2.2,0-4.3-0.2-6.5c-0.8-6.4-4.4-10.6-10.4-11.9c-8.4-1.9-16.9-3.6-25.3-5.4
	c-6-1.3-11.9-2.5-17.9-3.9s-11.2,0.8-13.2,6.7c-0.8,2.7-1.1,5.5-1,8.3c0,273.5,0,547,0,820.5c-0.1,2.5,0.1,5,0.5,7.5
	c0.9,4.4,3.8,7.2,8.3,7.3c6.2,0.3,12.3,0.1,18.4-0.5c10.2-1.3,20.3-3.3,30.4-4.9c9.1-1.5,10.3-0.4,10.4,8.6c0,16.5,0,33,0,49.5
	c0,6.4,2.1,8.9,8.4,9.5c4.6,0.4,9.3,0.1,13.9,0c54.7-0.3,109.3-0.6,163.9-0.9c19.3-0.1,38.6-0.7,57.9-1.1c16.7-0.3,33.3-0.7,49.9-1
	c1,0,2-0.1,3-0.2c15-0.9,30.1-2.2,45.1-2.7c7.8-0.3,15.6,0.8,23.4,0.8c18.8,0.1,37.7,0,56.5,0c10.8,0,10.8,0,10.8,11
	c0,7.6-0.4,8.1-7.8,8c-34.8-0.8-69.6,1.3-104.4-1.7c-22.5-2-45.2-1.8-67.8-2.2c-27-0.5-54-0.8-80.9-1c-72.3-0.6-144.6,1.5-216.8-2.9
	c-21.4-1.3-42.9-0.8-64.4-1.2c-1.8,0-3.7-0.1-5.5,0c-4.5,0.3-6.4-1.8-6.3-6.2c0.1-15,0.1-30,0-45c0-4,1.6-5.8,5.5-6.2
	c6.3-0.5,12.6-1.3,18.9-1.6c4.6-0.1,8.8-2.5,11.2-6.5c0.8-1.2,0.1-4.9-0.7-5.2c-6-2.2-5.8-6.9-5.8-11.9c0-63.6,0-127.3,0-190.9
	c0-224.7,0-449.3,0-674c0-3,0.2-6,0.8-8.9c1.2-6,3-11.9,4.1-17.9c2.2-12.1,4-24.2,6-36.3c0.7-4.6,4.1-4.5,7.6-4.4
	c3.9,0.1,4.4,2.6,4.5,5.8c0.2,6.1,0.1,12.3,0.8,18.4c1.2,10.9,2.9,21.7,4.3,32.6c1,7.4,3.5,10,11.6,10.1c13.5,0.2,27,0.2,40.5,0
	c8.3-0.1,11.7-3.8,11.7-12.2s-0.4-16.7,0.2-25c0.4-3.9,1.9-7.6,4.4-10.5c5.4-6,11.6-11.4,17.7-16.9c1.7-1.4,3.6-2.3,5.7-2.7
	c10.7-2.4,14.9,1,14.9,11.8v272.3L524,557z"/>
<path class="st2" d="M838,1034.5c0-12.7,0.1-25.3,0-38c-0.3-25-0.6-50-1-74.9c-0.3-20.8-0.7-41.6-1-62.4c-0.4-28-0.7-56-1-83.9
	c-0.4-33-0.7-66-1-98.9c-0.3-32.8-0.7-65.6-1-98.4c-0.1-8.5,1.3-10.5,9.1-13.3c19-6.7,37.9-13.4,56.9-20.1c9.1-3.2,11.7-1,12,8.7
	c0.6,25.6,1.2,51.2,2.1,76.9c0.8,22.6,2,45.2,2.9,67.8c0.8,18.3,1.3,36.6,2,54.9c0.9,21.6,2.1,43.2,3,64.8c0.8,18,1.2,35.9,2,53.9
	c1.1,24.4,2.6,48.8,3.8,73.2c0.5,10.1,0.7,20.3,1.2,30.4c0.2,5.1-2.3,8.5-6.3,11.2c-5.4,3.6-10.5,7.6-16.1,10.9
	c-4.3,2.3-7.1,6.8-7.3,11.7c-0.2,1.8-0.3,3.7-0.3,5.5c-0.4,39-0.7,77.9-1.1,116.9c-0.2,17.3-0.6,34.6-1,51.9
	c-0.3,13.3-0.7,26.6-1,39.9c0,1.5-0.2,3-0.4,4.5c-1.3,6.8-2.8,8-9.9,7.4c-12.1-1-24.2-2-36.3-3c-5.5-0.4-8-3-8.3-8.6
	c0-0.7,0-1.3,0-2c-0.3-44-0.7-88-1-131.9c-0.1-18.3,0-36.6,0-54.9L838,1034.5z"/>
<path class="st2" d="M598,615c0-70.7-0.1-141.3,0.2-212c0-7.9-3-12.5-9.8-15.4c-12.8-5.5-25.8-10.8-38.3-17
	c-12.2-6-13.2-4.8-13.1-19.2c0.1-23,0-46,0-69c-0.1-1.5-0.1-3,0.1-4.5c0.6-1.5,1.3-2.9,2.2-4.2c1.3,0.8,3.1,1.2,4,2.3
	c5.7,7,9.4,14.8,8.7,24.3c-0.5,7.5-0.6,15-0.9,22.4c-0.2,5.2,2.3,8.9,6.5,11.6c7.1,4.7,14.1,9.4,21.4,13.8c2.1,1.3,5.4,2.5,7.1,1.7
	s2.7-4.3,2.8-6.6c0.3-8,0-16,0.2-24c0.1-6.8,2.7-9.4,9.4-9.5c4.7,0,9.3,0,14,0c9.2,0,10.5,1.3,10.5,10.8c0,13.3,0,26.7,0,40
	c0.3,78.6,0.7,157.3,1,235.9c0.3,61.8,0.6,123.6,1,185.4c0.4,73.8,0.7,147.6,1,221.4c0.3,69.1,0.7,138.3,1,207.4
	c0,1.8,0.1,3.7,0,5.5c-0.3,4.9-2.5,7-7.4,6.4c-16.7-1.8-33.4-3.7-50.1-5.4c-6-0.6-11.9-1-17.9-1.4c-5.5-0.4-7.4-2.3-7.5-7.8
	c0-1.5,0-3,0-4.5v-378c0-8.2,3.1-10.3,10.5-6.8c8,3.7,15.8,7.8,23.8,11.6c4.2,2,8.4,4.1,12.7,5.9c4.5,1.9,6.6,0.5,7-4.4
	c0.2-2,0.1-4,0.1-6C598,755.6,598,685.3,598,615z"/>
<path class="st2" d="M1292.9,698c-0.6,5.1-1.5,10.1-1.8,15.2c-0.5,10.1-0.9,20.3-1.1,30.4c-0.4,23.6-0.7,47.3-1.1,70.9
	c-0.3,20.2-0.7,40.3-1,60.4c-0.3,23.5-0.7,47-1,70.4c-0.3,19.6-0.6,39.3-1,58.9c-0.3,17.5-0.7,35-1,52.4c-0.3,14.5-0.7,29-1,43.4
	c-0.4,20.3-0.7,40.6-1,60.9c-0.3,21.1-0.7,42.3-1,63.4c-0.3,19.6-0.7,39.3-1,58.9c-0.2,8.3-2.6,10.6-10.9,10.6c-3.3,0-6.7,0-10-0.1
	c-3.9-0.1-6.2-2.2-6.7-6c-0.2-2.2-0.4-4.3-0.3-6.5c0-270.7,0-541.3,0-811.9c0-11.9,5-22,14.5-28c8.9-5.6,19.3-9.2,30.8-7.9
	c4.7,0.6,9.8-1.2,14.6-2.3c4.2-1,8.2-2.6,12.4-3.7s6.6,0.6,7.4,5c0.2,1,0.2,2,0.2,3c0.3,24,0.8,48,1,71.9c0.4,40,0.7,80,1,119.9
	c0.3,33.8,0.6,67.6,1,101.4c0.3,32.7,0.7,65.3,1,97.9c0.3,22.7,0.7,45.3,1,67.9c0.3,24,0.7,48,1,71.9c0.4,29.5,0.7,59,1,88.4
	c0.4,35.8,0.7,71.6,1,107.4c0.3,30.3,0.6,60.6,1,90.9c0.2,11.3,0.8,22.6,0.9,33.9c0.1,9.4-2.3,11.1-11.4,9.2
	c-4.1-0.8-8.2-1.4-12.3-1.7c-6.6-0.7-9-3-9.1-9.4c-0.7-25.5-1.4-50.9-2-76.4c-0.7-29.8-1.4-59.6-2-89.4c-0.4-22.6-0.6-45.3-1-67.9
	c-0.5-25.6-1.3-51.2-2-76.9c-0.7-28-1.3-55.9-2-83.9c-0.6-22.6-1.3-45.2-2-67.9c-0.3-9-0.7-18-0.9-26.9c-0.4-18.3-0.5-36.6-1.1-54.9
	c-0.4-12.8-1.3-25.6-2-38.4c-0.2-1.7-0.5-3.5-1-5.2L1292.9,698z M1263,871.4v402c0,1.7,0,3.3,0,5c0,2.8,0,5.5,4,5.5s4-2.7,4-5.5
	c0.3-24,0.6-48,1-71.9c0.1-5.6,0.9-11.3,0.7-16.9c-0.1-4.3-1.3-8.6-2-12.9c-0.2-1.1-0.4-2.8,0.1-3.2c5.9-4.2,4.9-10.7,5-16.4
	c0.5-76.1,0.9-152.3,1.1-228.4c0-4.5-0.1-9,0.3-13.5c1.5-17,4.2-33.9,3.8-51.2c-0.6-27.8-0.2-55.6-0.2-83.5c0-16.8-0.1-33.6,0-50.4
	c0.3-34.5,0.7-69,1-103.4c0-1.8,0.5-3.9-0.3-5.4c-1.9-3.9-0.3-6.3,2.1-9.2c2.9-3.7,6.3-6.5,10.9-5.5s6.1,5.4,6.2,9.8
	c0.4,10.3,0.8,20.5,1,30.8c0.4,14.6,0.7,29.3,1,43.9c0,2.2,0.2,4.3,0.4,6.5c1.2,13.9,3.2,27.8,3.4,41.7c0.8,38,0.8,76,1.1,113.9
	c0.1,13.2,0,26.3,0,39.5c0,2.2,0.1,4.3,0.3,6.5c1.2,13.9,3.1,27.8,3.5,41.7c0.8,27.1,0.9,54.3,1.1,81.4c0.3,47.3-1.4,94.6,3.1,141.7
	c0.4,4.1-0.2,8.8,4.7,11.3c0.6,0.3,0.3,4.4-0.5,4.9c-3.4,1.8-3.3,4.7-3.2,7.7c0.3,26,0.7,52,1,77.9c0.1,6.1,0.1,12.2,0.4,18.4
	c0,1.1,1.1,3.2,1.6,3.2c4.2-0.2,8.7-0.3,12.6-1.7c1.4-0.5,2.3-4.4,2.3-6.8c0.1-29.5,0.2-59,0.1-88.5c0-5.6-0.4-11.3-0.9-16.9
	c-0.5-5.9-1.8-11.8-2-17.8c-0.6-18.6-0.8-37.3-1.1-55.9c-0.2-10.7,0-21.3,0-32c0-1.7,0.4-3.9-0.5-4.9c-3.6-3.7-5.4-7.1-0.7-11.3
	c0.3-0.2,0.1-1,0.1-1.4c0.1-6,0.1-12,0.1-18c0-35.5,0-71,0-106.5c0-51.8,0-103.7,0-155.5c0-2,0-4-0.1-6c-1.3-23.1-3.4-46.1-3.7-69.2
	c-0.8-64-0.8-127.9-1.2-191.9c-0.1-19.2,0-38.3,0-57.5c0.1-1.5,0.1-3-0.2-4.5c-0.3-1-1.6-2.6-2.3-2.5c-3.7,0.6-7.4,1.4-11,2.4
	c-3.3,0.9-6.5,2.4-9.8,2.8c-6.7,0.7-13.7-0.1-20.2,1.5c-5.4,1.3-13.4,1.3-13.1,10.5c0,0.5-0.3,1-0.8,1.2c-5.9,2.5-4.8,7.7-4.8,12.4
	C1263,603.5,1263,737.5,1263,871.4z"/>
<path class="st4" d="M524,557l-5,3.5V288.3c0-10.7-4.3-14.2-14.9-11.8c-2.1,0.4-4.1,1.4-5.7,2.7c-6.1,5.4-12.3,10.8-17.7,16.9
	c-2.5,3-4.1,6.7-4.4,10.5c-0.6,8.3-0.2,16.6-0.2,25s-3.4,12.1-11.7,12.2c-13.5,0.2-27,0.2-40.5,0c-8.1-0.1-10.7-2.7-11.6-10.1
	c-1.4-10.9-3.1-21.7-4.3-32.6c-0.7-6.1-0.6-12.3-0.8-18.4c-0.1-3.1-0.6-5.7-4.5-5.8c-3.5-0.1-6.9-0.2-7.6,4.4
	c-2,12.1-3.8,24.2-6,36.3c-1.1,6-2.9,11.9-4.1,17.9c-0.6,2.9-0.8,5.9-0.8,8.9c0,224.7,0,449.3,0,674c0,63.6,0,127.3,0,190.9
	c0,5-0.1,9.7,5.8,11.9c0.8,0.3,1.5,4.1,0.7,5.2c-2.4,3.9-6.6,6.4-11.2,6.5c-6.3,0.3-12.6,1.1-18.9,1.6c-3.8,0.3-5.5,2.2-5.5,6.2
	c0.1,15,0.1,30,0,45c0,4.4,1.8,6.5,6.3,6.2c1.8-0.1,3.7,0,5.5,0c21.5,0.3,43-0.1,64.4,1.2c72.2,4.4,144.5,2.3,216.8,2.9
	c27,0.2,54,0.5,80.9,1c22.6,0.4,45.3,0.2,67.8,2.2c34.8,3,69.6,0.9,104.4,1.7c7.5,0.2,7.8-0.3,7.8-8c0-11,0-11-10.8-11
	c-18.8,0-37.7,0.1-56.5,0c-7.8,0-15.6-1.1-23.4-0.8c-15.1,0.6-30.1,1.8-45.1,2.7c-1,0.1-2,0.1-3,0.2c-16.7,0.3-33.3,0.7-49.9,1
	c-19.3,0.4-38.6,0.9-57.9,1.1c-54.7,0.4-109.3,0.7-163.9,0.9c-4.6,0-9.3,0.4-13.9,0c-6.3-0.6-8.4-3.2-8.4-9.5c-0.1-16.5,0-33,0-49.5
	c0-8.9-1.3-10-10.4-8.6c-10.1,1.6-20.2,3.7-30.4,4.9c-6.1,0.6-12.3,0.8-18.4,0.5c-4.6-0.1-7.4-2.9-8.3-7.3c-0.4-2.5-0.6-5-0.5-7.5
	c0-273.5,0-547,0-820.5c-0.1-2.8,0.2-5.6,1-8.3c2-5.9,7.1-8.2,13.2-6.7s11.9,2.7,17.9,3.9c8.4,1.8,16.9,3.5,25.3,5.4
	c6,1.4,9.6,5.6,10.4,11.9c0.2,2.2,0.3,4.3,0.2,6.5c0,243.5,0,487,0.1,730.5c0,5.6-1,10.2-6.1,13.2c-0.5-2.4-0.8-4.9-1-7.4
	c0-244,0-488,0-731.9c0-1.5,0-3,0.1-4.5c0.9-9.1-0.8-11.7-9.7-13.5c-12.2-2.5-24.5-4.9-36.8-7.2c-4.8-0.9-7.2,1.2-7.6,6.1
	c-0.1,1.8-0.1,3.7-0.1,5.5v814.4c0,1,0,2,0,3c0.1,8.4,2.5,10.2,10.8,8.9c14.9-2.5,29.9-4.9,44.9-7.1c9-1.4,11.3,0.7,11.3,9.6
	c0,16.3,0,32.7,0,49c0,9,2.2,11.2,11.3,11.1c31.6-0.3,63.3-0.6,94.9-1c20.3-0.2,40.6-0.7,60.9-1c26.7-0.4,53.3-0.7,79.9-1
	c25.7-0.3,51.3-0.7,76.9-1c21.5-0.3,43-0.6,64.4-1c11.8-0.2,23.6-0.7,35.4-0.9c5.6-0.1,7.6,1.7,8,7.3c0.3,4.8,0.3,9.7,0.1,14.5
	c-0.2,7.2-2.1,9.3-9.4,9.2c-20.2-0.2-40.3-0.7-60.4-1c-34.3-0.4-68.6-0.7-102.9-1c-24.8-0.3-49.6-0.6-74.4-1
	c-19.3-0.3-38.6-0.6-57.9-1c-17.1-0.3-34.3-0.7-51.4-1c-19.5-0.3-39-0.7-58.4-1c-25.6-0.4-51.3-0.7-76.9-1
	c-21.1-0.3-42.3-0.6-63.4-1c-6.7-0.1-9.5-2.6-9.6-9.4c-0.2-17.3-0.2-34.7,0-52c0.1-6.4,2.9-9,9.1-9.6c4.5-0.4,9-0.7,13.4-1
	c5.9-0.4,7.8-3,7.1-8.9c-0.4-3.1-0.7-6.3-0.7-9.4c0-53.7,0-107.3,0-161c0-229.9,0-459.9,0.1-689.8c0.2-10.5,1.2-20.9,3-31.2
	c2.5-15.9,5.8-31.8,8.8-47.6c1.2-6.2,4.1-8.2,10.6-7.9c8.7,0.4,10.7,2.1,11.5,9.1c1.9,16.4,3.7,32.7,6,49c1.2,8.9,2.9,9.8,11.8,9.8
	c10.3,0,20.7,0,31,0c6.8,0,8.1-0.6,8.6-7.5c0.7-8.6,0.6-17.3,0.5-26c-0.3-4.5,1.5-9,4.9-12c5.9-5.6,11.7-11.3,17.3-17.3
	c4.8-5.1,10.7-5.9,17-5.2c15.7,1.5,15,0.5,14.9,15C524.1,376.4,524,466.7,524,557z"/>
<path class="st2" d="M1143.3,1274.7c-1.1-3.3-2.7-6.5-3.3-9.9c-3.6-18.8-7.1-37.6-10.6-56.4c-1.8-9.8-3.6-19.7-5.6-29.4
	c-0.4-2.1-1.3-4.1-2.6-5.8c-9-10.1-17.8-20.3-29.8-27c-2.2-1.2-4.5-2.1-7-2.6c-4.3-0.8-7.9,2.1-8.4,6.5c-0.1,1.8-0.2,3.7-0.1,5.5
	c0,41.8,0,83.6,0,125.5c0,2.2,0,4.3-0.2,6.5c-0.5,4.5-2.8,6.6-7.6,6.7c-21,0.5-41.9,1.2-62.8,2c-14.8,0.5-29.6,1.4-44.3,1.9
	c-7,0.2-9-1.8-8.9-8.8c0.6-31.6,1.3-63.2,2-94.8c0.4-15.6,1.5-31.2,1.8-46.8c0.1-5.9,2.4-9.5,7.5-11.6c10.6-4.4,21.2-8.8,31.8-13
	c20.9-8.2,41.9-16.1,62.8-24.3c6.7-2.6,12.2-2.6,18.6,2c19.3,13.9,39.2,27,58.8,40.4c5.9,4,11.8,8.1,17.9,11.8
	c5.5,3.3,6.2,8.3,5.6,13.8c-1.4,11.2-3.1,22.4-4.3,33.7c-2.3,21-4.3,42-6.6,63c-0.4,3.8-1.2,7.6-1.9,11.3L1143.3,1274.7z
	 M1139.1,1207.3l2.1,0.1c1.9-4.7,4.9-9.2,5.6-14.1c1.3-9.5,1.5-19.2,1.9-28.8c0-1.6-0.7-3.1-1.9-4.2c-3.2-2.5-6.8-4.6-10.2-6.8
	c-4.3-2.8-8.6-5.5-12.8-8.5c-5.8-4.1-11.4-8.5-17.4-12.4c-3.2-2.1-7.3-3.1-10.4-5.3c-8.2-6-16.1-12.5-24.3-18.6
	c-1-0.8-3.5-1.2-4.1-0.6c-2.5,2.6-5,2.6-8.1,1.3c-1.1-0.4-2.8,0.4-4.2,0.9c-3.2,1.4-6.2,3.1-9.4,4.4c-5,1.9-10.5,3-15.2,5.5
	c-7.5,4-14.8,7.9-23.4,9.1c-3.5,0.5-6.8,2.4-10.1,3.8c-4.4,1.8-9,2.7-13.2,5.7s-10.2,4.2-15.6,5.6c-3.8,1-4.4,3.2-4.5,6.5
	c-0.3,29-0.7,57.9-0.9,86.9c-0.1,14.2,0,28.3,0,42.5c0,7.8,3.5,9.8,10.7,6.5c1.9-0.9,4.3-0.8,6.5-0.7c2.5,0.1,4.9,0.8,7.4,0.8
	c12.3,0.1,24.7,0,37,0.1c10.5,0.1,21,0.6,31-3.3c1.4-0.4,2.9-0.7,4.4-0.6c7-0.4,7-0.4,7-7.6c0-38.6-0.1-77.3,0.1-115.9
	c0-6.6,1.3-13.2,2.3-19.8c0.6-3.9,3.2-5.7,7-6.8c11-3.4,19.3,2.6,27,8.3c7.8,5.9,14.1,13.7,21.2,20.6c1.9,1.8,5.1,3,5.8,5.1
	c2.3,7.1,4.2,14.3,5.7,21.6C1137.3,1194.8,1138,1201.1,1139.1,1207.3z"/>
<path class="st3" d="M1310.4,1386.6c-5.4,1.8-10.7,4.6-16.2,5.1c-17.2,1.6-33.8,4.6-50.2,10.2c-9.4,3.2-19.6,3.7-29.3,6
	c-19.6,4.6-39.1,9.6-58.6,14.2c-4.7,1.1-9.7,0.8-14.3,2.2c-16.5,5.3-34,5.4-50.3,12.3c-10.8,4.6-23.2,5.7-34.8,8.5
	c-4.2,1-8.2,2.8-12.3,3.9c-19.2,5.3-37.5,13.5-57.5,16.3c-10.3,1.5-20.2,5.4-30.3,8.3c-17.2,4.9-34.5,10-51.7,14.9
	c-14.2,4.1-28.6,7.8-42.7,12.3c-11.6,3.7-22.9,8.1-34.3,12.3c-6.4,2.3-12.7,4.9-19.2,7.1c-19.6,6.9-39,14.4-59,20.2
	c-12.6,3.7-24.7,10.1-38.6,8.7c-17-1.8-34.1-3-51.2-4.4c-11.6-1-23.2-1.8-34.8-2.7c-13.8-1.1-27.5-2.2-41.3-3.3
	c-4-0.3-8-0.3-11.9-0.7c-3.4-0.3-6.7-1.1-11.3-1.9c1.7-2,2.3-3.3,3.3-3.8c2.8-1.4,5.7-3,8.7-3.8c17.2-4.1,34.4-7.8,51.5-11.8
	c23-5.3,46-10.8,69-16c32.2-7.2,64.4-14.1,96.6-20.9c17.9-3.8,36-6.6,53.9-10.3c21.2-4.4,42.3-9.1,63.4-13.8
	c12-2.7,23.9-6.1,35.9-8.7c5.8-1.3,12-1,17.8-2.2c22.3-4.6,44.5-9.7,66.8-14.3c7-1.4,14.2-1.8,21.2-3c16.2-2.8,32.4-6,48.6-8.8
	c25.1-4.4,50.2-8.6,75.2-13.1c22.4-4.1,44.7-9,67.1-12.9c20.8-3.6,41.7-6.4,62.6-9.3c2.4-0.3,5.1,0.5,7.6,0.8L1310.4,1386.6z"/>
<path class="st3" d="M467,1560.8l37.6,5.7c19.4,2.9,38.9,5.8,58.3,8.7c15.5,2.4,30.9,4.9,46.3,7.3c4.3,0.7,8.6,0.9,12.8,1.6
	c1.4,0.4,2.5,1.4,3,2.7c0.2,0.7-1,2.5-2,3c-4,1.9-8.2,3.4-12.3,5.1c-5.2,2-10.5,3.9-15.6,6.1c-7.3,3.1-14.5,6.5-21.8,9.7
	c-7.9,3.5-15.9,6.8-23.7,10.4c-9.2,4.2-18.4,8.5-27.5,13c-10,4.9-20.2,9.5-29.8,15c-9,5.2-17.5,4-26.8,0.8
	c-14.1-4.9-28.6-8.8-42.9-13.2c-13.2-4-26.4-8.2-39.6-12.2c-16.5-5-33.1-9.9-49.7-14.9c-1.1-0.3-2.5-0.3-3.3-0.9
	c-1.6-1.4-3.1-3-4.6-4.6c1.6-1.2,3-3,4.7-3.6c20.4-7.1,40.9-14.3,61.5-20.8c12.5-4,25.3-7.1,38-10.3c10.3-2.7,20.7-5.1,31-7.5
	C462.5,1561.2,464.5,1561.1,467,1560.8z"/>
<path class="st2" d="M768.8,1710.9c-6-3-11.9-6.1-17.8-9c-6.4-3.2-12.9-6.2-19.3-9.3c-1.4-0.6-2.7-1.2-4-2c-4-2.6-4.3-4.7-0.9-7.9
	c2.1-1.9,4.4-3.6,6.8-5c11.6-6.9,23.3-13.5,34.9-20.4c17-10.1,34-20.2,50.8-30.7c5.3-3.3,9.6-3.3,14.7-0.2
	c8.6,5.1,17.4,9.8,26.1,14.6c7.2,4,7.4,7.3,0.5,11.8c-24,15.5-48.1,30.9-72.2,46.4c-3.8,2.4-7.3,5.3-11.1,7.7
	C774.9,1708.4,772.1,1709.4,768.8,1710.9z"/>
<path class="st2" d="M1091.6,1552.5c10.3,2.4,20.7,4.8,31,7.2c4.2,1,8.4,2.2,12.4,3.7c1.6,0.6,3,1.8,3.7,3.3
	c0.3,0.9-1.4,2.9-2.7,3.7c-6.6,3.8-13.3,7.4-20.1,10.9c-10.8,5.6-21.7,10.9-32.4,16.6c-7,3.7-13.5,6.1-21.8,3.2
	c-9.1-3.2-18.7-4.8-28-7.4c-1.8-0.6-3.3-1.8-4.2-3.6c-0.4-1.1,0.9-3.7,2.2-4.4c17.1-10.3,34.3-20.4,51.5-30.4
	C1085.8,1554,1088.7,1553.5,1091.6,1552.5z"/>
<path class="st3" d="M1249,1767l-2-1L1249,1767z"/>
<path class="st3" d="M1276,1782l-2-1L1276,1782z"/>
<path class="st3" d="M1294,1793l-2-1L1294,1793z"/>
<path class="st2" d="M1263,871.4c0-134,0-268,0-402c0-4.7-1.2-9.9,4.8-12.4c0.4-0.3,0.7-0.7,0.8-1.2c-0.3-9.2,7.6-9.2,13.1-10.5
	c6.5-1.5,13.4-0.7,20.2-1.5c3.3-0.4,6.5-1.9,9.8-2.8c3.6-1,7.3-1.8,11-2.4c0.7-0.1,2,1.5,2.3,2.5c0.3,1.5,0.3,3,0.2,4.5
	c0,19.2-0.1,38.3,0,57.5c0.3,64,0.3,128,1.2,191.9c0.3,23.1,2.4,46.2,3.7,69.2c0.1,2,0.1,4,0.1,6c0,51.8,0,103.7,0,155.5
	c0,35.5,0,71,0,106.4c0,6-0.1,12-0.1,18c0,0.5,0.1,1.2-0.1,1.4c-4.7,4.1-2.8,7.6,0.7,11.3c0.9,0.9,0.5,3.2,0.5,4.9
	c0,10.7-0.1,21.3,0,32c0.2,18.7,0.5,37.3,1.1,55.9c0.2,5.9,1.4,11.8,2,17.8c0.5,5.6,0.9,11.2,0.9,16.9c0.1,29.5,0.1,59-0.1,88.5
	c0,2.3-0.9,6.2-2.3,6.8c-3.9,1.4-8.3,1.4-12.6,1.7c-0.5,0-1.6-2-1.6-3.2c-0.3-6.1-0.3-12.2-0.4-18.4c-0.3-26-0.7-52-1-77.9
	c0-3-0.2-5.9,3.2-7.7c0.8-0.4,1.1-4.6,0.5-4.9c-4.9-2.6-4.3-7.2-4.7-11.3c-4.5-47.2-2.8-94.5-3.1-141.7c-0.2-27.1-0.3-54.3-1.1-81.4
	c-0.4-13.9-2.3-27.8-3.5-41.7c-0.2-2.2-0.3-4.3-0.3-6.5c0-13.2,0.1-26.3,0-39.5c-0.3-38-0.4-76-1.1-113.9
	c-0.3-13.9-2.3-27.8-3.4-41.7c-0.2-2.2-0.3-4.3-0.4-6.5c-0.3-14.6-0.6-29.3-1-43.9c-0.3-10.3-0.6-20.5-1-30.8
	c-0.2-4.4-1.6-8.8-6.2-9.8s-8,1.8-10.9,5.5c-2.3,2.9-3.9,5.4-2.1,9.2c0.7,1.5,0.3,3.6,0.3,5.4c-0.3,34.5-0.7,69-1,103.4
	c-0.1,16.8,0,33.6,0,50.4c0,27.8-0.5,55.6,0.2,83.5c0.4,17.3-2.3,34.1-3.8,51.2c-0.4,4.5-0.3,9-0.3,13.5
	c-0.3,76.1-0.7,152.3-1.1,228.4c0,5.7,0.9,12.2-5,16.4c-0.5,0.4-0.2,2.1-0.1,3.2c0.6,4.3,1.8,8.6,2,12.9c0.2,5.6-0.7,11.3-0.7,16.9
	c-0.4,24-0.7,48-1,71.9c0,2.8-0.1,5.5-4,5.5s-4-2.7-4-5.5c0-1.7,0-3.3,0-5L1263,871.4z"/>
<path class="st2" d="M1139.1,1207.3c-1-6.3-1.8-12.6-3.1-18.8c-1.5-7.3-3.4-14.5-5.7-21.6c-0.7-2.1-3.9-3.3-5.8-5.1
	c-7-6.9-13.4-14.8-21.2-20.6c-7.6-5.8-16-11.8-27-8.3c-3.8,1.2-6.4,2.9-7,6.8c-0.9,6.6-2.2,13.2-2.3,19.8
	c-0.2,38.6-0.1,77.3-0.1,115.9c0,7.2,0,7.2-7,7.6c-1.5,0-3,0.2-4.4,0.6c-10.1,3.9-20.6,3.4-31,3.3c-12.3-0.1-24.7,0-37-0.1
	c-2.5,0-4.9-0.8-7.4-0.8c-2.2,0-4.6-0.2-6.5,0.7c-7.2,3.3-10.7,1.3-10.7-6.5c0-14.2-0.1-28.3,0-42.5c0.3-29,0.7-57.9,0.9-86.9
	c0-3.4,0.6-5.5,4.5-6.5c5.4-1.4,11.3-2.5,15.6-5.6s8.8-3.9,13.2-5.7c3.3-1.4,6.6-3.3,10.1-3.8c8.6-1.2,15.9-5.1,23.4-9.1
	c4.7-2.5,10.2-3.5,15.2-5.5c3.2-1.2,6.2-3,9.4-4.4c1.3-0.6,3.1-1.4,4.2-0.9c3.1,1.3,5.6,1.3,8.1-1.3c0.6-0.6,3.1-0.2,4.1,0.6
	c8.2,6.1,16,12.6,24.3,18.6c3.1,2.3,7.2,3.2,10.4,5.3c5.9,3.9,11.6,8.3,17.4,12.4c4.2,2.9,8.5,5.7,12.8,8.5c3.4,2.2,7,4.3,10.2,6.8
	c1.2,1.1,1.9,2.6,1.9,4.2c-0.4,9.6-0.6,19.3-1.9,28.8c-0.7,4.9-3.7,9.4-5.6,14.1L1139.1,1207.3z"/>
</svg>
