<?xml version="1.0" encoding="utf-8"?>
<!-- Generator: Adobe Illustrator 25.2.1, SVG Export Plug-In . SVG Version: 6.00 Build 0)  -->
<svg version="1.1" id="Layer_1" xmlns="http://www.w3.org/2000/svg" xmlns:xlink="http://www.w3.org/1999/xlink" x="0px" y="0px"
	 viewBox="0 0 1200 900" style="enable-background:new 0 0 1200 900;" xml:space="preserve">
<style type="text/css">
	.st0{fill:#E1E9F1;}
	.st1{opacity:0.5;}
	.st2{opacity:0.45;}
	.st3{clip-path:url(#SVGID_2_);}
	.st4{fill:#88A9C5;}
	.st5{opacity:0.29;fill:#88A9C5;enable-background:new    ;}
	.st6{fill:#5583AC;}
	.st7{fill:#084B87;}
	.st8{opacity:0.52;}
	.st9{fill:#FFFFFF;}
	.st10{opacity:0.5;fill:#FFFFFF;enable-background:new    ;}
	.st11{opacity:0.33;fill:#FFFFFF;enable-background:new    ;}
	.st12{opacity:0.4;fill:#FFFFFF;enable-background:new    ;}
</style>
<g id="Bg">
	<rect y="0" class="st0" width="1200" height="900"/>
</g>
<g id="Object" class="st1">
	<g class="st2">
		<g>
			<defs>
				<rect id="SVGID_1_" y="-300" width="1200" height="1200"/>
			</defs>
			<clipPath id="SVGID_2_">
				<use xlink:href="#SVGID_1_"  style="overflow:visible;"/>
			</clipPath>
			<g class="st3">
				<rect x="333.6" y="338.2" class="st4" width="105" height="417.8"/>
				<rect x="350.7" y="308.2" class="st4" width="70.7" height="175.6"/>
				<rect x="366.5" y="289.2" class="st4" width="39.2" height="97.4"/>
				<polygon class="st4" points="399.4,339.3 372.7,339.3 372.7,272.9 382.3,272.9 391.9,272.9 399.4,272.9 				"/>
				<polygon class="st4" points="384.3,310.4 381.4,310.4 381.4,244 382.5,244 383.5,244 384.3,244 				"/>
				<polygon class="st4" points="390.7,287.4 387.8,287.4 387.8,221 388.9,221 389.9,221 390.7,221 				"/>
				<rect x="330.8" y="337.1" class="st4" width="110.6" height="4.5"/>
				<rect x="348.1" y="306.1" class="st4" width="75.8" height="4.3"/>
				<rect x="363.6" y="287.4" class="st4" width="43.7" height="3.3"/>
				<rect x="357.2" y="315.4" class="st5" width="3.3" height="18.4"/>
				<rect x="366.3" y="315.4" class="st5" width="3.3" height="18.4"/>
				<rect x="375.4" y="315.4" class="st5" width="3.3" height="18.4"/>
				<rect x="384.5" y="315.4" class="st5" width="3.3" height="18.4"/>
				<rect x="393.6" y="315.4" class="st5" width="3.3" height="18.4"/>
				<rect x="402.7" y="315.4" class="st5" width="3.3" height="18.4"/>
				<rect x="411.8" y="315.4" class="st5" width="3.3" height="18.4"/>
				<rect x="342.8" y="354.8" class="st4" width="7.9" height="21.8"/>
				<rect x="358.5" y="354.8" class="st5" width="7.9" height="21.8"/>
				<rect x="374.2" y="354.8" class="st4" width="7.9" height="21.8"/>
				<rect x="390" y="354.8" class="st4" width="7.9" height="21.8"/>
				<rect x="405.7" y="354.8" class="st4" width="7.9" height="21.8"/>
				<rect x="421.4" y="354.8" class="st4" width="7.9" height="21.8"/>
				<rect x="342.8" y="388.9" class="st4" width="7.9" height="21.8"/>
				<rect x="358.5" y="388.9" class="st4" width="7.9" height="21.8"/>
				<rect x="374.2" y="388.9" class="st4" width="7.9" height="21.8"/>
				<rect x="390" y="388.9" class="st5" width="7.9" height="21.8"/>
				<rect x="405.7" y="388.9" class="st4" width="7.9" height="21.8"/>
				<rect x="421.4" y="388.9" class="st4" width="7.9" height="21.8"/>
				<rect x="342.8" y="422.9" class="st4" width="7.9" height="21.8"/>
				<rect x="358.5" y="422.9" class="st4" width="7.9" height="21.8"/>
				<rect x="374.2" y="422.9" class="st4" width="7.9" height="21.8"/>
				<rect x="390" y="422.9" class="st4" width="7.9" height="21.8"/>
				<rect x="405.7" y="422.9" class="st5" width="7.9" height="21.8"/>
				<rect x="421.4" y="422.9" class="st5" width="7.9" height="21.8"/>
				<rect x="342.8" y="456.9" class="st5" width="7.9" height="21.8"/>
				<rect x="358.5" y="456.9" class="st4" width="7.9" height="21.8"/>
				<rect x="374.2" y="456.9" class="st4" width="7.9" height="21.8"/>
				<rect x="390" y="456.9" class="st4" width="7.9" height="21.8"/>
				<rect x="405.7" y="456.9" class="st4" width="7.9" height="21.8"/>
				<rect x="421.4" y="456.9" class="st4" width="7.9" height="21.8"/>
				<rect x="342.8" y="490.9" class="st4" width="7.9" height="21.8"/>
				<rect x="358.5" y="490.9" class="st5" width="7.9" height="21.8"/>
				<rect x="374.2" y="490.9" class="st4" width="7.9" height="21.8"/>
				<rect x="390" y="490.9" class="st5" width="7.9" height="21.8"/>
				<rect x="405.7" y="490.9" class="st4" width="7.9" height="21.8"/>
				<rect x="421.4" y="490.9" class="st4" width="7.9" height="21.8"/>
				<rect x="342.8" y="525" class="st4" width="7.9" height="21.8"/>
				<rect x="358.5" y="525" class="st4" width="7.9" height="21.8"/>
				<rect x="374.2" y="525" class="st4" width="7.9" height="21.8"/>
				<rect x="390" y="525" class="st4" width="7.9" height="21.8"/>
				<rect x="405.7" y="525" class="st4" width="7.9" height="21.8"/>
				<rect x="421.4" y="525" class="st5" width="7.9" height="21.8"/>
				<rect x="342.8" y="559" class="st4" width="7.9" height="21.8"/>
				<rect x="358.5" y="559" class="st5" width="7.9" height="21.8"/>
				<rect x="374.2" y="559" class="st5" width="7.9" height="21.8"/>
				<rect x="390" y="559" class="st4" width="7.9" height="21.8"/>
				<rect x="405.7" y="559" class="st4" width="7.9" height="21.8"/>
				<rect x="421.4" y="559" class="st4" width="7.9" height="21.8"/>
				<rect x="342.8" y="593" class="st4" width="7.9" height="21.8"/>
				<rect x="358.5" y="593" class="st4" width="7.9" height="21.8"/>
				<rect x="374.2" y="593" class="st4" width="7.9" height="21.8"/>
				<rect x="390" y="593" class="st4" width="7.9" height="21.8"/>
				<rect x="405.7" y="593" class="st5" width="7.9" height="21.8"/>
				<rect x="421.4" y="593" class="st4" width="7.9" height="21.8"/>
				<rect x="342.8" y="627" class="st4" width="7.9" height="21.8"/>
				<rect x="358.5" y="627" class="st5" width="7.9" height="21.8"/>
				<rect x="374.2" y="627" class="st4" width="7.9" height="21.8"/>
				<rect x="390" y="627" class="st4" width="7.9" height="21.8"/>
				<rect x="405.7" y="627" class="st4" width="7.9" height="21.8"/>
				<rect x="421.4" y="627" class="st4" width="7.9" height="21.8"/>
				<rect x="342.8" y="661.1" class="st4" width="7.9" height="21.8"/>
				<rect x="358.5" y="661.1" class="st4" width="7.9" height="21.8"/>
				<rect x="374.2" y="661.1" class="st4" width="7.9" height="21.8"/>
				<rect x="390" y="661.1" class="st5" width="7.9" height="21.8"/>
				<rect x="405.7" y="661.1" class="st4" width="7.9" height="21.8"/>
				<rect x="421.4" y="661.1" class="st5" width="7.9" height="21.8"/>
				<rect x="342.8" y="695.1" class="st5" width="7.9" height="21.8"/>
				<rect x="358.5" y="695.1" class="st4" width="7.9" height="21.8"/>
				<rect x="374.2" y="695.1" class="st5" width="7.9" height="21.8"/>
				<rect x="390" y="695.1" class="st4" width="7.9" height="21.8"/>
				<rect x="405.7" y="695.1" class="st4" width="7.9" height="21.8"/>
				<rect x="421.4" y="695.1" class="st4" width="7.9" height="21.8"/>
				<rect x="28.7" y="354.1" class="st4" width="168.7" height="352"/>
				<rect x="23.9" y="348" class="st4" width="178.3" height="10"/>
				<rect x="34.4" y="335.3" class="st4" width="157.4" height="47.3"/>
				<rect x="46.4" y="315.9" class="st4" width="62.3" height="51.7"/>
				<polygon class="st4" points="82.5,330.5 46.4,330.5 46.4,303.3 72.3,303.3 				"/>
				<rect x="61" y="280.7" class="st4" width="3.5" height="60.6"/>
				<circle class="st4" cx="62.7" cy="277.6" r="3.1"/>
				<polygon class="st4" points="789,437.3 789,264.3 760,264.3 760,217.9 749.6,217.9 749.6,150 692.6,150 692.6,100 687.5,100 
					687.5,150 676.4,150 676.4,87.4 671.3,87.4 671.3,150 635.2,150 635.2,264.3 616.6,264.3 616.6,437.3 600.7,437.3 600.7,752.4 
					800.2,752.4 800.2,437.3 				"/>
				<rect x="-207.1" y="726.4" class="st4" width="2207" height="52.5"/>
				<polygon class="st6" points="1092,766.1 994.2,766.1 1032.3,570.4 1092,570.4 				"/>
				<rect x="-286.3" y="773.7" class="st6" width="2317.2" height="151.7"/>
				<polygon class="st6" points="1011.9,403.9 1011.9,317.2 980.5,317.2 980.5,284.2 963.7,284.2 963.7,256.5 957.8,256.5 
					957.8,208.9 956.3,208.9 956.3,256.5 950.4,256.5 950.4,284.2 933.6,284.2 933.6,317.2 902.5,317.2 902.5,403.9 896,403.9 
					896,561.4 847.7,561.4 847.7,740.8 896,740.8 944.3,740.8 1018.1,740.8 1018.1,403.9 				"/>
				<polygon class="st6" points="1192.2,503.5 1040.3,503.5 1040.3,506.3 1047.2,506.3 1047.2,763.1 1185.3,763.1 1185.3,506.3 
					1192.2,506.3 				"/>
				<rect x="365" y="567.5" class="st6" width="134.7" height="213.9"/>
				<rect x="113.1" y="677.1" class="st6" width="231.6" height="104.3"/>
				<rect x="237.2" y="444" class="st6" width="50.8" height="256.2"/>
				<rect x="248.4" y="375.7" class="st6" width="2.6" height="139.3"/>
				<rect x="257" y="386.3" class="st6" width="2.6" height="139.3"/>
				<rect x="241.1" y="428.2" class="st6" width="31.1" height="34.3"/>
				<rect x="335.6" y="605.8" class="st6" width="88.5" height="175.6"/>
				<rect x="521.5" y="419.9" class="st6" width="166.1" height="361.5"/>
				<rect x="537.8" y="407.5" class="st6" width="133.5" height="60.2"/>
				<rect x="508.6" y="427.5" class="st6" width="191.8" height="4.2"/>
				<rect x="491.4" y="598.9" class="st6" width="78.3" height="182.6"/>
				<rect x="-69.2" y="592" class="st6" width="89.8" height="189.5"/>
				<rect x="-40.1" y="540.4" class="st6" width="178.9" height="241"/>
				<rect x="-50.5" y="531.2" class="st6" width="194" height="9.2"/>
				<rect x="-32.2" y="506.1" class="st6" width="78.6" height="48.9"/>
				<rect x="72.1" y="506.1" class="st6" width="13.2" height="29.7"/>
				<rect x="98.6" y="506.1" class="st6" width="14.5" height="29.7"/>
				<rect x="671.2" y="700.2" class="st6" width="935" height="81.2"/>
				<path class="st6" d="M1531.6,475.4c-5.8,0-10.7,4.5-11.2,10.3l-13.2-0.4c0-1.3,0-2.6,0-3.9c0-16.1-2.8-32.1-8.2-47.3l11-4
					c2.5,5.7,9.1,8.3,14.7,5.8c5.7-2.5,8.3-9.1,5.8-14.7c-2.5-5.7-9.1-8.3-14.7-5.8c-5.2,2.3-8,8.1-6.3,13.6l-11,4
					c-6.3-17-16-32.5-28.3-45.8l8.6-8.1c4.5,4.3,11.7,4.2,16-0.3c4.3-4.5,4.2-11.7-0.3-16c-4.5-4.3-11.7-4.2-16,0.3
					c-4,4.2-4.2,10.6-0.5,15.1l-8.6,8.1c-0.9-0.9-1.8-1.9-2.7-2.8c-12.8-12.8-28-23-44.7-30l4.7-11.5c6,1.9,12.4-1.3,14.3-7.3
					c1.9-6-1.3-12.4-7.3-14.3c-6-1.9-12.4,1.3-14.3,7.3c-1.8,5.5,0.8,11.5,6.1,13.9l-4.7,11.5c-14.9-6-30.8-9.4-46.8-10l0.5-15.8
					h0.4c6.2,0,11.2-5.1,11.2-11.2c0-6.2-5.1-11.2-11.2-11.2c-6.2,0-11.2,5.1-11.2,11.2c0,5.6,4.1,10.3,9.6,11.1l-0.6,15.9
					c-1.3,0-2.6,0-3.9,0c-15.5,0-30.8,2.5-45.5,7.6l-4.5-12.9c5.7-2.3,8.4-8.9,6.1-14.6c-2.3-5.7-8.9-8.4-14.6-6.1
					c-5.7,2.3-8.4,8.9-6.1,14.6c2.2,5.3,7.9,8.1,13.4,6.5l4.5,12.9c-17.7,6.3-33.9,16.2-47.6,29l-8.2-8.8c4.2-4.6,3.9-11.7-0.7-15.8
					c-4.6-4.2-11.7-3.9-15.8,0.7s-3.9,11.7,0.7,15.8c4.2,3.9,10.6,3.9,14.9,0.2l8.2,8.8c-0.9,0.9-1.9,1.8-2.8,2.7
					c-11.4,11.4-20.8,24.7-27.6,39.3l-10.4-4.8c0.4-1.2,0.6-2.4,0.6-3.6c-0.1-6.2-5.1-11.2-11.3-11.1s-11.2,5.1-11.1,11.3
					c0.1,6.2,5.1,11.2,11.3,11.1c4.4,0,8.3-2.6,10.1-6.6l10.4,4.8c-7.5,16.5-11.7,34.3-12.3,52.4l-13.4-0.4
					c-0.3-6.2-5.6-10.9-11.8-10.5c-6.2,0.3-10.9,5.6-10.5,11.8c0.3,6.2,5.6,10.9,11.8,10.5c5.7-0.3,10.2-4.9,10.5-10.5l13.4,0.4
					c0,1.3,0,2.6,0,3.9c0,16.1,2.8,32.1,8.2,47.3l-11,4c-2.5-5.7-9.1-8.3-14.7-5.8c-5.7,2.5-8.3,9.1-5.8,14.7
					c2.5,5.7,9.1,8.3,14.7,5.8c5.2-2.3,8-8.1,6.3-13.6l11-4c6.3,17,16,32.5,28.3,45.8l-8.6,8.1c-4.5-4.3-11.7-4.2-16,0.3
					s-4.2,11.7,0.3,16c4.5,4.3,11.7,4.2,16-0.3c4-4.2,4.2-10.6,0.5-15.1l8.6-8.1c0.9,0.9,1.8,1.9,2.7,2.8c8.6,8.7,18.4,16.1,29,22.2
					l-67.8,124.9H1220v3.5h-6v7.1h309.6V730h-5.9v-3.6h-12.1l-67.8-124.9c9.1-5.3,17.6-11.5,25.3-18.7l11,11.7
					c-4.7,4.1-5.2,11.2-1.2,15.9c4.1,4.7,11.2,5.2,15.9,1.2s5.2-11.2,1.2-15.9c-3.8-4.4-10.2-5.2-14.9-1.9l-11-11.8
					c0.9-0.9,1.9-1.8,2.8-2.7c11.4-11.4,20.7-24.7,27.6-39.3l12.2,5.6c-0.2,0.9-0.4,1.8-0.3,2.8c0,6.2,5.1,11.2,11.3,11.2
					s11.2-5.1,11.2-11.3s-5.1-11.2-11.3-11.2c-4.7,0-8.8,2.9-10.5,7.3l-12.1-5.6c7.5-16.5,11.7-34.3,12.3-52.4l13.2,0.4
					c0.2,6.2,5.3,11.1,11.5,10.9c6.2-0.2,11.1-5.3,10.9-11.5C1542.7,480.2,1537.7,475.3,1531.6,475.4L1531.6,475.4z M1503.6,481.4
					c0,1.3,0,2.5,0,3.8l-38.8-1.3c0-0.8,0-1.7,0-2.5c0-11.1-1.9-22.1-5.7-32.5l36.5-13.4C1500.9,450.2,1503.6,465.7,1503.6,481.4
					L1503.6,481.4z M1462.9,483.9l-86.5-2.9c0-0.6-0.1-1.1-0.3-1.6l81.2-29.9c3.7,10.2,5.6,21,5.6,31.9
					C1462.9,482.2,1462.9,483,1462.9,483.9L1462.9,483.9z M1274.9,479l86.5,2.8c0,0.6,0.1,1.1,0.3,1.6l-81.2,29.9
					c-3.7-10.2-5.6-21-5.6-31.9C1274.8,480.6,1274.8,479.8,1274.9,479L1274.9,479z M1374.8,476.7l63.1-59.1
					c8.3,8.9,14.7,19.4,19,30.7l-81.2,29.9C1375.5,477.7,1375.1,477.2,1374.8,476.7L1374.8,476.7z M1374,475.8
					c-0.5-0.4-1-0.8-1.6-1.1l32.9-80c12,5.1,22.9,12.5,31.9,22L1374,475.8z M1371.2,474.2c-0.5-0.1-0.9-0.2-1.4-0.3l2.8-86.5
					c10.8,0.4,21.4,2.7,31.5,6.7L1371.2,474.2z M1368.5,473.9c-0.5,0-1,0.1-1.5,0.2l-28.8-81.6c9.9-3.4,20.2-5.1,30.7-5.1h2.4
					L1368.5,473.9z M1365.8,474.5c-0.6,0.3-1.1,0.6-1.6,1l-59.2-63.1c9.3-8.6,20.1-15.2,32-19.5L1365.8,474.5z M1363.3,476.3
					c-0.4,0.4-0.7,0.9-1,1.3l-78.6-36.3c5-10.6,11.9-20.1,20.4-28.2L1363.3,476.3z M1361.8,478.8c-0.2,0.6-0.3,1.1-0.4,1.7
					l-86.5-2.8c0.5-12.2,3.3-24.1,8.3-35.2L1361.8,478.8z M1362.1,484.6c0.2,0.4,0.4,0.8,0.7,1.2l-0.5,1l-62.4,58.4
					c-8.3-8.9-14.7-19.4-19-30.7L1362.1,484.6z M1360.4,490.3l-39.2,72.2c-7.5-4.5-14.4-9.9-20.5-16.3L1360.4,490.3z M1364.6,487.6
					c0.3,0.2,0.5,0.3,0.8,0.5l-32.9,80c-3.2-1.3-6.2-2.8-9.2-4.5L1364.6,487.6z M1366.6,488.6c0.5,0.1,0.9,0.2,1.4,0.3l-2.8,86.5
					c-10.8-0.4-21.4-2.7-31.5-6.7L1366.6,488.6z M1368.9,575.5c-0.8,0-1.6,0-2.4,0l2.8-86.5c0.5,0,1-0.1,1.5-0.2l28.8,81.6
					C1389.7,573.8,1379.3,575.5,1368.9,575.5L1368.9,575.5z M1372,488.3c0.4-0.2,0.8-0.4,1.2-0.7l41.2,76c-4.4,2.4-9,4.5-13.7,6.2
					L1372,488.3z M1378.9,493.1l53.8,57.4c-4.9,4.6-10.3,8.6-16.1,12L1378.9,493.1z M1376.6,488.7l-1.6-2.9c0.2-0.2,0.3-0.5,0.4-0.7
					l78.5,36.2c-5,10.6-11.9,20.1-20.4,28.2L1376.6,488.7z M1376,484c0.2-0.6,0.3-1.1,0.4-1.7l86.5,2.8c-0.5,12.2-3.3,24.1-8.3,35.2
					L1376,484z M1331.9,569.9l-14.8,35.9c-4.5-1.9-8.9-4-13.2-6.3l18.5-34.2C1325.5,567,1328.6,568.6,1331.9,569.9L1331.9,569.9z
					 M1333.1,570.4c10.2,4.1,21.1,6.5,32.1,6.9l-1.4,38.7c-15.7-0.5-31.1-3.8-45.6-9.7L1333.1,570.4z M1366.4,577.3
					c0.8,0,1.7,0,2.5,0c10.7,0,21.2-1.8,31.3-5.2l12.8,36.6c-14.2,4.9-29.2,7.4-44.2,7.4c-1.2,0-2.5,0-3.8,0L1366.4,577.3z
					 M1401.4,571.7c4.8-1.7,9.5-3.9,14-6.3l18.5,34.2c-6.3,3.5-12.8,6.4-19.6,8.8L1401.4,571.7z M1495.2,434.3l-36.5,13.4
					c-4.4-11.6-11-22.3-19.4-31.4l28.3-26.6c12,12.9,21.3,28,27.4,44.5L1495.2,434.3z M1464.2,386.2c0.9,0.9,1.8,1.8,2.6,2.7
					l-28.3,26.5c-9.2-9.7-20.2-17.3-32.5-22.5l14.6-35.9c16.3,6.8,31,16.7,43.5,29.1L1464.2,386.2z M1419.6,356.5l-14.8,36
					c-10.2-4.1-21.1-6.5-32.1-6.9l1.3-38.8c15.6,0.5,31,3.8,45.5,9.7L1419.6,356.5z M1369,346.7c1.2,0,2.5,0,3.8,0l-1.3,38.8h-2.5
					c-10.7,0-21.2,1.8-31.3,5.2l-12.9-36.6c14.2-4.9,29.1-7.4,44.1-7.4L1369,346.7z M1323.6,354.5l12.9,36.6
					c-12.1,4.3-23.3,11.1-32.8,19.8l-26.6-28.3c13.3-12.4,29.1-22,46.3-28.2L1323.6,354.5z M1273.7,386.2c0.9-0.9,1.8-1.8,2.7-2.6
					l26.6,28.3c-8.7,8.2-15.8,17.9-21,28.7l-35.3-16.3c6.7-14.2,15.8-27.1,26.9-38.2L1273.7,386.2z M1246.3,425.5l35.3,16.3
					c-5.1,11.3-8,23.5-8.5,35.9l-38.8-1.3c0.6-17.6,4.6-34.9,11.8-51L1246.3,425.5z M1234.3,481.4c0-1.2,0-2.5,0.1-3.8l38.8,1.3
					c0,0.8,0,1.7,0,2.5c-0.1,11.1,1.8,22.1,5.5,32.6l-36.5,13.4c-5.3-14.8-8-30.3-8-46L1234.3,481.4z M1242.7,528.6l36.3-13.5
					c4.4,11.6,11,22.3,19.4,31.4l-28.3,26.6c-12-12.9-21.3-28-27.5-44.5L1242.7,528.6z M1273.7,576.7c-0.9-0.9-1.8-1.8-2.6-2.7
					l28.3-26.5c6.2,6.5,13.3,12.1,21,16.7l-18.6,34.2c-10.3-5.9-19.9-13.2-28.3-21.6L1273.7,576.7z M1502.8,726.5H1235l67.1-123.7
					c4.4,2.4,8.9,4.6,13.5,6.5l-4.7,11.5c-6-1.9-12.4,1.3-14.3,7.3c-1.9,6,1.3,12.4,7.3,14.3c6,1.9,12.4-1.3,14.3-7.3
					c1.8-5.5-0.8-11.5-6.1-13.9l4.7-11.5c14.9,6,30.8,9.4,46.9,10l-0.4,11.8c-6.2,0.3-10.9,5.6-10.6,11.8
					c0.3,6.2,5.6,10.9,11.8,10.6c6.2-0.3,10.9-5.6,10.6-11.8c-0.3-5.7-4.9-10.3-10.6-10.6l0.4-11.8c1.3,0,2.6,0.1,3.9,0.1
					c15.5,0,30.8-2.5,45.5-7.6l4,11.5c-5.6,2.6-8,9.3-5.4,14.9c2.6,5.6,9.3,8,14.9,5.4c5.6-2.6,8-9.3,5.4-14.9
					c-1.9-4-5.8-6.5-10.2-6.5c-1.2,0-2.4,0.2-3.6,0.6l-4-11.4c6.9-2.5,13.7-5.5,20.1-9.1L1502.8,726.5z M1436,598.3l-18.6-34.2
					c5.9-3.5,11.5-7.6,16.5-12.3l26.6,28.3C1453.1,587.1,1444.8,593.2,1436,598.3z M1464.1,576.7c-0.9,0.9-1.8,1.8-2.7,2.6
					l-26.6-28.3c8.7-8.2,15.7-18,20.8-28.8l35.3,16.3C1484.3,552.7,1475.2,565.6,1464.1,576.7L1464.1,576.7z M1491.5,537.3
					l-35.3-16.3c5.1-11.3,8-23.5,8.5-35.9l38.8,1.3C1502.8,504,1498.8,521.3,1491.5,537.3L1491.5,537.3z"/>
				<rect x="1122" y="633.3" class="st6" width="81" height="107.5"/>
				<polygon class="st7" points="1983.9,809.7 1967.5,700.2 1934.1,700.2 1934.1,609.4 1938.2,609.4 1938.2,601.2 1922,601.2 
					1922,565.9 1920,565.9 1920,601.2 1908.8,601.2 1908.8,572.2 1906.8,572.2 1906.8,601.2 1839.1,601.2 1839.1,609.4 
					1843.7,609.4 1843.7,793.7 1766.5,793.7 1766.5,711.1 1722.5,711.1 1722.5,508.4 1726.5,508.4 1726.5,498.4 1717.7,498.4 
					1717.7,485.7 1707.6,485.7 1707.6,480.9 1707.6,466.3 1707.6,453.7 1695.4,453.7 1695.4,431.1 1693.9,431.1 1692.5,431.1 
					1692.5,453.7 1685.9,453.7 1681.9,466.3 1655.3,466.3 1655.3,485.7 1585.6,485.7 1585.6,498.4 1576.8,498.4 1576.8,508.4 
					1580.8,508.4 1580.8,640.3 1522.5,640.3 1522.5,769.9 1457.8,741.3 1457.8,615.4 1468.3,615.4 1468.3,606.2 1449.9,606.2 
					1449.9,581.1 1371.3,581.1 1371.3,606.2 1345.6,606.2 1345.6,581.1 1332.4,581.1 1332.4,606.2 1319.2,606.2 1319.2,581.1 
					1304.6,581.1 1304.6,606.2 1274.3,606.2 1274.3,615.4 1278.9,615.4 1278.9,789.8 1249.4,789.8 1249.4,788 1244.1,788 
					1244.1,738.3 1249.4,738.3 1249.4,734.3 1244.1,734.3 1244.1,684.6 1249.4,684.6 1249.4,680.6 1244.1,680.6 1244.1,630.9 
					1249.4,630.9 1249.4,627 1244.1,627 1244.1,577.3 1249.4,577.3 1249.4,573.3 1244.1,573.3 1244.1,523.6 1249.4,523.6 
					1249.4,519.6 1244.1,519.6 1244.1,468.1 1253.2,468.1 1253.2,464.1 1257.8,464.1 1257.8,453.2 1171,453.2 1171,441.1 
					1173.8,441.1 1173.8,437.6 1126.5,437.6 1126.5,441.1 1129.3,441.1 1129.3,453.2 1107.8,453.2 1107.8,464.1 1112.5,464.1 
					1112.5,468.1 1121.6,468.1 1121.6,519.6 1116.3,519.6 1116.3,523.6 1121.6,523.6 1121.6,573.3 1116.3,573.3 1116.3,577.3 
					1121.6,577.3 1121.6,627 1116.3,627 1116.3,630.9 1121.6,630.9 1121.6,680.6 1116.3,680.6 1116.3,684.6 1121.6,684.6 
					1121.6,734.3 1116.3,734.3 1116.3,738.3 1121.6,738.3 1121.6,788 1116.3,788 1116.3,792 1121.6,792 1121.6,832.6 1092,832.6 
					1092,675.7 972.7,675.7 972.7,789.8 953.3,789.8 953.3,434.2 939,434.2 939,443.4 912.5,449.8 912.5,443.9 898.2,443.9 
					898.2,453.3 871.8,459.8 871.8,453 857.4,453 857.4,463.3 831,469.8 831,464.1 816.7,464.1 816.7,473.3 790.2,479.7 
					790.2,474.9 775.9,474.9 775.9,824.1 755.7,824.1 755.7,638 681,638 681,752.4 604.5,752.4 604.5,654.8 595.1,654.8 
					595.1,622.7 600.7,622.7 600.7,619.5 575.9,619.5 575.9,609.4 573.2,609.4 573.2,619.5 565.3,619.5 565.3,567.8 563.3,567.8 
					563.3,619.5 553,619.5 553,622.7 559.1,622.7 559.1,654.8 508.6,654.8 508.6,729.3 459.4,729.3 433.7,824.1 382.2,824.1 
					382.2,514.4 313.9,514.4 313.9,503.4 317.8,503.4 317.8,499.5 266.1,499.5 266.1,503.4 270.2,503.4 270.2,514.4 270.2,532.3 
					270.2,744.4 238,744.4 238,664.2 249.4,664.2 249.4,657 168.5,657 168.5,608.6 153,608.6 153,598.6 118.6,598.6 118.6,608.6 
					90.5,608.6 90.5,781.5 -1.5,781.5 -1.5,653.2 -79,653.2 -79,754.5 -146.3,754.5 -146.3,819.3 -194.8,819.3 -194.8,737.8 
					-258.5,737.8 -258.5,807.3 -316.2,807.3 -316.2,925.4 -258.5,925.4 -239,925.4 -207.1,925.4 -194.8,925.4 -146.3,925.4 
					-79,925.4 -56.4,925.4 -44.3,925.4 -1.5,925.4 90.5,925.4 118.6,925.4 153,925.4 168.5,925.4 228.9,925.4 238,925.4 
					270.2,925.4 324.1,925.4 350.7,925.4 382.2,925.4 508.6,925.4 537.8,925.4 587,925.4 604.5,925.4 682.4,925.4 703.3,925.4 
					775.9,925.4 783,925.4 790.2,925.4 816.7,925.4 831,925.4 857.4,925.4 869.4,925.4 871.8,925.4 898.2,925.4 912.5,925.4 
					935.3,925.4 939,925.4 946.1,925.4 953.3,925.4 972.7,925.4 1071.3,925.4 1085.4,925.4 1092,925.4 1121.6,925.4 1173.8,925.4 
					1221.6,925.4 1244.1,925.4 1278.9,925.4 1365.4,925.4 1456.9,925.4 1457.8,925.4 1522.5,925.4 1558.7,925.4 1580.8,925.4 
					1594.8,925.4 1703.1,925.4 1722.5,925.4 1745.7,925.4 1766.5,925.4 1843.7,925.4 1901.2,925.4 1912.9,925.4 1934.1,925.4 
					2062.6,925.4 2062.6,809.7 				"/>
				<g class="st8">
					<rect x="98.6" y="621.1" class="st9" width="5.9" height="5.9"/>
					<rect x="110.4" y="621.1" class="st9" width="5.9" height="5.9"/>
					<rect x="98.6" y="635" class="st9" width="5.9" height="5.9"/>
					<rect x="110.4" y="635" class="st9" width="5.9" height="5.9"/>
					<rect x="98.6" y="648.4" class="st9" width="5.9" height="5.9"/>
					<rect x="123.6" y="621.1" class="st9" width="5.9" height="5.9"/>
				</g>
				<rect x="530.5" y="443.9" class="st10" width="4" height="22.3"/>
				<rect x="544.4" y="443.9" class="st10" width="4" height="22.3"/>
				<rect x="558.2" y="443.9" class="st10" width="4" height="22.3"/>
				<rect x="572.1" y="443.9" class="st10" width="4" height="22.3"/>
				<rect x="586" y="443.9" class="st10" width="4" height="22.3"/>
				<rect x="599.8" y="443.9" class="st10" width="4" height="22.3"/>
				<rect x="613.7" y="443.9" class="st10" width="4" height="22.3"/>
				<rect x="627.6" y="443.9" class="st10" width="4" height="22.3"/>
				<rect x="641.5" y="443.9" class="st10" width="4" height="22.3"/>
				<rect x="655.3" y="443.9" class="st10" width="4" height="22.3"/>
				<rect x="669.2" y="443.9" class="st10" width="4" height="22.3"/>
				<rect x="530.5" y="474.9" class="st10" width="4" height="22.3"/>
				<rect x="544.4" y="474.9" class="st10" width="4" height="22.3"/>
				<rect x="558.2" y="474.9" class="st10" width="4" height="22.3"/>
				<rect x="572.1" y="474.9" class="st10" width="4" height="22.3"/>
				<rect x="586" y="474.9" class="st10" width="4" height="22.3"/>
				<rect x="599.8" y="474.9" class="st10" width="4" height="22.3"/>
				<rect x="613.7" y="474.9" class="st10" width="4" height="22.3"/>
				<rect x="627.6" y="474.9" class="st10" width="4" height="22.3"/>
				<rect x="641.5" y="474.9" class="st10" width="4" height="22.3"/>
				<rect x="655.3" y="474.9" class="st10" width="4" height="22.3"/>
				<rect x="669.2" y="474.9" class="st10" width="4" height="22.3"/>
				<rect x="530.5" y="505.9" class="st10" width="4" height="22.3"/>
				<rect x="544.4" y="505.9" class="st10" width="4" height="22.3"/>
				<rect x="558.2" y="505.9" class="st10" width="4" height="22.3"/>
				<rect x="572.1" y="505.9" class="st10" width="4" height="22.3"/>
				<rect x="586" y="505.9" class="st10" width="4" height="22.3"/>
				<rect x="599.8" y="505.9" class="st10" width="4" height="22.3"/>
				<rect x="613.7" y="505.9" class="st10" width="4" height="22.3"/>
				<rect x="627.6" y="505.9" class="st10" width="4" height="22.3"/>
				<rect x="641.5" y="505.9" class="st10" width="4" height="22.3"/>
				<rect x="655.3" y="505.9" class="st10" width="4" height="22.3"/>
				<rect x="669.2" y="505.9" class="st10" width="4" height="22.3"/>
				<rect x="572.1" y="536.9" class="st10" width="4" height="22.3"/>
				<rect x="586" y="536.9" class="st10" width="4" height="22.3"/>
				<rect x="599.8" y="536.9" class="st10" width="4" height="22.3"/>
				<rect x="613.7" y="536.9" class="st10" width="4" height="22.3"/>
				<rect x="627.6" y="536.9" class="st10" width="4" height="22.3"/>
				<rect x="641.5" y="536.9" class="st10" width="4" height="22.3"/>
				<rect x="655.3" y="536.9" class="st10" width="4" height="22.3"/>
				<rect x="669.2" y="536.9" class="st10" width="4" height="22.3"/>
				<rect x="586" y="569.7" class="st10" width="4" height="22.3"/>
				<rect x="599.8" y="569.7" class="st10" width="4" height="22.3"/>
				<rect x="613.7" y="569.7" class="st10" width="4" height="22.3"/>
				<rect x="627.6" y="569.7" class="st10" width="4" height="22.3"/>
				<rect x="641.5" y="569.7" class="st10" width="4" height="22.3"/>
				<rect x="655.3" y="569.7" class="st10" width="4" height="22.3"/>
				<rect x="669.2" y="569.7" class="st10" width="4" height="22.3"/>
				<rect x="798.7" y="499.2" class="st11" width="9.5" height="24.1"/>
				<rect x="798.7" y="545.3" class="st11" width="9.5" height="24.1"/>
				<rect x="798.7" y="591.5" class="st11" width="9.5" height="24.1"/>
				<rect x="798.7" y="637.6" class="st11" width="9.5" height="24.1"/>
				<rect x="798.7" y="681.1" class="st11" width="9.5" height="24.1"/>
				<rect x="798.7" y="727.2" class="st11" width="9.5" height="24.1"/>
				<rect x="839.5" y="499.2" class="st11" width="9.5" height="24.1"/>
				<rect x="839.5" y="545.3" class="st11" width="9.5" height="24.1"/>
				<rect x="839.5" y="591.5" class="st11" width="9.5" height="24.1"/>
				<rect x="839.5" y="637.6" class="st11" width="9.5" height="24.1"/>
				<rect x="839.5" y="681.1" class="st11" width="9.5" height="24.1"/>
				<rect x="839.5" y="727.2" class="st11" width="9.5" height="24.1"/>
				<rect x="880.2" y="499.2" class="st11" width="9.5" height="24.1"/>
				<rect x="880.2" y="545.3" class="st11" width="9.5" height="24.1"/>
				<rect x="880.2" y="591.5" class="st11" width="9.5" height="24.1"/>
				<rect x="880.2" y="637.6" class="st11" width="9.5" height="24.1"/>
				<rect x="880.2" y="681.1" class="st11" width="9.5" height="24.1"/>
				<rect x="880.2" y="727.2" class="st11" width="9.5" height="24.1"/>
				<rect x="921" y="499.2" class="st11" width="9.5" height="24.1"/>
				<rect x="921" y="545.3" class="st11" width="9.5" height="24.1"/>
				<rect x="921" y="591.5" class="st11" width="9.5" height="24.1"/>
				<rect x="921" y="637.6" class="st11" width="9.5" height="24.1"/>
				<rect x="921" y="681.1" class="st11" width="9.5" height="24.1"/>
				<rect x="921" y="727.2" class="st11" width="9.5" height="24.1"/>
				<rect x="645.5" y="162.8" class="st10" width="7.9" height="21.1"/>
				<rect x="665" y="162.8" class="st10" width="7.9" height="21.1"/>
				<rect x="684.5" y="162.8" class="st10" width="7.9" height="21.1"/>
				<rect x="704.1" y="162.8" class="st10" width="7.9" height="21.1"/>
				<rect x="645.5" y="198" class="st10" width="7.9" height="21.1"/>
				<rect x="665" y="198" class="st10" width="7.9" height="21.1"/>
				<rect x="684.5" y="198" class="st10" width="7.9" height="21.1"/>
				<rect x="704.1" y="198" class="st10" width="7.9" height="21.1"/>
				<rect x="645.5" y="233.1" class="st10" width="7.9" height="21.1"/>
				<rect x="665" y="233.1" class="st10" width="7.9" height="21.1"/>
				<rect x="726.2" y="162.8" class="st10" width="7.9" height="21.1"/>
				<rect x="118.6" y="376.7" class="st12" width="5" height="19.4"/>
				<rect x="136.3" y="376.7" class="st12" width="5" height="19.4"/>
				<rect x="157.1" y="376.7" class="st12" width="5" height="19.4"/>
				<rect x="174.8" y="376.7" class="st12" width="5" height="19.4"/>
				<rect x="79.1" y="376.7" class="st12" width="5" height="19.4"/>
				<rect x="96.9" y="376.7" class="st12" width="5" height="19.4"/>
				<rect x="118.6" y="410.3" class="st12" width="5" height="19.4"/>
				<rect x="136.3" y="410.3" class="st12" width="5" height="19.4"/>
				<rect x="157.1" y="410.3" class="st12" width="5" height="19.4"/>
				<rect x="174.8" y="410.3" class="st12" width="5" height="19.4"/>
				<rect x="79.1" y="410.3" class="st12" width="5" height="19.4"/>
				<rect x="96.9" y="410.3" class="st12" width="5" height="19.4"/>
				<rect x="118.6" y="443.9" class="st12" width="5" height="19.4"/>
				<rect x="136.3" y="443.9" class="st12" width="5" height="19.4"/>
				<rect x="157.1" y="443.9" class="st12" width="5" height="19.4"/>
				<rect x="174.8" y="443.9" class="st12" width="5" height="19.4"/>
				<rect x="79.1" y="443.9" class="st12" width="5" height="19.4"/>
				<rect x="96.9" y="443.9" class="st12" width="5" height="19.4"/>
				<rect x="1057.6" y="525" class="st10" width="7.8" height="30"/>
				<rect x="1081.5" y="525" class="st10" width="7.8" height="30"/>
				<rect x="1103.9" y="525" class="st10" width="7.8" height="30"/>
				<rect x="1132.6" y="481.1" class="st11" width="6.4" height="26.3"/>
				<rect x="1164.3" y="481.1" class="st11" width="6.4" height="26.3"/>
				<rect x="1195.9" y="481.1" class="st11" width="6.4" height="26.3"/>
				<rect x="1132.6" y="535.3" class="st11" width="6.4" height="26.3"/>
				<rect x="1164.3" y="535.3" class="st11" width="6.4" height="26.3"/>
				<rect x="1195.9" y="535.3" class="st11" width="6.4" height="26.3"/>
				<rect x="1132.6" y="590.8" class="st11" width="6.4" height="26.3"/>
				<rect x="1164.3" y="590.8" class="st11" width="6.4" height="26.3"/>
				<rect x="1195.9" y="590.8" class="st11" width="6.4" height="26.3"/>
				<rect x="1132.6" y="646.3" class="st11" width="6.4" height="26.3"/>
				<rect x="1164.3" y="646.3" class="st11" width="6.4" height="26.3"/>
				<rect x="1195.9" y="646.3" class="st11" width="6.4" height="26.3"/>
				<rect x="1132.6" y="696.7" class="st11" width="6.4" height="26.3"/>
				<rect x="1164.3" y="696.7" class="st11" width="6.4" height="26.3"/>
				<rect x="1195.9" y="696.7" class="st11" width="6.4" height="26.3"/>
				<rect x="1132.6" y="752.9" class="st11" width="6.4" height="26.3"/>
				<rect x="1164.3" y="752.9" class="st11" width="6.4" height="26.3"/>
				<rect x="1195.9" y="752.9" class="st11" width="6.4" height="26.3"/>
			</g>
		</g>
	</g>
</g>
</svg>
