<svg xmlns="http://www.w3.org/2000/svg" viewBox="0 0 369.73 369.73"><defs><style>.cls-1{fill:#084b87;}.cls-2{fill:#ef9143;}.cls-3{fill:#fff;}</style></defs><g id="Layer_2" data-name="Layer 2"><g id="Layer_1-2" data-name="Layer 1"><rect class="cls-1" width="369.73" height="369.73"/><path class="cls-2" d="M240.57,276.06V189.48h14.61a3,3,0,0,0,1.88-5.24l-58.59-48.12V105.65s55.14,52.24,155,87.4l-12.3,18.43c-20.33-6.28-34.32-11.77-41.33-14.71a3.16,3.16,0,0,0-4.32,3.58c2.79,13.06,13.61,43.33,36.05,75.71h-30s-13.47-17.66-25.21-45.75a3.69,3.69,0,0,0-7.1,1.39v44.36Z"/><path class="cls-3" d="M129.16,276.06V189.48H114.55a3,3,0,0,1-1.88-5.24l58.59-48.12V105.65s-55.14,52.24-155,87.4l12.3,18.43c20.33-6.28,34.32-11.77,41.33-14.71a3.16,3.16,0,0,1,4.32,3.58c-2.79,13.06-13.6,43.33-36,75.71h30s13.47-17.66,25.21-45.75a3.69,3.69,0,0,1,7.1,1.39v44.36Z"/><ellipse class="cls-3" cx="90.87" cy="117.8" rx="21.05" ry="24.13"/><ellipse class="cls-2" cx="278.86" cy="117.8" rx="21.05" ry="24.13"/><rect class="cls-3" x="162.46" y="201.01" width="44.81" height="44.81"/></g></g></svg>