<?xml version="1.0" encoding="UTF-8"?><svg id="Layer_1" xmlns="http://www.w3.org/2000/svg" viewBox="0 0 500 258"><defs><style>.cls-1{fill:#fff;}.cls-2{fill:#ef9143;}</style></defs><g><path class="cls-1" d="m4.33,190.43h13.17v50.17h22.34v11.76H4.33v-61.92Z"/><path class="cls-1" d="m43.43,228.51c0-16.01,9.25-24.76,21.09-24.76,6.75,0,12.84,3.34,15.26,9v-8.09h12.67v47.61h-12.67v-7.75c-2.34,5.5-8.51,8.92-15.17,8.92-11.84,0-21.18-8.92-21.18-24.93Zm36.77,0c0-8.92-5-14.26-12.09-14.26s-12.01,5.25-12.01,14.26,5,14.34,12.09,14.34,12.01-5.34,12.01-14.34Z"/><path class="cls-1" d="m134.63,252.35l-18.26-23.01v23.01h-12.67v-61.92h12.67v35.74l17.34-21.51h15.42l-19.84,22.93,20.84,24.76h-15.51Z"/><path class="cls-1" d="m150.13,228.51c0-16.01,9.25-24.76,21.09-24.76,6.75,0,12.84,3.34,15.26,9v-8.09h12.67v47.61h-12.67v-7.75c-2.34,5.5-8.51,8.92-15.17,8.92-11.84,0-21.18-8.92-21.18-24.93Zm36.77,0c0-8.92-5-14.26-12.09-14.26s-12.01,5.25-12.01,14.26,5,14.34,12.09,14.34,12.01-5.34,12.01-14.34Zm-9.59-43.86h11.67l-9.09,14.67h-9.09l6.5-14.67Z"/><path class="cls-1" d="m206.73,240.18l11.51-1.92c1.75,3.75,5.84,5.92,11.26,5.92s8.92-1.92,8.92-5.25c0-9.5-30.1-1.75-29.93-20.84.17-8.59,8.67-14.26,20.51-14.26,9.84,0,18.68,4.59,21.01,12.01l-11.34,2c-1.42-3.25-5.09-5.17-9.34-5.17-5.25,0-8.34,1.83-8.34,5,0,9.51,30.18,1,30.18,20.09,0,9.51-8.42,15.42-21.76,15.42-11.84,0-20.34-5.25-22.68-13.01Z"/><path class="cls-1" d="m271.42,244.51v7.75h-12.67v-61.84h12.67v22.23c2.34-5.58,8.42-8.92,15.17-8.92,11.84,0,21.18,8.75,21.18,24.76s-9.34,24.93-21.09,24.93c-6.75,0-12.92-3.42-15.26-8.92Zm23.68-16.01c0-8.92-4.92-14.26-12.09-14.26s-12.01,5.25-12.01,14.26,5,14.34,12.09,14.34,12.01-5.34,12.01-14.34Z"/><path class="cls-1" d="m315.1,228.51c0-16.01,9.25-24.76,21.09-24.76,6.75,0,12.84,3.34,15.26,9v-8.09h12.67v47.61h-12.67v-7.75c-2.34,5.5-8.51,8.92-15.17,8.92-11.84,0-21.18-8.92-21.18-24.93Zm36.77,0c0-8.92-5-14.26-12.09-14.26s-12.01,5.25-12.01,14.26,5,14.34,12.09,14.34,12.01-5.34,12.01-14.34Z"/><path class="cls-1" d="m375.04,204.66h12.67v7.17c1.67-4.42,6.59-8.84,16.09-7.75l-1.25,12.01c-9.51-1.75-14.84,2.67-14.84,13.76v22.51h-12.67v-47.69Z"/><path class="cls-1" d="m406.05,228.51c0-16.01,9.25-24.76,21.09-24.76,6.75,0,12.84,3.34,15.26,9v-8.09h12.67v47.61h-12.67v-7.75c-2.34,5.5-8.51,8.92-15.17,8.92-11.84,0-21.18-8.92-21.18-24.93Zm36.77,0c0-8.92-5-14.26-12.09-14.26s-12.01,5.25-12.01,14.26,5,14.34,12.09,14.34,12.01-5.34,12.01-14.34Zm-9.59-43.86h11.67l-9.09,14.67h-9.09l6.5-14.67Z"/><path class="cls-1" d="m468.82,233.34v-19.09h-6.75v-9.59h6.75v-8.59l12.76-2.67v11.26h13.01v9.59h-13.01v17.92c0,8.09,2.34,10.92,8.59,10.92,1,0,2.08-.17,3.83-.42l1.67,9.59c-1.92.5-5.17.83-7.67.83-13.01,0-19.18-5.25-19.18-19.76Z"/></g><g><path class="cls-2" d="m293.88,148.23v-68.2h11.51c2.18,0,3.17-2.74,1.48-4.13l-46.15-37.9V14s43.43,41.15,122.08,68.84l-9.69,14.52c-16.01-4.95-27.03-9.27-32.55-11.59-1.86-.78-3.83.85-3.41,2.82,2.2,10.29,10.72,34.13,28.4,59.64h-23.64s-10.61-13.91-19.86-36.04c-1.22-2.93-5.59-2.08-5.59,1.1v34.94s-22.58,0-22.58,0Z"/><g><path class="cls-1" d="m206.12,148.23v-68.2h-11.51c-2.18,0-3.17-2.74-1.48-4.13l46.15-37.9V14s-43.43,41.15-122.08,68.84l9.69,14.52c16.01-4.95,27.03-9.27,32.55-11.59,1.86-.78,3.83.85,3.41,2.82-2.2,10.29-10.72,34.13-28.4,59.64h23.64s10.61-13.91,19.86-36.04c1.22-2.93,5.59-2.08,5.59,1.1v34.94s22.58,0,22.58,0Z"/><ellipse class="cls-1" cx="175.96" cy="23.57" rx="16.58" ry="19.01"/><ellipse class="cls-2" cx="324.04" cy="23.57" rx="16.58" ry="19.01"/><rect class="cls-1" x="232.35" y="89.11" width="35.3" height="35.3"/></g></g></svg>