<?xml version="1.0" encoding="utf-8"?>
<!-- Generator: Adobe Illustrator 25.2.1, SVG Export Plug-In . SVG Version: 6.00 Build 0)  -->
<svg version="1.1" id="Layer_1" xmlns="http://www.w3.org/2000/svg" xmlns:xlink="http://www.w3.org/1999/xlink" x="0px" y="0px"
	 viewBox="0 0 500 273.4" style="enable-background:new 0 0 500 273.4;" xml:space="preserve">
<style type="text/css">
	.st0{fill:#07447A;}
</style>
<path class="st0" d="M331.2,269.6V143.4h21.3c4,0,5.9-5.1,2.7-7.6l-85.4-70.1V21.3c0,0,80.4,76.1,225.8,127.3l-17.9,26.9
	c-29.6-9.1-50-17.1-60.2-21.4c-3.4-1.4-7.1,1.6-6.3,5.2c4.1,19,19.8,63.1,52.5,110.3H420c0,0-19.6-25.7-36.7-66.7
	c-2.3-5.4-10.3-3.8-10.3,2v64.6L331.2,269.6L331.2,269.6z"/>
<g>
	<path class="st0" d="M168.8,269.6V143.4h-21.3c-4,0-5.9-5.1-2.7-7.6l85.4-70.1V21.3c0,0-80.4,76.1-225.8,127.3l17.9,26.9
		c29.6-9.1,50-17.1,60.2-21.4c3.4-1.4,7.1,1.6,6.3,5.2c-4.1,19-19.8,63.1-52.5,110.3H80c0,0,19.6-25.7,36.7-66.7
		c2.3-5.4,10.3-3.8,10.3,2v64.6L168.8,269.6L168.8,269.6z"/>
	<ellipse class="st0" cx="113" cy="39" rx="30.7" ry="35.2"/>
	<ellipse class="st0" cx="387" cy="39" rx="30.7" ry="35.2"/>
	<rect x="217.4" y="160.2" class="st0" width="65.3" height="65.3"/>
</g>
</svg>
